<svg id="Layer_1" data-name="Layer 1" xmlns="http://www.w3.org/2000/svg" viewBox="0 0 620 620"><defs><style>.cls-1{fill:#009195;opacity:0.75;}.cls-2{fill:#adc913;}.cls-3{fill:#e6e6e6;}.cls-4{fill:#95ad22;}.cls-5{fill:#f3dcb3;}.cls-6,.cls-7{fill:none;stroke-miterlimit:10;}.cls-6{stroke:#d8ba88;stroke-width:2px;}.cls-7{stroke:#e6e6e6;stroke-width:31px;stroke-dasharray:2.1 52.52;}.cls-8{fill:#333;}</style></defs><title>Artboard 6</title><path class="cls-1" d="M568.27,322a258.8,258.8,0,0,1-7.74,51.72c-35.19,138.36-175.88,222-314.24,186.8A258.08,258.08,0,0,1,124.54,490.1c-1.47-1.5-2.9-3-4.32-4.55A258.27,258.27,0,0,1,59.49,246.28c35.19-138.37,175.88-222,314.24-186.8C494.82,90.28,574,201.87,568.27,322Z"/><path class="cls-1" d="M514.57,319.51a204.54,204.54,0,0,1-6.13,41c-27.87,109.6-139.31,175.85-248.91,148a204.67,204.67,0,0,1-96.44-55.78c-1.16-1.19-2.29-2.4-3.42-3.61a204.57,204.57,0,0,1-48.1-189.52c27.87-109.6,139.31-175.85,248.91-148C456.39,136,519.1,224.35,514.57,319.51Z"/><path class="cls-2" d="M260.17,201.15s43.68-75.62,92.22-67.28,86.23-64,86.23-64L566.69,129.3s-39.6,85.38-90.61,88.72-101.79,73.75-101.79,73.75Z"/><path class="cls-3" d="M459.15,200.33c27.32,53.33,56.43,55,56.43,55-2.13,8.34-3.48,20.39,1.8,32,1.75,3.85,4.85,10.68,9.56,10.94,6.92.39,13.27-13.59,12.35-17.87,0,0,0-.44,0-.4-1.38,15.81,4.13,28.51,13,31.71,1.11.41,6.69,2.25,10.2-.54,8.11-6.44-.78-32.85-.84-33.18,0,0,17.84,55.25,36.42,47.15s-26-98.49-26-98.49-24.39,15.06-66.36,1.67c0,0-16.72-7.08-37.2-32.06-7-8.56-12.68-10.44-16.51-9-5.54,2.08-2.22,20.8,1.47,21.29C455.22,208.82,457.33,204.83,459.15,200.33Z"/><path class="cls-3" d="M382.24,145c-48.62-24.43-50.35-50.85-50.35-50.85-7.56,2-18.49,3.3-29.09-1.42-3.51-1.56-9.73-4.33-10-8.6-.4-6.28,12.25-12.14,16.14-11.34l.36,0c-14.34,1.37-25.92-3.54-28.89-11.56-.37-1-2.09-6.06.42-9.27,5.79-7.41,29.84.48,30.14.53,0,0-50.3-15.81-43.07-32.74s89.63,22.92,89.63,22.92-13.51,22.26-1,60.28c0,0,6.54,15.14,29.37,33.56,7.82,6.31,9.57,11.44,8.29,14.93-1.86,5-18.88,2.16-19.35-1.18C374.56,148.59,378.16,146.65,382.24,145Z"/><path class="cls-4" d="M484.43,144.09,442.6,116.57l2.19,22.83-14.74,7.81-16.94-15L418.62,161l-13.9,25.47,14.83,6.08,49.63-28.16L459.33,180l10.52-.31,28.68,31.67S521.36,199.2,536,178.27Z"/><path class="cls-4" d="M371.77,268.81l-1.59-1.59,0-4c.2-9.53-.08-14.21-3-17.11-1.95-1.94-4.69-2.78-7.53.08a9.22,9.22,0,0,0-2.42,5.69l-2.65-1a11.84,11.84,0,0,1,3.44-7.37c4.1-4.13,8.67-3.06,11.42-.33,3.54,3.51,3.86,8.93,3.74,16.84l-.11,2.94.06.06,8.56-8.62,2.16,2.14Z"/><path class="cls-4" d="M389.67,231.15c6.53,6.48,7.73,12.48,3.51,16.73-3.72,3.75-9.76,2.81-16.17-3.44s-7.23-12.68-3.36-16.58C377.67,223.81,383.56,225.09,389.67,231.15Zm-10.05,10.72c5,5,9.35,6.23,11.7,3.87,2.63-2.66.79-7-4.11-11.87-4.73-4.69-9-6.56-11.7-3.87C373.26,232.28,374.39,236.68,379.62,241.87Z"/><path class="cls-4" d="M404.71,216c6.53,6.48,7.73,12.48,3.51,16.73-3.72,3.75-9.76,2.81-16.17-3.44s-7.22-12.68-3.35-16.58S398.6,209.93,404.71,216Zm-10,10.72c5,5,9.36,6.23,11.7,3.87,2.64-2.66.8-7-4.11-11.87-4.72-4.69-9-6.56-11.69-3.87C388.3,217.12,389.44,221.52,394.66,226.71Z"/><path class="cls-5" d="M309.52,408.22c-7.37,7.48-22.16,22.13-46.8,29.27-31.38,9.11-61.52,1.05-63.41-.37L129.8,515a242.57,242.57,0,0,1-75.22-80.46c44.19-35.63,63.7-63,63.7-63s-3.88-7.18-9.17-20.26c-7.08-17.53-14.32-34.51-17.56-55.66-2.74-18-5.48-35.92,2.74-56.21A81,81,0,0,1,119,207.05c9.85-7.67,28.63-18.46,35.09-12.74,4.55,4,1.29,14.76-.55,19.12-4.76,11.2-15.15,15.58-17.63,16.54-1,.37-9.37,3.73-11.76,12.5a18.33,18.33,0,0,0,2.2,14.27,16.86,16.86,0,0,0,3.22,3.69c7-15,19.07-37.28,37.83-58.39,19.89-22.42,34.62-29.2,44.48-32.36a10.38,10.38,0,0,1,1.17-.36,8.67,8.67,0,0,1,3.86-1.15,24,24,0,0,1,10.19,1.09,33.21,33.21,0,0,1,9.17,4.55l.56.41c.43-.36,1.79-1.5,3.71-3,6.77-5.18,20.63-14.62,26.49-10.23,4.52,3.39,2.28,13.52,1.49,17.09-5.79,26.14-27.26,34.34-44.79,57.82-7.06,9.47-16.06,24.85-20.72,48.66,17.55-18,46.56-46.71,62.35-55.61,1.11-.62,2.4-1.29,2.4-1.29,7.75-4.07,28.89-14.27,36.19-7,5.56,5.51,0,20-.81,22-8,20.38-24.95,25.92-39.61,38.13-30,24.94-47.09,77.39-31.35,98.54,4.54,6.11,13.15,11.39,21.55,11,12.41-.59,14.85-13.15,29.78-19.05,16.54-6.54,39.21-1.33,42.75,8.8C329.08,388.38,318.85,398.75,309.52,408.22Z"/><path class="cls-6" d="M241.68,170.6A118.42,118.42,0,0,0,204.84,203a361.34,361.34,0,0,0-39.11,68.16"/><circle class="cls-7" cx="422.93" cy="176.31" r="69.55"/><path class="cls-8" d="M34.68,428.64l53.64-50.92L190.64,471.5l-53.56,56.2S71.25,505.11,34.68,428.64Z"/></svg>