<svg id="Layer_1" data-name="Layer 1" xmlns="http://www.w3.org/2000/svg" xmlns:xlink="http://www.w3.org/1999/xlink" viewBox="0 0 620 619.99"><defs><style>.cls-1{fill:none;}.cls-2{fill:#adc913;}.cls-3{fill:#95ad22;}.cls-4{clip-path:url(#clip-path);}.cls-5{fill:#333;}.cls-6{fill:#f3dcb3;}.cls-7{fill:#a53f4b;}.cls-8{fill:#e6e6e6;}.cls-9{clip-path:url(#clip-path-2);}.cls-10{fill:#0f2833;}.cls-11{fill:#dd902d;}</style><clipPath id="clip-path"><path class="cls-1" d="M559.41,374.22c-35.2,138.36-175.88,222-314.25,186.8a259.85,259.85,0,0,1-29.53-9.41A258.43,258.43,0,0,1,58.36,246.78C93.55,108.41,234.24,24.78,372.6,60S594.6,235.85,559.41,374.22Z"/></clipPath><clipPath id="clip-path-2"><path class="cls-1" d="M560.52,374.22c-35.19,138.36-175.88,222-314.24,186.8A258.41,258.41,0,0,1,59.48,246.78C94.67,108.41,235.36,24.78,373.72,60S595.72,235.85,560.52,374.22Z"/></clipPath></defs><title>Artboard 7</title><path class="cls-2" d="M559.41,373.22c-35.2,138.36-175.88,222-314.25,186.8a259.85,259.85,0,0,1-29.53-9.41A258.43,258.43,0,0,1,58.36,245.78C93.55,107.41,234.24,23.78,372.6,59S594.6,234.85,559.41,373.22Z"/><line class="cls-3" x1="130.24" y1="322.31" x2="130.24" y2="174.19"/><rect class="cls-3" x="118.74" y="190.53" width="23.01" height="115.45"/><line class="cls-3" x1="70.2" y1="287.17" x2="70.2" y2="167.44"/><rect class="cls-3" x="52.5" y="180.65" width="35.41" height="93.31"/><line class="cls-3" x1="185.6" y1="232.01" x2="185.6" y2="150.11"/><rect class="cls-3" x="173.49" y="159.14" width="24.23" height="63.84"/><line class="cls-3" x1="320.23" y1="250.69" x2="320.23" y2="98.93"/><rect class="cls-3" x="312.31" y="115.67" width="15.84" height="118.28"/><line class="cls-3" x1="236.45" y1="361.93" x2="236.45" y2="122.15"/><rect class="cls-3" x="225.35" y="140.11" width="22.2" height="203.87"/><line class="cls-3" x1="278.9" y1="214.68" x2="278.9" y2="92.02"/><rect class="cls-3" x="266.72" y="105.55" width="24.37" height="95.61"/><line class="cls-3" x1="358.33" y1="191.4" x2="358.33" y2="107.48"/><rect class="cls-3" x="349.99" y="116.73" width="16.67" height="65.41"/><line class="cls-3" x1="518.28" y1="280.36" x2="518.28" y2="40.58"/><rect class="cls-3" x="507.18" y="58.54" width="22.2" height="203.87"/><line class="cls-3" x1="560.73" y1="178.67" x2="560.73" y2="56"/><rect class="cls-3" x="548.55" y="69.53" width="24.37" height="95.61"/><line class="cls-3" x1="390.13" y1="325.91" x2="390.13" y2="143.14"/><rect class="cls-3" x="380.63" y="156.83" width="19.01" height="155.4"/><line class="cls-3" x1="436.42" y1="364.78" x2="436.42" y2="167.89"/><rect class="cls-3" x="423.83" y="189.61" width="25.19" height="153.45"/><line class="cls-3" x1="478.5" y1="241.41" x2="478.5" y2="106.71"/><rect class="cls-3" x="469.89" y="121.57" width="17.23" height="104.98"/><g class="cls-4"><path class="cls-5" d="M62.8,547.22s12.65,149.23,7.3,255.25c-4.2,83.16-10.54,103.09-10.54,103.09A30.16,30.16,0,0,0,96,892.17c18.3-68.7,41-166.8,39.7-209.63-2.15-73.39-5.15-68.16,9.31-65.63,10.55,1.84,18.24,142.29,12.57,178.79S145,946.46,145,946.46A40.85,40.85,0,0,0,186,942.18C209.87,835.53,224.57,795,224.87,642c.21-110.3-16.41-193.13-16.41-193.13S60.38,366.52,62.8,547.22"/><path class="cls-6" d="M113.17,256.58s12.15-13.13-10.06-53.28C95.73,190,79.36,151.8,118.84,137s73.32,47.23,73.32,47.23l-10.93,4.3s5.68,40.58-4.86,44.63a82.93,82.93,0,0,0-18.64,10.3l-4.43,25.83Z"/><path class="cls-6" d="M49.91,454.17c27.94-12.58,26.65-8.87,28.36-6.32,1,1.54,0,4.74-1,6.6-2.25,4-5.44,2.91-9.3,6.39-5.07,4.58-8.22,14.33-8.57,20.19a2.81,2.81,0,0,1-.71,2c-2.34,2.09-10.11-.23-13.92-5.48a14.85,14.85,0,0,1-2.61-9.08c-.58-3.39,8.32-10.94,7.74-14.32"/><polygon class="cls-6" points="58.6 452.79 58.37 432.29 44.86 467.21 58.6 452.79"/><path class="cls-5" d="M157.12,179.08c1.77,3.07,4.58,4.75,6.27,3.77s1.64-4.25-.13-7.31-4.57-4.75-6.27-3.77-1.64,4.25.13,7.31"/><path class="cls-7" d="M155.76,195.77s.92,1.3,2.26,2.82c2,2.17,5,4.85,7.76,4.85,1.7,0,3.27-1,4.52-3.74a11.19,11.19,0,0,0,.6-1.52c-5-.79-10.07-1.57-15.14-2.41"/><path class="cls-8" d="M154.71,194.71s1.06,1.47,2.58,3.2a17.26,17.26,0,0,0,8.56,2.05,17.59,17.59,0,0,0,5.41-.79,13.27,13.27,0,0,0,.68-1.73c-5.72-.89-11.45-1.79-17.23-2.73"/><path class="cls-5" d="M87.89,152s35.86-53.54,41.58-34.53c0,0,6.08-12,10.68-4.21s-8.63,14.66-8.63,14.66c.32-.27,6.16-5.23,12.24-3,4.42,1.6,6.74,6.2,7.09,9.23,1,8.26-11.21,18.16-30.09,24.89,6.83,11.8,12.43,20.83,16.32,26.94,2.3,3.62,5,7.77,3.72,9.31-2.57,3.07-17.6-8.43-22-4.28-2,1.89-1.32,6.61.62,9.63,4.3,6.69,14.66,4.85,15.42,8,.43,1.79-2.24,5.16-17.22,12.09-25.67-11.77-40.72-32.83-38-51.43.57-3.95,2.31-10.3,8.27-17.3"/><path class="cls-6" d="M382,178.55c18.06-11.48,31.48-16.21,39.62-18.38,3.55-.94,6.78-1.58,7.23-.66,1.29,2.62-20.3,16.37-20.59,16.57h0s15.59,10.25,2.78,18-29,3.6-29,3.6Z"/><path class="cls-8" d="M223.25,585.33c2.08.56,5.8-.82,12.74-11.42A1490.23,1490.23,0,0,1,217.9,413.54c-2-33.64-2.68-65.85-2.47-96.46a57.61,57.61,0,0,1,4.7-24.55c13.7-30.91,51.64-35.43,108-61.22a502,502,0,0,0,60.48-33q-3.72-11.15-7.42-22.27c-87,26.6-157.33,43.73-206.67,54.67-46.55,10.32-104.83,21.87-163.14,65.66-36.58,27.47-43.33,45.4-45.78,56.46-9,40.71,21.89,90.41,77.79,119.8a24.83,24.83,0,0,0,6.55-23.77C10.42,419.37-9.33,382.66.11,359.72c5.52-13.42,22.65-26.05,29.47-27.23a20.39,20.39,0,0,1,11.71,1.22,16.49,16.49,0,0,1,1.55.9c5.74,3.82,19.66,19.52,15.1,104.57A757.1,757.1,0,0,1,45.28,542a174.24,174.24,0,0,0,36.38,26.61c19.79,10.84,31.8,16.33,46,16.7"/></g><g class="cls-9"><path class="cls-10" d="M207.57,565.87S219,700.26,214.14,795.73c-3.78,74.9-9.49,92.84-9.49,92.84a27.13,27.13,0,0,0,32.84-12.06c27.17-81.55,34.28-145.82,35.76-188.78,1.46-42.58,2.5-73,.68-73.11-1.06-.08-4.12,10-.35,13.36,2.36,2.13,6.07.3,8.05.65,9.5,1.66,16.43,128.14,11.32,161S281.63,925.4,281.63,925.4a36.79,36.79,0,0,0,36.86-3.85c21.52-96,34.76-132.53,35-270.3.19-99.33-14.78-173.93-14.78-173.93S205.38,403.14,207.57,565.87Z"/><path class="cls-6" d="M259.05,338.26a91.62,91.62,0,0,0,0-27.9c-2.46-15.69-7.47-19.89-14.15-38.95-7.5-21.41-13.33-37.3-5.78-50.83,3.83-6.87,10.66-12.94,21.91-17.17,12.76-4.78,26.76-1.42,36.23,5,6.5,4.43,6.84,7.76,11.46,14.65,3.62,5.4,5.73,9.83,10.18,12.28,6.34,3.49,12,.85,13.2,3.3.77,1.6-.6,4.86-9,12a33,33,0,0,1-33.45,48l-1.35,41.4Z"/><ellipse class="cls-5" cx="305.34" cy="232.82" rx="3.64" ry="6.56" transform="translate(-75.5 183.86) rotate(-30)"/><path class="cls-11" d="M290.5,226.57s15.77-12.3,11.74-13.75S279.59,228,290.5,226.57Z"/><path class="cls-7" d="M302.9,257.53s1.07,1.51,2.64,3.28c2.37,2.54,5.81,5.66,9,5.66,2,0,3.83-1.19,5.28-4.36a12.7,12.7,0,0,0,.7-1.78C314.69,259.41,308.82,258.5,302.9,257.53Z"/><path class="cls-8" d="M302.9,257.53s1.07,1.51,2.64,3.28a17.72,17.72,0,0,0,8.77,2.1,18.11,18.11,0,0,0,5.55-.8,12.7,12.7,0,0,0,.7-1.78C314.69,259.41,308.82,258.5,302.9,257.53Z"/><path class="cls-10" d="M316.73,318.74c5.13,3.73,8.41,13.77,1.35,40.82,0,0,14.6-.17,18.1,14.23s-15.95,32.4-15.95,32.4l19.27,75.18L228.28,482a252,252,0,0,0,14.18-31c2.54-6.81,9-25.91,2.72-43.45a41.93,41.93,0,0,0-3.09-6.25c-9.33-17.12-18.24-20-23.46-28.85-8.22-13.89-4.23-37.12,7.2-45,8.55-5.89,15.17,1,35.71.9C293.07,328.18,307.15,311.77,316.73,318.74Z"/><path class="cls-6" d="M315,453.6c-.49,1.33.68,4,2.18,5.6a7.87,7.87,0,0,0,1.66,1.35c3.5,2.06,6.41-1,9.53,0,5.15,1.68,8.53,13.77,9.82,18.41a2.49,2.49,0,0,0,1,1.63c2.47,1.37,8.82-2.23,11.12-7.6a13.23,13.23,0,0,0,.47-8.49,24.25,24.25,0,0,0-3.56-4.61C336.46,448.88,316.48,449.6,315,453.6Z"/><polygon class="cls-6" points="332.27 456.31 328.37 438.26 346.26 459.17 332.27 456.31"/><path class="cls-6" d="M315,453.6c-.44.83.43,3.66,2.18,5.6a7.32,7.32,0,0,0,1.66,1.35c3.5,2.06,6.41-1,9.53,0,5.15,1.68,8.53,13.77,9.82,18.41a2.49,2.49,0,0,0,1,1.63c2.47,1.37,8.82-2.23,11.12-7.6a13.23,13.23,0,0,0,.47-8.49C324.06,453.62,315.85,452,315,453.6Z"/><polygon class="cls-6" points="332.27 456.31 328.37 438.26 346.26 459.17 332.27 456.31"/></g><path class="cls-10" d="M87.89,151s35.86-53.54,41.58-34.53c0,0,6.08-12,10.68-4.21s-8.63,14.66-8.63,14.66c.32-.27,6.16-5.23,12.24-3,4.42,1.6,6.74,6.2,7.09,9.23,1,8.26-11.21,18.16-30.09,24.89,6.83,11.8,12.43,20.83,16.32,26.94,2.3,3.62,5,7.77,3.72,9.31-2.57,3.07-17.6-8.43-22-4.28-2,1.89-1.32,6.61.62,9.63,4.3,6.69,14.66,4.85,15.42,8,.43,1.79-2.24,5.16-17.22,12.09-25.67-11.77-40.72-32.83-38-51.43.57-3.95,2.31-10.3,8.27-17.3"/><polygon class="cls-10" points="118.02 175.2 180.06 154.97 171.94 186.01 118.02 175.2"/><path class="cls-10" d="M283.94,341.37c2.51-6.14,8.16-17.13,19.89-22.63a38,38,0,0,1,6-2.14c16.12-4,87.28,19.18,93.71,76.73,4,35.65-18.22,72.51-55.38,90.22a25.13,25.13,0,0,1-6.52-9.78c-1.83-5-2.71-11.86-.2-20.81,25-7.36,39.53-32,36.9-50.78-3.09-22-30.79-42.91-61.2-30.71"/><path class="cls-10" d="M256,332.41c-3.63-2.76-14.22-10-28.13-8.14-7.77,1-14.6,4.58-22.19,10.82-5.85,4.82-56.41,46.42-43.77,87.11,6.55,21.1,26.94,31.93,42.64,40.18a133.27,133.27,0,0,0,40.77,13.36,25.69,25.69,0,0,0,2.62-10.94,23.51,23.51,0,0,0-6.69-16.26c-36-2.66-56.55-25.12-53-44.09,2.29-12.09,15.46-28.47,32.68-32a34.81,34.81,0,0,1,15.17.33"/><path class="cls-11" d="M229,218.25s28.48-33.13,62.16-25.79-21.21,35.16-21.21,35.16,31.05,82,53.1,64c0,0,16.63,14.27-36.93,20S206.93,332.1,229,218.25Z"/><path class="cls-6" d="M232.64,454.6c8.92-4.44,20.05-3.71,21.08-.8.45,1.24-.83,3.56-2.18,4.92a5.87,5.87,0,0,1-1.54,1.15c-3,1.5-5.12,1.24-7.07,1.83-2.66.81-2.84,2.88-10.59,12.87a4.79,4.79,0,0,1-2.49,2.06c-3,.77-7.65-2.53-8.57-6.88-.81-3.83,1.57-7,2.05-7.59A28.09,28.09,0,0,1,232.64,454.6Z"/><path class="cls-6" d="M241.86,455.43a60.37,60.37,0,0,0,4.22-16l-16.87,18Z"/></svg>