<svg id="Layer_1" data-name="Layer 1" xmlns="http://www.w3.org/2000/svg" viewBox="0 0 620 620"><defs><style>.cls-1{fill:#009369;}.cls-2{fill:#e6e6e6;}.cls-3{fill:#0f2833;}.cls-4{fill:#adc913;}.cls-5{fill:#95ad22;}.cls-6{opacity:0.5;}.cls-7{fill:#0089a1;}</style></defs><title>Artboard 9</title><path class="cls-1" d="M560.52,373.72c-35.19,138.37-175.88,222-314.24,186.8A258.41,258.41,0,0,1,59.48,246.28c35.19-138.36,175.88-222,314.24-186.8S595.72,235.36,560.52,373.72Z"/><circle class="cls-2" cx="315.57" cy="81.92" r="43.21"/><path class="cls-2" d="M540.93,367.22C508.5,494.74,378.85,571.81,251.33,539.38A238.15,238.15,0,0,1,79.18,249.78C111.61,122.27,241.27,45.19,368.78,77.63S573.36,239.71,540.93,367.22Z"/><path class="cls-3" d="M516.77,360.9C487.75,475,371.72,544,257.62,515A213.12,213.12,0,0,1,103.56,255.8c29-114.11,145.05-183.08,259.16-154.06S545.8,246.79,516.77,360.9Z"/><path class="cls-4" d="M354.78,205.64c-7.36-18.26-31.92-25.79-56.14-17.82,13.2-3.51,26-.23,31.84,9.23,7.63,12.44.2,30.85-16.59,41.13s-36.56,8.53-44.18-3.91c-7.1-11.59-1.13-28.37,13.28-38.92-18,11.92-27,31.33-20.51,47.46,3,7.49,8.92,13.17,16.52,16.73,5.09,2.38,20.41-8,26.64-7.61,5,.3.81,11.68,6.12,10.56a65.17,65.17,0,0,0,10.94-3.34C348.19,248.9,362.55,224.93,354.78,205.64Z"/><path class="cls-4" d="M349.67,270.52S370.52,273,393,258.21a253.32,253.32,0,0,0-34-15.86l-27.2,10.49s-34.59-7.15-54.95-.3c0,0-7.66,3.51-11,8.4s-2.92,11.71-8.82,17.68c-4.82,4.88-27.68,16.61-35.82,20.71a3.33,3.33,0,0,0-1.47,4.46c2.67,5.38,8.52,15.67,16.34,18.76,0,0,7.57-2.32,7-14.17a.6.6,0,0,1,.53-.66.59.59,0,0,1,.64.4c1.46,3.59,2.81,10.35-2.77,17.88,0,0,12.79,5.93,21.26,4.07s45.49-15.71,67.09.77,33.73,65.9-19.8,80.48c0,0,55.38-1.75,75.14-50.74S379,274.23,379,274.23,360.54,276,349.67,270.52Zm-49.9-3.67-17.22,7,0-7.91,22-12Zm27,49.78s20-8.35,21.88-36.84l.43,21.28s-8.92,12.22-22.31,15.56Z"/><path class="cls-4" d="M224.8,311.18c-.27.13.2,13.09,11.25,11.37l5.43,3.44s-5.2,6.38-13.35.75c-6.47-4.47-4.82-17.75-4.82-17.75Z"/><path class="cls-5" d="M329.84,330.83c-8.46-6.45-19.28-8.26-29.84-7.95-8.12,1.12-18.08,4-25.14,11.2,0,0,24.48,12.95,15.34,38.95s-37.34,21.48-37.34,21.48,21,19.48,57.19,16.81C363.58,396.74,351.43,347.31,329.84,330.83Z"/><path class="cls-2" d="M486.44,225.83c.35.74.69,1.48,1,2.22l-16.79,7.63c-.3-.67-.61-1.34-.92-2Zm-18.58-31.5-14.95,10.79c-.43-.59-.86-1.18-1.3-1.76l14.79-11Zm31.54,68.33c.19.79.38,1.58.56,2.38l-18,4.1-.51-2.15Zm-57.57-97.47L429.39,178.8l-1.63-1.47L440,163.55Zm62.82,136.19.06,2.44-18.43.38-.06-2.23Zm-94.2-159.44L401,157.78l-1.9-1.11,9.21-16ZM502,340.33c-.13.81-.28,1.61-.42,2.41L483.4,339.4l.39-2.17ZM377.82,469.4l7,17.06-2.27.92-6.78-17.15C376.46,470,377.14,469.69,377.82,469.4ZM201.76,172.13l-1.71,1.4-11.77-14.19,1.89-1.55ZM344,479.44l3.41,18.12L345,498l-3.17-18.16ZM176.71,197l-1.39,1.71-14.4-11.51,1.53-1.89ZM308.77,482.41l-.32,18.44-2.45-.06.55-18.43Zm-151.56-256c-.35.65-.68,1.31-1,2L139.76,220l1.12-2.16ZM273.69,478.22l-4,18c-.8-.17-1.6-.36-2.4-.55l4.28-17.93ZM144,259.2l-.6,2.12-17.77-4.91c.21-.78.44-1.57.67-2.35Zm96.15,207.88-7.53,16.83-2.22-1,7.74-16.73ZM137.63,293.94c-.06.74-.12,1.48-.17,2.22l-18.39-1.26q.08-1.22.18-2.43Z"/><g class="cls-6"><path class="cls-2" d="M467.13,391.63c-3,2.92-6.87,3.57-11.14,1.62-7.94-3.63-10.42-10.67-6.43-19.38l7.33-16a1.1,1.1,0,0,1,1.62-.61L496,374.36a1.1,1.1,0,0,1,.6,1.62l-7.21,15.76c-3.53,7.71-9.8,10.28-17.07,6.95A8.53,8.53,0,0,1,467.13,391.63Zm13.93-6.11,1.85-4-5.82-2.66-1.86,4.05c-1,2.11-.55,3.57,1.5,4.51C478.5,388.18,480.05,387.74,481.06,385.52Zm-21.56-8.31a3.55,3.55,0,0,0,1.95,5.12c2,.91,3.81.47,5.11-2.36l2.26-4.94-6.88-3.15Z"/><path class="cls-2" d="M430,403c7.18-8.79,15.69-9.55,24.57-2.29L474.41,417a1.09,1.09,0,0,1,.17,1.72l-6.06,7.41a1.09,1.09,0,0,1-1.72.17l-20.07-16.41c-3.07-2.51-5.8-2.45-8,.28s-1.75,5.43,1.32,7.94l20.07,16.41a1.09,1.09,0,0,1,.17,1.72l-6.06,7.41a1.1,1.1,0,0,1-1.72.18l-19.88-16.26C423.71,420.28,422.81,411.74,430,403Z"/><path class="cls-2" d="M407.17,426.59a1.1,1.1,0,0,1,1.71.26L417.05,438l26.58,14.13a.92.92,0,0,1,.13,1.72l-8.42,6.16a1.44,1.44,0,0,1-1.71,0l-14.56-9.16,4.31,16.65a1.46,1.46,0,0,1-.56,1.62l-8.43,6.16a.92.92,0,0,1-1.6-.65l-5.4-29.61-8.17-11.19a1.09,1.09,0,0,1,.27-1.7Z"/><path class="cls-2" d="M217.62,419.58c4.77,4.27,7,8.77,8.2,15.62a1.15,1.15,0,0,1-.95,1.44l-8.62,2a1.1,1.1,0,0,1-1.44-1c-.95-4-2.63-7.68-5.54-10.28-2.63-2.37-4.33-2.49-5.26-1.44-1.27,1.41.17,3.92,2.22,6.66,3.69,4.86,8.63,13.79,1.62,21.61-5.7,6.37-14.35,4.59-21.54-1.84a26,26,0,0,1-8.26-13.55,1.12,1.12,0,0,1,.86-1.52l8.44-2.19a1.16,1.16,0,0,1,1.52.87,18.79,18.79,0,0,0,5.29,8.26c2.69,2.41,4.12,2.46,4.89,1.59,1.14-1.27.51-2.57-2.46-6.95-5.55-8.17-7.67-14.49-2-20.86C200,412.12,208.52,411.43,217.62,419.58Z"/><path class="cls-2" d="M186.07,401.54l-9.55-13.87a1.09,1.09,0,0,1,.32-1.7l6.78-4.67a1.1,1.1,0,0,1,1.7.31l15.61,22.67a1.1,1.1,0,0,1-.32,1.7l-33.93,23.36A1.09,1.09,0,0,1,165,429l-15-21.81a1.1,1.1,0,0,1,.31-1.7l6.79-4.67a1.09,1.09,0,0,1,1.69.31l9,13L172.4,411l-7.61-11.06a1.09,1.09,0,0,1,.31-1.69l6.59-4.54a1.09,1.09,0,0,1,1.69.31L181,405Z"/><path class="cls-2" d="M182.47,375.54a1.1,1.1,0,0,1-.68,1.59l-38.23,15.34a1.1,1.1,0,0,1-1.59-.68L138.45,383a1.1,1.1,0,0,1,.67-1.59l29.06-11.66-5.77-14.38a1.09,1.09,0,0,1,.68-1.59l8-3.23a1.09,1.09,0,0,1,1.59.68Z"/><path class="cls-2" d="M171.69,346.27a1.09,1.09,0,0,1-1,1.41l-40.57,7.11a1.09,1.09,0,0,1-1.41-1l-1.63-9.32a1.09,1.09,0,0,1,1-1.41l30.83-5.4-2.68-15.26a1.1,1.1,0,0,1,1-1.42l8.54-1.49a1.09,1.09,0,0,1,1.41,1Z"/><path class="cls-2" d="M239.23,132.9a1.09,1.09,0,0,1,.61-1.61l8.63-3.88a1.09,1.09,0,0,1,1.61.62L267,165.61a1.09,1.09,0,0,1-.61,1.61l-8.63,3.88a1.1,1.1,0,0,1-1.62-.61l-6.22-13.87L240,161.05l6.23,13.86a1.1,1.1,0,0,1-.62,1.62L237,180.4a1.1,1.1,0,0,1-1.62-.61l-16.88-37.58a1.1,1.1,0,0,1,.62-1.62l8.63-3.87a1.09,1.09,0,0,1,1.61.61l6.1,13.59,9.86-4.43Z"/><path class="cls-2" d="M289.68,163.38c-11.39,1.81-19.12-3.64-20.87-14.67l-1.56-9.83c-1.74-11,3.93-18.48,15.32-20.29s19.11,3.58,20.85,14.55L305,143C306.73,154,301.07,161.57,289.68,163.38Zm-1.77-11.15c4-.64,5.66-3.25,5-7.65l-1.47-9.22c-.69-4.34-3-6.26-7.07-5.62s-5.67,3.19-5,7.53l1.46,9.23C281.52,150.89,283.87,152.87,287.91,152.23Z"/><path class="cls-2" d="M313.35,160.27a1.09,1.09,0,0,1-1.11-1.32l3.35-41.06a1.1,1.1,0,0,1,1.32-1.12l9.42.77a1.11,1.11,0,0,1,1.12,1.32l-2.55,31.21,15.45,1.26a1.08,1.08,0,0,1,1.12,1.31l-.7,8.64a1.1,1.1,0,0,1-1.32,1.12Z"/><path class="cls-2" d="M344.21,163.31a1.09,1.09,0,0,1-.78-1.54l12.82-39.14a1.1,1.1,0,0,1,1.54-.78L372,126.5c8.93,2.93,16,8.91,11.57,22.48l-2.52,7.71c-4.52,13.81-13.71,14.2-22.64,11.28ZM357.83,156l4.29,1.41c3.48,1.14,5.81.1,7.1-3.84l3-9.16c1.26-3.83,0-6.1-3.47-7.24l-4.29-1.4Z"/></g><polygon class="cls-7" points="399.68 397.86 345.71 361.73 291.74 325.61 331.96 330.14 327.43 289.92 363.56 343.89 399.68 397.86"/><polygon class="cls-2" points="220.66 218.84 274.63 254.96 328.59 291.08 333.12 331.3 292.9 326.77 256.78 272.8 220.66 218.84"/><circle class="cls-7" cx="313.45" cy="311.91" r="10.37"/></svg>