<svg id="Layer_1" data-name="Layer 1" xmlns="http://www.w3.org/2000/svg" viewBox="0 0 620 620"><defs><style>.cls-1{fill:#edc729;}.cls-2{fill:#ba9809;}.cls-3{opacity:0.25;}.cls-4,.cls-7{fill:#fff;}.cls-5{fill:#c37a22;}.cls-6{fill:#dd902d;}.cls-7{opacity:0.14;}.cls-8{fill:#333;}.cls-9{fill:#95ad22;}.cls-10{fill:#f3dcb3;}</style></defs><title>Artboard 10</title><path class="cls-1" d="M560.52,373.72a257.28,257.28,0,0,1-55.92,106.5q-6.6,7.54-13.75,14.52a258.8,258.8,0,0,1-274.11,56.37q-10.76-4.15-21-9.17a253.31,253.31,0,0,1-27.42-15.63,256.09,256.09,0,0,1-39.23-31.57q-4.59-4.49-8.93-9.19c-1.63-1.77-3.24-3.56-4.81-5.37a258.2,258.2,0,0,1-55.92-233.9c35.19-138.37,175.88-222,314.24-186.8S595.71,235.35,560.52,373.72Z"/><path class="cls-2" d="M504.6,480.22q-6.6,7.54-13.75,14.52a258.8,258.8,0,0,1-274.11,56.37q-10.76-4.15-21-9.17a253.31,253.31,0,0,1-27.42-15.63,256.09,256.09,0,0,1-39.23-31.57q-4.59-4.49-8.93-9.19c-1.63-1.77-3.24-3.56-4.81-5.37a258.62,258.62,0,0,1,389.21,0Z"/><g class="cls-3"><polygon class="cls-4" points="178.23 252.97 175.23 437.97 172.23 252.97 178.23 252.97"/><polygon class="cls-4" points="225.56 287.33 222.56 403.61 219.56 287.33 225.56 287.33"/><polygon class="cls-4" points="337.07 284.2 334.07 400.48 331.07 284.2 337.07 284.2"/><polygon class="cls-4" points="300.66 298.6 297.66 414.88 294.66 298.6 300.66 298.6"/><polygon class="cls-4" points="264.26 282.67 261.26 467.67 258.26 282.67 264.26 282.67"/><polygon class="cls-4" points="448.57 259.87 445.57 444.87 442.57 259.87 448.57 259.87"/><polygon class="cls-4" points="415.35 287.33 412.35 403.61 409.35 287.33 415.35 287.33"/><polygon class="cls-4" points="385.46 294.57 382.46 479.57 379.46 294.57 385.46 294.57"/></g><path class="cls-5" d="M171.23,225.14v42.4S201.07,305.28,310,307.61s138.77-37.74,138.77-37.74v-39Z"/><path class="cls-6" d="M378.19,274.9c-66.75,14.18-151.38,5.3-189-19.84s-14.09-57,52.65-71.2a330.69,330.69,0,0,1,65.29-6.74c49.4-.37,97.75,9.23,123.74,26.58,8.72,5.82,14.16,12,16.54,18.25C455.25,242.65,429.46,264,378.19,274.9Z"/><path class="cls-6" d="M369,268.78c-57.78,12.28-131,4.59-163.64-17.17S193.2,202.26,251,190a285.06,285.06,0,0,1,56.52-5.84c42.76-.32,84.61,8,107.12,23,7.55,5,12.25,10.4,14.31,15.8C435.74,240.87,413.41,259.34,369,268.78Z"/><path class="cls-7" d="M447.38,222c-2.57,6-8.63,11.53-17.39,16.33-19.33,10.62-51.78,17.58-88.56,17.58-59.28,0-107.33-18.1-107.33-40.43,0-11.49,12.73-21.86,33.18-29.22a189.25,189.25,0,0,1,39.82-9.09c49.4-.37,97.75,9.23,123.74,26.58C439.56,209.52,445,215.71,447.38,222Z"/><path class="cls-5" d="M341.55,227.91s17.22-1.13,15.63-8.41-34.91-8.84-34.91-8.84l.19-8.59-11.93,0-.19,9L298,211l.2-9L287,202l-.17,7.8-30.19,0-.11,5.15,17.9.06-.6,27-15.44,0-.14,6.35,25.27.08-.18,8.33,11.93,0,.19-8.46,12.28,0-.19,8.46,12.29,0,.19-8.86s42.44,1.46,43.39-9.51S341.55,227.91,341.55,227.91Zm-45.36-12.44s35.82-.81,34.63,5.67-34.88,5.44-34.88,5.44ZM335.7,237c-1.36,7-40.11,5.84-40.11,5.84l.26-11.94S337.07,230.06,335.7,237Z"/><path class="cls-8" d="M294.3,172.64c-7.36.1-49.26.91-70.53,12.42-6.65,3.6-9.62,7.35-11.25,10.35-4.14,7.64-3.8,18.2-.45,23.85,15.3,25.76,120.26-4.73,120.27-4.73l-39.54,6.65a117.19,117.19,0,0,0,44.34,10.11c23.08.6,57.94-5.61,60-17.2C403.05,180.18,344,169.14,294.3,172.64Z"/><path class="cls-9" d="M270.12,175.58A202.25,202.25,0,0,0,303,179.66a202.27,202.27,0,0,0,42.3-2.7c-4.7-56.1-20.71-95.95-35.27-96.3S277.45,119.45,270.12,175.58Z"/><path class="cls-9" d="M310,80.57s25.37-3.79,40.67,16.21,19.47,34.84,31.79,29.67,15.07-12.77,15.07-12.77l14.82,3.86S402,153,366,146.45,323.22,103,323.22,103Z"/><path class="cls-9" d="M309.31,80.57s-25.38-3.79-40.68,16.21-19.46,34.84-31.78,29.67-15.07-12.77-15.07-12.77L207,117.54s10.37,35.47,46.37,28.91S296.08,103,296.08,103Z"/><path class="cls-10" d="M221.17,115.22s5.87-7.54,3.15-12.31c-.31-.55-1.29-1.24-3.15-2.62-5.17-3.85-5.82-4-6.23-3.74-1,.52-.8,2.64-.51,3.76a6.13,6.13,0,0,0,3,3.71,7.52,7.52,0,0,1-5,3.73c-.4.08-4.18.74-6.12-1.89-1.67-2.26-1.17-5.85.3-6.6s2.67,1.39,5,.9c2-.43,3.73-2.5,3.36-3.61-.28-.85-1.7-.81-5.76-1.34-7.1-.92-8-1.72-9.51-.75-1.67,1.11-2,3.24-2.79,6.6a14.24,14.24,0,0,0-.45,6.3c1.47,6.73,11,11.1,11,11.1Z"/><path class="cls-10" d="M200,102.26s-5.4-7.65-10.2-7.5S200,113.3,200,113.3Z"/><path class="cls-10" d="M396.58,115.22s-5.86-7.54-3.15-12.31c.31-.55,1.29-1.24,3.15-2.62,5.17-3.85,5.82-4,6.23-3.74,1,.52.8,2.64.51,3.76a6.13,6.13,0,0,1-3,3.71,7.52,7.52,0,0,0,5,3.73c.4.08,4.18.74,6.12-1.89,1.67-2.26,1.17-5.85-.3-6.6s-2.67,1.39-4.95.9c-2-.43-3.73-2.5-3.36-3.61.28-.85,1.7-.81,5.76-1.34,7.1-.92,8-1.72,9.51-.75,1.67,1.11,2.05,3.24,2.79,6.6a14.24,14.24,0,0,1,.45,6.3c-1.47,6.73-11,11.1-11,11.1Z"/><path class="cls-10" d="M417.72,102.26s5.4-7.65,10.2-7.5-10.2,18.54-10.2,18.54Z"/><path class="cls-10" d="M334.41,41.64C340.34,60.87,323.7,88,305.65,87.07c-17.06-.87-31.8-26.62-25.79-45.43,4-12.53,16.22-18.95,26.34-19.3C317.44,22,330.5,28.92,334.41,41.64Z"/><path class="cls-8" d="M424.14,541.93a258.85,258.85,0,0,1-207.4,9.18q-10.76-4.15-21-9.17A833.25,833.25,0,0,1,310,534.32,834.1,834.1,0,0,1,424.14,541.93Z"/><polygon class="cls-8" points="259.55 472.21 363.52 472.21 311.54 444.87 259.55 472.21"/><polygon class="cls-8" points="284.27 480.43 292.94 480.43 295.02 532.7 282.19 532.7 284.27 480.43"/><polygon class="cls-8" points="307.39 480.43 316.06 480.43 318.14 532.7 305.31 532.7 307.39 480.43"/><polygon class="cls-8" points="261.14 480.43 269.81 480.43 271.9 532.7 259.06 532.7 261.14 480.43"/><polygon class="cls-8" points="330.52 480.43 339.19 480.43 341.27 532.7 328.44 532.7 330.52 480.43"/><polygon class="cls-8" points="353.64 480.43 362.31 480.43 364.39 532.7 351.56 532.7 353.64 480.43"/><rect class="cls-8" x="256.07" y="472.16" width="110.8" height="9.32"/><rect class="cls-8" x="255.1" y="531.71" width="111.77" height="9.61"/><path class="cls-8" d="M290.67,33.41s7.28,9,16.39,8.1,15.41-9.3,15.41-9.3l12.2,26.1s8.5-32.4,2.8-39.3-52.86-14.7-59-2.4.22,38.1.22,38.1Z"/><polygon class="cls-8" points="269.22 48.71 343.47 51.44 313.39 64.46 303.51 54.71 292.17 62.05 269.22 48.71"/></svg>