<svg id="Layer_1" data-name="Layer 1" xmlns="http://www.w3.org/2000/svg" viewBox="0 0 1580.41 1648.2"><defs><style>.cls-1{fill:#0089a2;}.cls-2{fill:#f1f1f1;}.cls-2,.cls-6,.cls-7{opacity:0.28;}.cls-3{opacity:0.5;}.cls-4{fill:#d0d0d2;}.cls-5{fill:#070a0c;}.cls-17,.cls-6{fill:#fff;}.cls-7{fill:#009fd8;}.cls-8{fill:#fbdcb1;}.cls-9{fill:#a1c900;}.cls-10{fill:#f3901b;}.cls-11{fill:#303030;}.cls-12{fill:#0e1c27;}.cls-13{fill:#8aae00;}.cls-14{fill:#009196;}.cls-15{fill:none;stroke:#8aae00;stroke-miterlimit:10;stroke-width:16px;}.cls-16{fill:#f9c700;}.cls-17{opacity:0.75;}</style></defs><title>ilustracoes_sitew</title><path class="cls-1" d="M1418.84,824.61c0,346.8-281.11,627.91-627.92,627.91S163,1171.41,163,824.61a625.38,625.38,0,0,1,51.25-248.84q3.39-7.83,7-15.55,4.5-9.69,9.33-19.2C334.18,336.71,546.22,196.73,790.92,196.73c218.1,0,410.2,111.16,522.78,279.94q1.42,2.15,2.85,4.32,10.47,16,20,32.67A624.71,624.71,0,0,1,1418.84,824.61Z"/><path class="cls-2" d="M1313.7,476.67a629.38,629.38,0,0,1-149,55.62C881.32,598.35,709.55,423,429.09,478c-48,9.41-121.57,30-207.82,82.2q4.5-9.69,9.33-19.2C334.18,336.71,546.22,196.73,790.92,196.73,1009,196.73,1201.12,307.89,1313.7,476.67Z"/><g class="cls-3"><path class="cls-4" d="M897.94,1030.1s20.07-10.93,53.61-4.58,38.87,10.42,33.53,13.21-23.12,7.63-37.09,6.1-44.71-12.7-50-11.69C897.94,1033.14,890.58,1033.56,897.94,1030.1Z"/><path class="cls-4" d="M899.55,1030.83a7.09,7.09,0,0,0-7.88-4.69s3.25,4.12,1.74,7.26a9.52,9.52,0,0,1-4.44,4.37S895.5,1042.88,899.55,1030.83Z"/><circle class="cls-5" cx="972.81" cy="1034.21" r="2.05"/></g><g class="cls-3"><path class="cls-4" d="M800.9,977.3s20.07,10.92,53.6,4.57,38.87-10.41,33.54-13.21S864.92,961,851,962.57s-44.72,12.7-50.05,11.68C800.9,974.25,793.53,973.84,800.9,977.3Z"/><path class="cls-4" d="M802.78,975.91a6.78,6.78,0,0,1-7.52,4.49s3.1-3.94,1.66-6.94a9.15,9.15,0,0,0-4.24-4.18S798.92,964.41,802.78,975.91Z"/><circle class="cls-5" cx="871.67" cy="968.05" r="2.05"/></g><g class="cls-3"><path class="cls-4" d="M725.9,1032s20.07-10.93,53.61-4.58,38.87,10.42,33.53,13.22-23.12,7.62-37.09,6.09S731.24,1034,725.9,1035C725.9,1035,718.53,1035.44,725.9,1032Z"/><path class="cls-4" d="M727.51,1032.71a7.1,7.1,0,0,0-7.88-4.69s3.25,4.12,1.74,7.26a9.56,9.56,0,0,1-4.44,4.38S723.46,1044.76,727.51,1032.71Z"/><circle class="cls-5" cx="800.77" cy="1036.09" r="2.05"/></g><g class="cls-3"><path class="cls-4" d="M63.65,1034.45s20.07-10.93,53.6-4.58,38.87,10.42,33.54,13.22-23.12,7.62-37.09,6.09S69,1036.48,63.65,1037.5C63.65,1037.5,56.28,1037.91,63.65,1034.45Z"/><path class="cls-4" d="M65.26,1035.18a7.1,7.1,0,0,0-7.89-4.69s3.26,4.12,1.75,7.26a9.56,9.56,0,0,1-4.44,4.38S61.21,1047.23,65.26,1035.18Z"/><circle class="cls-5" cx="138.52" cy="1038.56" r="2.05"/></g><g class="cls-3"><path class="cls-4" d="M648.32,1108.06s14.36-7.82,38.36-3.28,27.81,7.46,24,9.46-16.55,5.45-26.54,4.36-32-9.09-35.82-8.36C648.32,1110.24,643.05,1110.53,648.32,1108.06Z"/><path class="cls-4" d="M649.47,1108.58a5.08,5.08,0,0,0-5.64-3.36s2.33,3,1.25,5.2a6.84,6.84,0,0,1-3.18,3.13S646.58,1117.2,649.47,1108.58Z"/><circle class="cls-5" cx="701.89" cy="1111" r="1.47"/></g><g class="cls-3"><path class="cls-4" d="M141.26,1077.87s14.37-7.82,38.36-3.27,27.82,7.45,24,9.45-16.55,5.45-26.54,4.36-32-9.09-35.82-8.36C141.26,1080.05,136,1080.35,141.26,1077.87Z"/><path class="cls-4" d="M142.41,1078.4a5.06,5.06,0,0,0-5.64-3.36s2.33,3,1.25,5.2a6.85,6.85,0,0,1-3.18,3.12S139.52,1087,142.41,1078.4Z"/><circle class="cls-5" cx="194.84" cy="1080.81" r="1.47"/></g><g class="cls-3"><path class="cls-4" d="M386.12,1035.82s14.36-7.82,38.36-3.27,27.81,7.45,24,9.45-16.54,5.45-26.54,4.36-32-9.09-35.81-8.36C386.12,1038,380.85,1038.3,386.12,1035.82Z"/><path class="cls-4" d="M387.27,1036.34a5.08,5.08,0,0,0-5.64-3.36s2.33,3,1.25,5.2a6.84,6.84,0,0,1-3.18,3.13S384.37,1045,387.27,1036.34Z"/><circle class="cls-5" cx="439.69" cy="1038.76" r="1.47"/></g><g class="cls-3"><path class="cls-4" d="M529,1095.23s24.91,13.55,66.53,5.67,48.23-12.93,41.61-16.39-28.69-9.46-46-7.57-55.48,15.76-62.11,14.5C529,1091.44,519.81,1090.93,529,1095.23Z"/><path class="cls-4" d="M531.29,1093.5a8.42,8.42,0,0,1-9.34,5.57s3.85-4.89,2.07-8.61a11.35,11.35,0,0,0-5.26-5.18S526.49,1079.23,531.29,1093.5Z"/><circle class="cls-5" cx="616.78" cy="1083.74" r="2.54"/></g><circle class="cls-6" cx="1272.85" cy="668.46" r="14.45"/><circle class="cls-6" cx="402.31" cy="696.41" r="14.45"/><circle class="cls-7" cx="1258.39" cy="618.68" r="7.23"/><circle class="cls-7" cx="1305.56" cy="590.57" r="7.23"/><circle class="cls-6" cx="385.07" cy="1209.67" r="14.45"/><circle class="cls-6" cx="340.94" cy="1051.72" r="14.45"/><circle class="cls-6" cx="449.56" cy="1165.64" r="12.34"/><circle class="cls-6" cx="512.87" cy="1209.67" r="14.45"/><circle class="cls-6" cx="568.72" cy="1199.78" r="7.23"/><circle class="cls-6" cx="304.81" cy="951.12" r="7.23"/><circle class="cls-6" cx="319.26" cy="1086.22" r="7.23"/><path class="cls-8" d="M1070.1,753.41s144-34.29,260.1-10.11,109.23,32.22,109.23,32.22l-11.15,23.65s-223-57.25-322.56,24.32S1070.1,753.41,1070.1,753.41Z"/><path class="cls-8" d="M1009.15,882.35,936.88,742.16s15.84-66.22,83.36-33.73,70.53,148.74,151.39,190.79,173.42-25.43,173.42-25.43l22.47,24.79S1154.23,1074.11,1009.15,882.35Z"/><path class="cls-8" d="M1336.68,879.31s32-44.3,63.69-42.39c5.1.31,6.69,2.15,7.35,3.11,6.52,9.33-17.31,38.09-36.26,55a174.7,174.7,0,0,1-22,16.72Q1343.08,895.53,1336.68,879.31Z"/><path class="cls-8" d="M1414.68,766.57c35.31-20,66.5-26.38,75.4-17.64a53.35,53.35,0,0,1,6.22,7.9c2.78,4.24,10.65,16.27,7.23,21.09-3,4.18-10.78-2.19-25.86.29-12.66,2.07-25.54,9.57-25.54,9.57h0s20.44,15.46,15.56,20.25S1403.41,804.26,1414.68,766.57Z"/><path class="cls-8" d="M990.8,699.91s-120.5-16.27-273.57,67.5c-59.79,32.73-57.08,54.69-56.16,59.78,6.35,35.35,118.24,54,118.24,54h0s59.33-22.28,111.25-27c84.16-7.61,166.44,29.39,166.46,29.4h0Z"/><path class="cls-8" d="M852,858.71c-18,3.39-44.72,10.73-71.47,28.81-23.95,16.19-34.57,32-55.15,54.35C686,984.72,666.3,1006.14,640,1016c-87.81,33-216.23-74-264.87-114.56h0a45.5,45.5,0,0,1,13.17-27,44.7,44.7,0,0,1,20.23-11.24A293.07,293.07,0,0,0,505.13,916c39.92,12.75,81.53,26.05,112.37,4.5,28.64-20,46.49-69,29.49-95.44-29.06-45.1-135.53,21.44-270-22.55-58.86-19.26-103.25-48.19-132.6-70.79l13.48-32.59C364.84,747,482.57,772.51,599.7,742.33c28.95-7.46,42.08-14.26,75.11-24.08,88.32-26.27,198.58-38.36,334.41-14.43"/><path class="cls-9" d="M322.78,941.34c-44.82,5.79-83-3-107.61-11.28a22.78,22.78,0,0,0,6.6-14c.91-11.27-7.49-18.58-8.38-19.33A28.65,28.65,0,0,0,228.71,882c6-13.79-2.4-26.5-3-27.37a20.85,20.85,0,0,0,14.68-3.07c9.39-6.33,8.92-18.12,8.88-18.75,48.89,41.64,83.49,46.25,106.35,42.37,24.77-4.22,49.36-20.73,63-9.16,6.52,5.55,8.3,15.66,6.88,23.06-2.15,11.16-12,18.52-29.2,27.21C373.53,927.76,354.87,937.2,322.78,941.34Z"/><path class="cls-9" d="M175.64,746.1C130.46,745.18,94,730.84,70.89,719a22.82,22.82,0,0,0,8.62-12.9c2.57-11-4.65-19.5-5.42-20.37a28.58,28.58,0,0,0,17.33-12.28c8-12.75,1.56-26.57,1.1-27.51a20.82,20.82,0,0,0,15-.86c10.23-4.86,11.51-16.59,11.56-17.22,42.17,48.43,75.71,58.12,98.88,57.67,25.13-.49,51.9-13.17,63.64.3,5.63,6.45,5.89,16.71,3.38,23.81-3.78,10.72-14.65,16.54-32.91,22.58C227.85,740.2,208,746.77,175.64,746.1Z"/><path class="cls-8" d="M1355.74,869.46s15.16-27.19,8.42-27.19-27.48,37-27.48,37Z"/><path class="cls-10" d="M509.46,747.48l8.05,109.11s16-3.67,35.91-7q4.55-.75,9.32-1.46c35.12-5.2,76-7.53,64.09,12.62a185.09,185.09,0,0,1-12.06,17.91c-2.38,3.13-4.75,6-7,8.74-1.42,1.65-2.82,3.22-4.17,4.7-2.2,2.39-4.32,4.56-6.29,6.51a129.18,129.18,0,0,1-15.18,13.11l94.1,122.57s7.21-18.53,21.58-43.28c1.08-1.87,2.21-3.79,3.39-5.73q2.55-4.23,5.35-8.63c1.48-2.33,3-4.69,4.63-7.08,24.46-36.48,61.72-78.1,111.61-95.3l-53.3-134.49L768,736.05l-1.5-3.79L765,728.67l-11.58-29.21Z"/><path class="cls-8" d="M1040.75,767.55c8.24-.75,18.67-3,22.62-10.46,6-11.25-10.86-23-15.28-45.85-1.64-8.5-10.36-59.63,21-86.65,19.27-16.58,44.43-15.1,46.16-14.93,43.86,4.3,77.69,61.54,79.3,111.31,1.68,51.78-29.67,107.9-59.81,109.4h0a52.23,52.23,0,0,1-5-1.9c-13.63-6.05-21.89-16.89-26.55-24.82a72.63,72.63,0,0,1-10.45,5.38,76.93,76.93,0,0,1-38.17,5.08,43.63,43.63,0,0,1-13.28-18.63A44.09,44.09,0,0,1,1040.75,767.55Z"/><ellipse class="cls-11" cx="1178.87" cy="718.12" rx="6.34" ry="11.44" transform="translate(-1.63 2.68) rotate(-0.13)"/><ellipse class="cls-11" cx="1134.4" cy="721.9" rx="6.34" ry="11.44" transform="translate(-1.63 2.57) rotate(-0.13)"/><path class="cls-5" d="M1043.81,660.69s25.85-71,72.51-74.54c10-.77,17.46,2.09,29,6.3,51.36,18.72,83,62.65,79,67.58-2.68,3.28-19.08-13.31-42.86-9-9.83,1.77-15.94,6.21-20.36,8.86-13.27,8-35.82,14.54-76.24,6.82,0,0-25.07,53.17-13.81,81.55q8.94,5.91,8.09,8.25-1.36,3.76-27.89-1.59c-30.11-29.94-39.33-64.21-27-81.82C1026.71,669.55,1032,663.91,1043.81,660.69Z"/><path class="cls-8" d="M1053.38,738.41c3.24,14.84,13.56,25.19,23,23.12s14.55-15.78,11.31-30.62-13.56-25.18-23-23.11S1050.14,723.58,1053.38,738.41Z"/><path class="cls-8" d="M1175.93,770l-15.69-4.4-31.21,3h0s.17,6.62.5,19.39c5.44,9.3,15.06,14.9,24.31,14C1166.72,800.63,1178,786.72,1175.93,770Z"/><path class="cls-12" d="M1119.54,699.46s15.3-14.27,22.7-10.64S1119.54,699.46,1119.54,699.46Z"/><path class="cls-12" d="M1198,696.94s-16.2-13.26-23.34-9.16S1198,696.94,1198,696.94Z"/><path class="cls-8" d="M1149.29,746.29s7,19.72,20.34,11.5-20-51.47-20-51.47Z"/><path class="cls-13" d="M1189.69,750.34a17.81,17.81,0,0,1-4.83-.11c-9.1-1.38-20.29-16.76-22.44-19.83a4.42,4.42,0,0,0-1-1.08,1.09,1.09,0,0,0-.79-.23,1,1,0,0,0-.7.39,4.21,4.21,0,0,0-.66,1.27c-1.18,3.44-7.51,20.77-15.91,24.1a17.53,17.53,0,0,1-4.64,1.15c-4.84.54-18.32.09-24.72-2-7-2.23-13-4.16-17.44-10.57-3.92-5.65-4.36-11.37-5-20-.18-2.28-.26-4.6-.24-6.9a12.86,12.86,0,0,1,7.38-11.87c15.14-6.64,39.77-11.88,56.26-13.72l.28,0a169.05,169.05,0,0,1,49.79,2,14.14,14.14,0,0,1,10.76,10.4c.44,1.63.88,3.61,1.44,6.13,1.91,8.54,3.16,14.16,1,20.49-2.43,7.17-7.69,10.35-13.78,14-5.58,3.37-9.91,5.8-14.76,6.34Z"/><path class="cls-14" d="M1099.28,717.1c0,1.79,0,3.86.21,6.14.59,7.79.9,11.83,3.38,15.4,2.74,3.94,6.64,5.2,13,7.24,8,2.57,20.46,2.48,24.33.94,2.46-1,5.66-6,8.3-11.51a81.9,81.9,0,0,0,3.24-7.9,12,12,0,0,1,1.62-3.2,5.74,5.74,0,0,1,.35-.47,8.56,8.56,0,0,1,12-1.34,13.56,13.56,0,0,1,3,3.12c4.89,7,12.92,15.67,16.85,16.27a12.52,12.52,0,0,0,7.27-1.22,67.25,67.25,0,0,0,7.41-4.06c5.57-3.37,9-5.43,10.47-9.85l0-.07c1.32-4,.43-7.94-1.28-15.56-.54-2.45-1-4.32-1.34-5.77a5.35,5.35,0,0,0-4-3.92c-4.72-.89-10.11-1.69-16.07-2.21a159.33,159.33,0,0,0-28.51,0c-1,.08-2,.18-3,.29-6.59.73-13.77,1.93-20.8,3.41h0c-3.82.8-7.59,1.68-11.2,2.59a156.92,156.92,0,0,0-22.41,7.18A4.86,4.86,0,0,0,1099.28,717.1Z"/><path class="cls-2" d="M1159.48,699.14l33.34,41.43a67.25,67.25,0,0,0,7.41-4.06c5.57-3.37,9-5.43,10.47-9.85l0-.07L1188,699.13A159.33,159.33,0,0,0,1159.48,699.14Z"/><path class="cls-2" d="M1124.46,705.43l24,29.88a81.9,81.9,0,0,0,3.24-7.9,12,12,0,0,1,1.62-3.2l-17.7-21.37h0C1131.84,703.64,1128.07,704.52,1124.46,705.43Z"/><path class="cls-15" d="M1176.38,781.5s17.77,44-24.87,49.45C1109.07,836.38,1092,762,1092,762l-54.89-206.8"/><rect class="cls-5" x="1072.72" y="720.65" width="23.48" height="28.03" transform="translate(2316.19 1180.33) rotate(165.78)"/><path class="cls-16" d="M735.72,852.5c.29,8.92,13.28,7.74,13.28,7.74l.06,7.19,3.76,0-.05-6.87,3.76,0,.06,6.87,3.65,0-.06-6.77,7.74-.06,0-5.16-4.73,0L763,833.47l5.48-.05,0-4.19-9.24,0,0-6.34-3.44,0,.06,7.31-3.76,0-.07-7.31-3.65,0,.06,7s-10.2,1.26-10.68,7.18a6.05,6.05,0,0,0,4.78,6.84S735.43,843.58,735.72,852.5Zm20.66-9.63s-10.31.84-10.67-4.42,10.6-4.6,10.6-4.6Zm0,3.53.08,9.7s-11.86.91-12.28-4.74S756.41,846.4,756.41,846.4Z"/><path class="cls-16" d="M691.08,889.37c-8.26,3.36-2.65,15.14-2.65,15.14l-6.74,2.55,1.34,3.51,6.43-2.43,1.33,3.52-6.43,2.43,1.29,3.42,6.33-2.4,2.74,7.24,4.83-1.83-1.68-4.42,20.5-7.76,1.94,5.12,3.92-1.48-3.17-8.68,5.93-2.25-1.22-3.21-6.83,2.58-1.33-3.52,6.83-2.58-1.29-3.42-6.54,2.47s-4.72-9.12-10.43-7.53a6,6,0,0,0-4.76,6.85S699.35,886,691.08,889.37Zm16.19,16s-4.36-9.39.45-11.55,8,8.35,8,8.35Zm-3.3,1.25-9.07,3.43s-5-10.81.2-13.16S704,906.67,704,906.67Z"/><path class="cls-16" d="M678.71,975.39l-4.14,6.52,4.35,2.77,2.54-4,16.3,10.36c1.08-1.87,2.21-3.79,3.39-5.73l-5.51-3.5s4.9-9.12,9.52-6.56a3,3,0,0,1,1.34,1.43c1.48-2.33,3-4.69,4.63-7.08a3.73,3.73,0,0,0-.47-.41,6.05,6.05,0,0,0-8.34.31s4.11-5.67-3.53-10.27-13.71,6.94-13.71,6.94L679,962.32l-2,3.18,5.8,3.68-2,3.18L675,968.67l-2,3.08Zm5.76-.68s5.69-10.45,10.67-7.72-2.48,12.93-2.48,12.93Z"/><path class="cls-16" d="M603.34,900.64c-.54.24-6.22,3.07-2.26,10.6,4.16,7.89,15.33,1.14,15.33,1.14l3.2,6.45,3.37-1.66L619.92,911l3.37-1.67,3.06,6.16,3.27-1.63-3-6.06,6.94-3.44-2.3-4.62L627,901.85l-9.75-19.64,4.92-2.44L620.31,876l-5.54,2.68c-2.38,3.13-4.75,6-7,8.74a27,27,0,0,1,3.72-2l4,8.09s-8.91,5.26-11.54.68a2.89,2.89,0,0,1-.37-2.09c-2.2,2.39-4.32,4.56-6.29,6.51A6.08,6.08,0,0,0,603.34,900.64ZM617,896.71l4.31,8.68s-10.27,6-13.13,1.11S617,896.71,617,896.71Z"/><path class="cls-16" d="M674.45,819.94c-3.89,8,8.16,13,8.16,13l-3.29,6.4,3.34,1.72,3.15-6.11,3.34,1.72L686,842.8l3.25,1.67,3.09-6,6.88,3.54,2.36-4.59-4.2-2.16,10-19.5,4.87,2.51,1.92-3.73L706,810.21l2.9-5.64L705.88,803l-3.34,6.5-3.35-1.72,3.35-6.5-3.25-1.67-3.2,6.21s-9.61-3.62-12.79,1.39a6,6,0,0,0,1.05,8.28S678.34,811.91,674.45,819.94ZM697.22,821s-9.52-4-7.4-8.88,11.53.85,11.53.85Zm-1.62,3.14-4.44,8.62s-10.92-4.71-8.66-9.91S695.6,824.16,695.6,824.16Z"/><path class="cls-16" d="M602.68,762.79c4.32-7.8-7.44-13.44-7.44-13.44l3.64-6.22-3.25-1.9-3.47,5.94-3.25-1.9,3.47-5.94-3.15-1.84-3.42,5.84-6.68-3.91-2.6,4.45,4.08,2.39-11.07,18.92-4.73-2.77L562.69,766l7.92,4.76-3.2,5.47,3,1.74,3.69-6.31,3.25,1.9-3.69,6.31,3.15,1.84,3.53-6s9.4,4.13,12.85-.7a6,6,0,0,0-.61-8.32S598.37,770.6,602.68,762.79ZM580,760.48s9.28,4.56,6.9,9.27-11.46-1.48-11.46-1.48Zm1.78-3.05,4.9-8.37s10.66,5.3,8.12,10.37S581.79,757.43,581.79,757.43Z"/><path class="cls-16" d="M678.63,766.81c8.82,1.35,10-11.64,10-11.64l7.09,1.26.65-3.7-6.77-1.21.66-3.7,6.77,1.2.64-3.59-6.66-1.19,1.35-7.61-5.08-.91-.83,4.66-21.58-3.84,1-5.39-4.13-.73L660,739.5l-6.24-1.11-.6,3.38,7.19,1.28-.66,3.71-7.19-1.28-.64,3.59,6.88,1.22s-.62,10.26,5.1,11.82a6,6,0,0,0,7.6-3.45S669.81,765.46,678.63,766.81ZM673,744.74s-1.06,10.29-6.3,9.68-2.59-11.26-2.59-11.26Zm3.48.62,9.55,1.69s-1.28,11.83-6.92,11.21S676.43,745.36,676.43,745.36Z"/><path class="cls-16" d="M536.5,833.9s-.63,10.26,5.1,11.82a6,6,0,0,0,7.58-3.4,6.43,6.43,0,0,0,4.24,7.31l9.32-1.46c3.1-3.41,3.67-9.39,3.67-9.39L573.5,840l.65-3.7-6.77-1.21.66-3.7,6.77,1.2.64-3.59-6.67-1.19,1.36-7.62-5.08-.9-.83,4.65-21.58-3.82,1-5.4-4.13-.73-1.72,9.07L531.52,822l-.61,3.39,7.2,1.28-.66,3.71-7.19-1.29-.64,3.6ZM554.17,829l9.55,1.7s-1.28,11.83-6.92,11.21S554.17,829,554.17,829Zm-12.37-2.19,8.88,1.57s-1,10.3-6.29,9.69S541.8,826.77,541.8,826.77Z"/><path class="cls-16" d="M738,755.59,733.42,760l2.38,2.48,5.26-5.06,2.61,2.71-5.26,5.06,2.52,2.63,5-4.84s7.92,6.55,12.55,2.85a6,6,0,0,0,1.72-8.15c.33.37,4.74,5.05,10.79-1,6.28-6.33-3.5-15-3.5-15l1.91-1.85L768,736.05l-2.79,2.68L762.55,736l3.9-3.75h0L765,728.67l0,0-4.88,4.69-5.36-5.58L751,731.3l3.28,3.41L738.48,749.9l-3.8-4-3,2.9Zm14.41-9.81,7-6.73s8.8,8,5,12.2S752.39,745.78,752.39,745.78Zm-9.06,8.7,6.51-6.26s7.68,6.92,4.12,10.8S743.33,754.48,743.33,754.48Z"/><path class="cls-16" d="M638.63,822.15c7.45-4.91-.34-15.37-.34-15.37L644.4,803l-2-3.19-5.84,3.64-2-3.19,5.83-3.64-1.93-3.1-5.74,3.58-4.1-6.56-4.37,2.73,2.5,4-18.6,11.6-2.9-4.65-3.56,2.22,4.8,7.9-5.38,3.35,1.82,2.92,6.2-3.87,2,3.2-6.2,3.86,1.93,3.1,5.93-3.7s6.4,8,11.7,5.37a6,6,0,0,0,3.33-7.65S631.17,827.05,638.63,822.15Zm-19-12.59s6.1,8.35,1.8,11.41-9.46-6.64-9.46-6.64Zm3-1.87,8.23-5.14s7,9.65,2.37,13S622.62,807.69,622.62,807.69Z"/><circle class="cls-7" cx="506.72" cy="680.44" r="6.76"/><circle class="cls-7" cx="410.82" cy="672.04" r="6.76"/><g class="cls-3"><circle class="cls-17" cx="1044.03" cy="1230.54" r="6.42"/><circle class="cls-17" cx="1040.82" cy="1280.72" r="3.21"/><circle class="cls-17" cx="1004.03" cy="1247.93" r="11.73"/></g></svg>