<?xml version="1.0" encoding="utf-8"?>
<!-- Generator: Adobe Illustrator 23.0.5, SVG Export Plug-In . SVG Version: 6.00 Build 0)  -->
<svg version="1.1" id="Layer_1" xmlns="http://www.w3.org/2000/svg" xmlns:xlink="http://www.w3.org/1999/xlink" x="0px" y="0px"
	 viewBox="0 0 1580.4 1648.2" style="enable-background:new 0 0 1580.4 1648.2;" xml:space="preserve">
<style type="text/css">
	.st0{fill:#001F2D;}
	.st1{opacity:0.1;fill:#00A6D3;enable-background:new    ;}
	.st2{opacity:0.25;fill:#F9C700;enable-background:new    ;}
	.st3{opacity:0.1;fill:#F9C700;enable-background:new    ;}
	.st4{fill:#00517A;}
	.st5{opacity:0.3;fill:#CCCCCC;enable-background:new    ;}
	.st6{fill:#191010;}
	.st7{opacity:0.28;fill:#009FD8;enable-background:new    ;}
	.st8{fill:#00344F;}
	.st9{fill:#D0D0D2;}
	.st10{fill:#8AAE00;}
	.st11{fill:none;stroke:#999999;stroke-width:9;stroke-miterlimit:10;}
	.st12{opacity:0.5;}
	.st13{opacity:0.75;fill:#009FD8;enable-background:new    ;}
	.st14{fill:#F3901B;}
	.st15{clip-path:url(#SVGID_2_);}
	.st16{fill:#FBDCB1;}
	.st17{fill:#070A0C;}
	.st18{fill:#BC9B73;}
</style>
<title>vip</title>
<path class="st0" d="M1418.1,826.3c0.2,122.4-35.6,242.2-102.9,344.5c-112.2,170.7-305.5,283.4-525,283.4
	c-97.1,0.2-193-22.3-279.9-65.7c-14.3-7.1-28.3-14.8-42-23C354.4,1297.4,265,1195,212.6,1073.1l0,0c-33.3-78-50.5-162-50.4-246.8
	c0-346.8,281.1-627.9,627.9-627.9S1418.1,479.5,1418.1,826.3z"/>
<path class="st1" d="M1315.2,1170.8c-112.2,170.7-305.5,283.4-525,283.4c-97.1,0.2-193-22.3-279.9-65.7c-14.3-7.1-28.3-14.8-42-23
	C354.4,1297.4,265,1195,212.6,1073.1c79.1,50.5,148.4,73.9,198.1,85.6c7.7,1.8,14.9,3.3,21.6,4.7c70.1,13.8,133.3,12.9,193.2,5
	c176.1-23.2,323.2-107.1,531.5-58.5C1212.3,1122.9,1265.5,1143.4,1315.2,1170.8z"/>
<ellipse class="st2" cx="805.5" cy="1167.2" rx="24.6" ry="11.8"/>
<ellipse transform="matrix(0.9634 -0.2682 0.2682 0.9634 -274.3445 279.3441)" class="st3" cx="885.1" cy="1143.7" rx="19.7" ry="9.4"/>
<ellipse transform="matrix(0.9971 -7.602294e-02 7.602294e-02 0.9971 -89.4849 67.3217)" class="st2" cx="839.5" cy="1209" rx="18.3" ry="8.8"/>
<ellipse transform="matrix(0.2496 -0.9684 0.9684 0.2496 -323.4905 1863.9803)" class="st3" cx="1040.9" cy="1140.7" rx="6.3" ry="13.1"/>
<ellipse class="st3" cx="1012.4" cy="1114.9" rx="13" ry="6.3"/>
<ellipse transform="matrix(0.9808 -0.1952 0.1952 0.9808 -215.4118 214.9595)" class="st2" cx="982.7" cy="1200.2" rx="29.7" ry="14.2"/>
<path class="st4" d="M1420.5,765.9c0,0,76.4,88.9,93.6,203.2s6.6,148.6-30.7,124.4s-23-55.5-53.1-123.6s-71.4-150.5-71.4-150.5
	L1420.5,765.9z"/>
<path class="st5" d="M1420.5,765.9c0,0,76.4,88.9,93.6,203.2s6.6,148.6-30.7,124.4s-23-55.5-53.1-123.6s-71.4-150.5-71.4-150.5
	L1420.5,765.9z"/>
<path class="st4" d="M423.6,290c45.6,46,111,56.6,225.5,104.8l50.5,21.2c0,0-64.6,292.4,89.2,466.7c3.4,3.8,8.9,10,16.6,17.5
	c93.2,89.2,281.9,146.7,457.5,86.2c148.1-51,235.1-167.9,269.8-245.8c8.1-18.1,13.3-34,15.9-46.6c6.6-32.3,3.9-64.8,3.9-64.8
	c-1.1-22.3-6.9-72.9-44.4-114.1c-10.9-11.9-35.6-35.3-101.1-53.3c0,0-79.4-21.9-291.7-2.2l0,0c-78.9,11.8-159.1-10.7-220.4-61.8
	c27.4-4.7,62.7-19.2,100.1-56.4c82.5-82,60.6-139.9,60.6-139.9s-31.2,22.8-80.3,20.2s-53.2-19.1-135.1,5.6s-110,55.6-110,55.6
	s-36.5-57.1-144.3-88.8s-176.5-21.3-176.5-21.3c-9.1-2.3-17.7-6.1-25.5-11.2c-4.1-2.7-9.6-1.7-12.4,2.4c-1.2,1.8-1.7,4-1.4,6.2
	C379.2,235.2,404.2,270.5,423.6,290z"/>
<ellipse transform="matrix(0.9929 -0.1189 0.1189 0.9929 -75.2189 118.2217)" class="st6" cx="953" cy="689.4" rx="21.1" ry="30.4"/>
<path class="st5" d="M805.5,900.1c93.2,89.2,281.9,146.7,457.5,86.2c148.1-51,235.1-167.9,269.8-245.8
	c-25.4-17.3-82.1-35.7-207.4-24.8c-215.6,18.8-317.7,200.3-385.2,198.9C898.9,913.9,842.9,906.1,805.5,900.1z"/>
<path class="st4" d="M839.6,805.2c0,0-63.9,174.5-218.9,309.1S426.3,1262,421,1289.5s-14.9,52.7,17.5,51.6s149.9-59,231.2-159.2
	s71.1-138.6,161.9-230.1s99.5-67.1,99.5-67.1S955.4,780,839.6,805.2z"/>
<circle class="st7" cx="1353.4" cy="998.4" r="15.4"/>
<circle class="st7" cx="893" cy="1003.4" r="15.4"/>
<circle class="st7" cx="1027.7" cy="420.6" r="13.2"/>
<circle class="st7" cx="1117.5" cy="1055.4" r="15.4"/>
<circle class="st7" cx="1181.4" cy="1034.5" r="7.7"/>
<circle class="st7" cx="738.4" cy="912.2" r="7.7"/>
<circle class="st7" cx="1072.3" cy="428.3" r="7.7"/>
<path class="st8" d="M847.5,733.8c2.6-7.2,9.4-28.4-0.7-44c-0.8-1.3-4.8-7.4-8-6.7c-5.7,1.4-1.1,23.8-9.5,28
	c-5.3,2.6-13.2-3.3-15.8-5.3c-24.2-18.3-21.3-54.9-32.8-55.9c-2.6-0.2-4.6,1.5-6.3,2.8c-14.5,12-2.3,49.7,1.7,62
	c5.8,17.9,18.9,48.2,51.3,79.3L847.5,733.8z"/>
<path class="st9" d="M411.1,1121.2h-28.1c-18.9,0-34.2-15.3-34.2-34.2V783.7c0-18.9,15.3-34.2,34.2-34.2h28.1
	c18.9,0,34.2,15.3,34.2,34.2V1087C445.4,1105.9,430,1121.2,411.1,1121.2z"/>
<path class="st8" d="M862,761.9c2,9.6,16.6,86.6-35.1,143.1c-9.6,10.4-43.3,47.3-96.1,46c-43.6-1-72.8-27.4-80.6-35l-1.6-1
	c-0.4,7.8-0.9,15.6-1.3,23.4l0,0c-1.8,30.2-4.1,60.9-6.8,92.3c-0.3,3.6-0.6,7.2-0.9,10.8c-0.3,3.6-0.6,7.2-1,10.8
	c-0.4,4.8-0.9,9.7-1.4,14.5c-0.3,3.6-0.7,7.3-1.1,10.9s-0.7,7.3-1.1,11c-0.5,5.5-1.8,17.5-3.8,35.4c-1,8.8-2.9,23.9-5.8,44.3
	c-7.4,52.8-20.7,141.7-38.6,252.2c-26.2-9-51.9-19.7-76.7-32.1c15.2-157.6,13-193.5,7.5-194.4c-4.3-0.7-10.8,19.8-19.7,47.4
	c-13,40.5-23,82-29.8,124c-27.9-16.7-54.4-35.5-79.4-56.2c8.2-38.5,14.4-77.3,18.6-116.4c1.3-11.6,2.3-23,3.2-34.1
	c1-12.8,1.8-25.4,2.3-37.6c0.1-1.7,0.1-3.4,0.2-5.1c0,0,0.6-13.7,0.4-37.4c0-0.3,0-0.6,0-0.9s0-0.6,0-0.9c0-1.9,0-3.8-0.1-5.8
	c0-1.1,0-2.2,0-3.3c0-1.4,0-2.8-0.1-4.3c0-0.3,0-0.5,0-0.8c0-1.7-0.1-3.3-0.1-5c0-1.9-0.1-3.9-0.2-6c0-0.9,0-1.9-0.1-2.8
	c0-0.3,0-0.5,0-0.8c0-0.7,0-1.4-0.1-2.1c-0.1-2.6-0.2-5.3-0.3-8.1l0,0c-0.2-4.9-0.4-10-0.7-15.3c0-1.1-0.1-2.3-0.2-3.5
	c-0.4-7.3-0.8-14.9-1.4-22.8c-0.4-6.6-0.9-13.4-1.5-20.3l0,0l0,0c-1.7-20.5-3.9-42.6-6.8-65.9c-0.8-5.9-1.5-11-2.2-15.5l0,0
	c-0.5-3.1-1-6-1.5-8.5c-2.4-12.3-4.5-18.2-6.4-22.7c-10.5-24.9-23.6-33.4-22.3-49.7c0.6-7.9,4.6-18.6,20.1-30.8l1.5-1.1l0.8-0.6
	l2.4-0.1l30.5-0.8l20.3-0.5l20.5-0.6l118.7-3.3l0,0l37.8-1l26.5-0.7c0,0,2,2.6,5.6,6.8c1.4,1.6,3.4,3.8,5.7,6.4
	c11.8,12.7,70.5,76.1,105.6,60.8c28.9-12.6,28.8-72.8,28.8-75.6c-0.1-10.4-1.6-20.6-4.5-30.6c14.7-3.2,29.9-2.3,44.1,2.7
	C844.4,748.5,854,754.3,862,761.9z"/>
<path class="st10" d="M640.6,1030.8c-1.6,19.1-3.5,38.5-5.5,58c-15.1,1.8-30.9,3.1-47.3,3.9c-58.4,2.7-117-2-174.2-14
	c-0.1-15.8-0.6-35.9-1.8-59.5c49.8,12.8,101.1,18.8,152.4,18C589.8,1036.7,615.3,1034.6,640.6,1030.8z"/>
<path class="st11" d="M393.8,643.6c0,0-81.1-12.4-73.9,156.4c1.8,42.3-25.9,128.6,24.2,198.1c11,15.2,24.4,28.5,39.6,39.5"/>
<path class="st8" d="M391.6,776.2c-73,31.4-118.3,94.6-113.8,158c3.3,47.5,35.4,107.1,91.9,125.7c11.9,3.9,24.2,5.9,36.7,6l9.4-42.3
	c-7.2-2-33.8-10.1-48.2-34c-20.5-34,1.9-70.3,6.1-77.2c21-34.1,58.9-43.8,66.7-45.6L391.6,776.2z"/>
<path class="st10" d="M643.1,970l-20.9-195.1c0,0,29.2-22.2,36.8,5.4S643.1,970,643.1,970z"/>
<path class="st10" d="M408,983l-18.9-207c0,0,30-22.1,36.6,7.4S408,983,408,983z"/>
<g class="st12">
	<circle class="st13" cx="402.9" cy="468" r="7.2"/>
	<circle class="st13" cx="406.5" cy="524.5" r="3.6"/>
	<circle class="st13" cx="448" cy="487.6" r="13.2"/>
</g>
<path class="st14" d="M402.1,608h34.3c9,0,16.3,7.3,16.3,16.3v38.6c0,9-7.3,16.3-16.3,16.3h-34.3c-9,0-16.3-7.3-16.3-16.3v-38.6
	C385.8,615.3,393.1,608,402.1,608z"/>
<path class="st14" d="M613.9,608h34.3c9,0,16.3,7.3,16.3,16.3v38.6c0,9-7.3,16.3-16.3,16.3h-34.3c-9,0-16.3-7.3-16.3-16.3v-38.6
	C597.5,615.3,604.8,608,613.9,608z"/>
<path class="st14" d="M641.2,635.6c2.8,46.4,4.4,73.6-11,100.3c-29.3,50.7-92.7,51.9-105.8,52.2c-17,0.3-70.3,1.4-100.5-41.2
	c-22.4-31.6-19.5-69.5-16.3-111.3c3.7-49,6.1-86.5,35.3-112.1c26.7-23.4,61.1-24.1,81.3-24.5c21.2-0.4,61.1-1.2,88.7,25.4
	C636.5,547.1,637.8,577.3,641.2,635.6z"/>
<path class="st9" d="M637.4,636.5c-0.7,28.5-1.6,60.2-22.9,78.8c-8,6.9-16.8,10.3-90.5,11.5c-70.7,1.1-79.2-1.8-87.2-8.1
	c-26.5-20.8-25.9-61.7-25.6-83.5c0.3-22.5,0.7-49.8,19.5-69.3s45.1-19.6,93.2-19.5c50.8,0,81.5,0.1,100,22.2
	C638.7,586.2,638.1,608.8,637.4,636.5z"/>
<path class="st8" d="M617.4,636.5c-0.6,23.5-1.3,49.5-18.8,64.8c-6.5,5.7-13.8,8.5-74.5,9.4c-58.2,0.9-65.1-1.5-71.7-6.6
	c-21.8-17.1-21.3-50.7-21-68.7c0.3-18.5,0.6-41,16.1-57s37.1-16.1,76.7-16.1c41.8,0,67,0.1,82.3,18.3
	C618.5,595.1,618,613.8,617.4,636.5z"/>
<path class="st9" d="M643.9,753.7c0,3.2-2.2,5.9-5.3,6.6c-76.5,17.1-155.9,17.1-232.4,0c-3.1-0.7-5.3-3.4-5.3-6.6v-19.4
	c0-3.7,3-6.8,6.7-6.8c0.4,0,0.8,0,1.2,0.1c75.2,13.3,152,13.3,227.2,0c3.7-0.6,7.2,1.8,7.8,5.5c0.1,0.4,0.1,0.8,0.1,1.2V753.7z"/>
<path class="st6" d="M659.5,768.2c0,8.8-6.2,16.5-14.9,18.3c-80.6,16.8-163.8,16.8-244.4,0c-8.7-1.8-14.9-9.4-14.9-18.3l0,0
	c0-10.3,8.4-18.7,18.7-18.7c1,0,2,0.1,2.9,0.2c38.7,6.1,77.8,9.2,117,9.1c38.2-0.1,76.3-3.1,114-9.1c10.2-1.6,19.7,5.3,21.4,15.5
	C659.3,766.2,659.4,767.2,659.5,768.2L659.5,768.2z"/>
<path class="st9" d="M601.8,512.6c-0.5,7.6-1.1,16.1-15.7,21.1c-5.5,1.9-11.5,2.8-62,3.1c-48.5,0.3-54.3-0.5-59.7-2.2
	c-18.1-5.6-17.7-16.5-17.5-22.4c0.2-6,0.5-13.4,13.4-18.6s30.9-5.2,63.9-5.2c34.8,0,55.8,0,68.5,6
	C602.7,499.1,602.3,505.2,601.8,512.6z"/>
<path class="st6" d="M580.3,512c-0.4,4.1-0.8,8.6-11.3,11.3c-3.9,1-8.3,1.5-44.8,1.6c-35,0.2-39.1-0.3-43.1-1.2
	c-13.1-3-12.8-8.8-12.6-12s0.4-7.1,9.6-9.9s22.3-2.8,46.1-2.8c25.1,0,40.3,0,49.4,3.2C580.9,504.8,580.6,508,580.3,512z"/>
<g>
	<defs>
		<path id="SVGID_1_" d="M617.4,636.5c-0.6,23.5-1.3,49.5-18.8,64.8c-6.5,5.7-13.8,8.5-74.5,9.4c-58.2,0.9-65.1-1.5-71.7-6.6
			c-21.8-17.1-21.3-50.7-21-68.7c0.3-18.5,0.6-41,16.1-57s37.1-16.1,76.7-16.1c41.8,0,67,0.1,82.3,18.3
			C618.5,595.1,618,613.8,617.4,636.5z"/>
	</defs>
	<clipPath id="SVGID_2_">
		<use xlink:href="#SVGID_1_"  style="overflow:visible;"/>
	</clipPath>
	<g class="st15">
		<path class="st16" d="M489.7,709c1.8-9.9,1.6-20.1-0.6-29.9c-4.3-18.5-14.9-23.1-20.8-38.4c-2.8-7.3-18.5-51.4,5.1-80.3
			c14.6-17.8,37.2-20.4,38.7-20.5c39.7-3,78.7,42.6,87.9,86.6c9.6,45.8-9.5,100.6-36.1,106.6l0,0c-1.6-0.2-3.2-0.5-4.7-0.9
			c-13.1-3.2-22.1-11.6-27.5-17.9c-2.2,2.8-5.1,5-8.5,6.4C513.2,724.8,499.9,720.1,489.7,709z"/>
		
			<ellipse transform="matrix(0.9845 -0.1755 0.1755 0.9845 -100.8563 112.5307)" class="st17" cx="585.7" cy="626.4" rx="5.7" ry="10.3"/>
		
			<ellipse transform="matrix(0.9845 -0.1755 0.1755 0.9845 -103.2716 105.8565)" class="st17" cx="546.7" cy="636.7" rx="5.7" ry="10.3"/>
		<path class="st17" d="M456.6,596.4c0,0,11.9-67.2,52.8-77.6c8.8-2.3,15.9-0.9,26.8,1.1c48.6,8.6,83.6,42.7,80.8,47.7
			c-1.9,3.3-19-8.8-39.5-1.3c-8.5,3.1-13.2,8-16.7,11.1c-10.6,9.2-29.6,18.5-66.7,18c0,0-14,51.2,0.5,74.7c5.9,2.6,8.7,4.6,8.5,6.1
			c-0.4,2.4-8.8,3.4-25,3c-31.5-21.9-45-50.9-36.8-68.5C442.8,607,446.6,601.1,456.6,596.4z"/>
		<path class="st16" d="M477.3,664c5.2,12.7,16,20.3,24.1,17s10.5-16.3,5.3-29s-16-20.3-24.1-17S472.1,651.3,477.3,664z"/>
		<path class="st16" d="M591.2,672.9l-14.6-1.5l-27.3,7.5l0,0c0,0,1.2,5.8,3.5,17.2c6.3,7.4,15.7,10.9,23.8,8.6
			C587.8,701.6,595.6,687.5,591.2,672.9z"/>
		<path class="st17" d="M530,619c0,0,11.4-15.1,18.5-13S530,619,530,619z"/>
		<path class="st17" d="M599.4,604.5c0,0-16.5-9.3-22.2-4.5S599.4,604.5,599.4,604.5z"/>
		<path class="st16" d="M563.8,656c0,0,9.3,16.4,19.9,7s-25.8-42.6-25.8-42.6L563.8,656z"/>
	</g>
</g>
<path class="st18" d="M582.2,677.3c2.5-1.9,4.6-4.4,6-7.2c2.3-4.8,2.8-10.3,1.4-15.4c2.1,2.6,3.3,5.7,3.6,9c0.2,2.1,0.6,7-2.9,10.5
	C588.1,676.3,585.2,677.4,582.2,677.3z"/>
<path class="st0" d="M583.5,689.3c-0.2-0.7-5.7,1-15.8,1s-15.7-1.8-15.8-1s6.7,4.7,15,5C576,694.5,583.7,690.2,583.5,689.3z"/>
<path class="st8" d="M401.5,1042.2c-1.1-31,9.1-54.3,21.6-57.1c3.7-0.8,9.4-0.3,14.2,1c3.5,0.9,12.9,3.4,18.3,11.2
	s3.8,16.6,1.5,29.2c-1.9,10.4-4.6,25.4-12.3,27.1c-7.1,1.6-13.5-8.8-21.3-6.1c-2,0.7-3.3,2.3-4.5,3.7c-5,5.7-3.5,10.9-7.1,13.9
	c-1.6,1.4-4.7,2.6-11.1,0.9C401.1,1058,401.3,1050.1,401.5,1042.2z"/>
</svg>
