<svg id="Layer_1" data-name="Layer 1" xmlns="http://www.w3.org/2000/svg" viewBox="0 0 106.2 110.76"><defs><style>.cls-1{fill:#001a2d;}.cls-2{fill:#b3b3b3;}.cls-3{fill:none;stroke:#b3b3b3;stroke-miterlimit:10;}</style></defs><title>icone_serviço</title><path class="cls-1" d="M39.47,44.25a11,11,0,1,1-11,11,11,11,0,0,1,11-11m0-5.75A16.76,16.76,0,1,0,56.23,55.26,16.77,16.77,0,0,0,39.47,38.5Z"/><polygon class="cls-1" points="44.83 43.17 34.11 43.17 35.97 33.65 42.97 33.65 44.83 43.17"/><polygon class="cls-1" points="44.83 67.34 34.11 67.34 35.97 76.86 42.97 76.86 44.83 67.34"/><polygon class="cls-1" points="51.55 60.62 51.55 49.9 61.08 51.76 61.08 58.76 51.55 60.62"/><polygon class="cls-1" points="27.39 60.62 27.39 49.9 17.87 51.76 17.87 58.76 27.39 60.62"/><polygon class="cls-1" points="44.23 67.59 51.8 60.01 57.22 68.06 52.27 73.01 44.23 67.59"/><polygon class="cls-1" points="27.14 50.5 34.71 42.92 26.67 37.51 21.72 42.46 27.14 50.5"/><polygon class="cls-1" points="51.8 50.5 44.23 42.92 52.27 37.51 57.22 42.46 51.8 50.5"/><polygon class="cls-1" points="34.71 67.59 27.14 60.01 21.72 68.06 26.67 73.01 34.71 67.59"/><rect class="cls-2" x="11.42" y="19.71" width="11.25" height="11.25"/><polyline class="cls-3" points="13.59 25.34 39.47 25.34 39.47 30.96"/><rect class="cls-2" x="11.42" y="79.79" width="11.25" height="11.25"/><polyline class="cls-3" points="13.59 85.42 39.47 85.42 39.47 79.79"/><line class="cls-3" x1="62.7" y1="55.32" x2="68.44" y2="55.32"/><path class="cls-2" d="M80.31,54.73a2.83,2.83,0,0,0,2.22-3.2c-.24-2.75-5-3.32-5-3.32l0-3.26h-1.7l0,3.41H74.09l0-3.41h-1.6l0,3-4.3,0v2h2.55l-.06,10.21h-2.2v2.4l3.6,0,0,3.15h1.7l0-3.2h1.75v3.2h1.75V62.31s6.06.54,6.18-3.61S80.31,54.73,80.31,54.73ZM73.83,50s5.1-.33,4.94,2.13-5,2.07-5,2.07Zm5.66,8.13c-.19,2.64-5.72,2.23-5.72,2.23l0-4.52S79.67,55.54,79.49,58.17Z"/><polygon class="cls-2" points="90.74 48.6 86.7 55.59 94.78 55.59 90.74 48.6"/></svg>