<?xml version="1.0" encoding="utf-8"?>
<!-- Generator: Adobe Illustrator 23.0.5, SVG Export Plug-In . SVG Version: 6.00 Build 0)  -->
<svg version="1.1" id="Layer_1" xmlns="http://www.w3.org/2000/svg" xmlns:xlink="http://www.w3.org/1999/xlink" x="0px" y="0px"
	 viewBox="0 0 1580.4 1648.2" style="enable-background:new 0 0 1580.4 1648.2;" xml:space="preserve">
<style type="text/css">
	.st0{fill:#00517A;}
	.st1{fill:#0089A2;}
	.st2{opacity:0.39;fill:#CCCCCC;enable-background:new    ;}
	.st3{fill:#191010;}
	.st4{opacity:0.5;}
	.st5{fill:#00344F;}
	.st6{fill:#FBDCB1;}
	.st7{fill:#303030;}
	.st8{fill:#070A0C;}
	.st9{fill:#0E1C27;}
	.st10{fill:#009196;}
	.st11{fill:#A1C900;}
	.st12{fill:#D0D0D2;}
	.st13{fill:none;stroke:#191010;stroke-width:9;stroke-miterlimit:10;}
	.st14{fill:#8AAE00;}
	.st15{opacity:0.28;fill:#009FD8;enable-background:new    ;}
	.st16{opacity:0.75;fill:#009FD8;enable-background:new    ;}
</style>
<title>medio</title>
<circle class="st0" cx="788.4" cy="824.4" r="627.9"/>
<path class="st1" d="M261.3,982.4c36.8,47.3,93.4,119.8,89.4,185c-2.3,38-9.2,75.6-20.6,112c-3.4,10.5,6.4,19.4,15.7,17.3
	c1.7-0.4,3.3-1.1,4.8-2.2c0.3-0.2,0.5-0.4,0.8-0.6c10.7-8.8,20.3-18.8,28.6-29.9c13.7-18.6,25-42.3,32.4-59.8
	c4-9.5,6.9-17.2,8.4-21.4c0.8-2.1,1.1-3.3,1.1-3.3l73.2,28.1l4.9,1.9c27.4,10.5,56.1,21.5,75.5,29c0.3,0.1,0.5,0.2,0.8,0.3
	c9,3.4,15.9,6.1,19.7,7.5c141.3,52.7,335.3,62.9,490.8,36.2c30.2-5.1,60.1-12.1,89.5-20.9c62.9-19.2,113.6-46.1,143.1-80.1
	c7.5-8.6,24.3-27.9,35.8-48.1c37-6.9,111.1-30.4,167.4-109.3c8.8-12.4,16.7-25.4,23.7-38.9c3.2-6.1,1.1-13.7-4.7-17.4
	c-37.4-23.9-180.1-105.8-440.9-150.4c-307.7-52.7-466.4-5.3-569.2,82.2c-73.1,62.3-112.2,138.5-128.7,177.3
	c-2.9,6.8-10.7,10-17.6,7.1c-2.5-1.1-4.7-2.9-6.1-5.2c-15.3-24.3-41.6-62.7-71.1-92.1c-8.5-9.2-18.3-17.3-28.9-23.9
	c-10.8-6.7-31.3-17.1-35.3-12.4C239.6,955.1,255,974.3,261.3,982.4z"/>
<path class="st1" d="M1068.7,1271.6c0,0,7,4.2,18,10.8c40.8,24,137.2,78.8,146.3,66.5c7.4-10.2-29.7-56.2-56.8-87.4
	c-14.8-17-26.6-29.6-26.6-29.6L1068.7,1271.6z"/>
<path class="st1" d="M501.3,1184.6c0,0,18.6,29.6-99.1,85.9c-94.4,45.1-273.6,121.4-340.8,149.9c-2.3,0.9-3.3,3.6-2.4,5.8
	c0.8,1.9,2.7,3,4.7,2.7c47.4-6.6,155.9-30.1,341.9-113c262.6-117,285-135.9,285-135.9L501.3,1184.6z"/>
<path class="st2" d="M576.3,1238.8c9,3.4,15.9,6.1,19.7,7.5c141.3,52.7,335.3,62.9,490.8,36.2c40.8,24,137.2,78.8,146.3,66.5
	c7.4-10.2-29.7-56.2-56.8-87.4c62.9-19.2,113.6-46.1,143.1-80.1c7.5-8.6,24.3-27.9,35.8-48.1c37-6.9,111.1-30.4,167.4-109.3
	c-9.3-6.1-24.1-13-46.3-16.8c-30.1-5.1-60.9-4.3-90.6,2.3c-117.1,27.3-426.8,56.6-557.3,98.9c-4.2,1.3-64.4,21-64.4,21l0,0
	L576.3,1238.8z"/>
<circle class="st3" cx="1224" cy="994.9" r="17.8"/>
<path class="st2" d="M420.7,1182.7c0.8-2.1,1.1-3.3,1.1-3.3l73.2,28.1c54.9-51.3,59.7-72.4,54.6-82.2c-15-29-140.2-9.5-146.8,25.9
	C400.6,1163.2,412.1,1175.3,420.7,1182.7z"/>
<g class="st4">
	<path class="st5" d="M1354.5,1134.4c-8.1,0.8-16.3,1.1-24.4,0.9c-4.2,0-8.5-0.4-12.7-0.7c-2.1-0.2-4.2-0.5-6.3-0.7l-3.2-0.4
		c-1.1-0.1-2.1-0.3-3.1-0.5l-6.3-1l-6.3-1.3c-1-0.2-2.1-0.4-3.1-0.7l-3.1-0.8c-2.1-0.6-4.2-1-6.2-1.6c-8.2-2.3-16.3-5-24.2-8.2
		c-15.8-6.4-30.9-14.4-45.2-23.9c-7.1-4.7-14-9.8-20.7-15.1c-3.3-2.7-6.6-5.4-9.8-8.3c-3.2-2.9-6.3-5.8-9.3-8.9
		c2.9,3.2,5.9,6.2,9,9.1c3.1,2.9,6.3,5.8,9.6,8.5c6.6,5.5,13.4,10.7,20.4,15.6c14.1,9.8,29.2,18.1,45,24.9c7.9,3.4,16,6.3,24.2,8.8
		c2,0.7,4.1,1.2,6.2,1.7l3.1,0.8c1,0.3,2.1,0.5,3.1,0.7l6.3,1.4l6.4,1.2c1.1,0.2,2.1,0.4,3.2,0.5l3.2,0.4c2.1,0.3,4.3,0.6,6.4,0.8
		c4.3,0.3,8.6,0.8,12.9,0.9c7.3,0.3,14.7,0.2,22-0.3L1354.5,1134.4z"/>
</g>
<path class="st5" d="M547.1,771.4c0,0,115.1-28.3,208.3-9.5s87.7,25.2,87.7,25.2l-8.8,19c0,0-179-44.6-258.2,21.2
	S547.1,771.4,547.1,771.4z"/>
<path class="st1" d="M778.9,800c-14.5,0.8-32.7-0.8-48.3-11.6c-34.8-24.3-18.5-68.5-57.9-117.2C653.1,647,623,625.7,616.2,631
	c-2.9,2.2-1.1,8.9-0.5,11.4c11.6,47.4-13.5,182.9-42.6,249.4c-1.4,3.2-3.4,7.6-1.4,10.3C581.9,915.7,681.6,859.4,778.9,800z"/>
<path class="st5" d="M446.6,847c1.8-9.4,6.4-28.7,17.6-31.2c4.3-0.9,8,0.9,9.2,1.5c27.6,13.1,128.4-2.6,135.2,17
	c4.9,13.9-43.3,28.6-43.8,59.5c-0.4,24.9,30.4,46.1,52.5,55.1c40.2,16.4,93-0.7,133.9-42.2l20.9,16.8
	c-38.8,66.9-117.4,100.6-192.4,82.5C505.7,988.1,451.4,923.4,446.6,847z"/>
<path class="st5" d="M745.3,912.3c0,0,19.7-39.1,45-41.6c4.1-0.4,5.5,0.8,6.2,1.5c6.6,7-11.5,34.8-28.3,57.8L745.3,912.3z"/>
<path class="st5" d="M574.9,855.9c10.8-4.9,53.8-26,54-54.4c0.4-42.2-94.1-43.9-181-122.3c-90.5-81.8-121.3-195.1-119.4-257.3
	c1.6-53.1,15.2-90,15.2-90c6.1-16.5,21.6-52.6,21.6-52.6s-6.5-5.7-13-7.7c-4.2-1-8.5-1-12.6,0.1c-16.1,3.7-88.6,131.1-50.5,286.1
	c7.4,30,18.3,59,32.6,86.4c-12.2-3.6-23.9-8.5-34.9-14.7c-54.9-30.8-90-93.1-94.6-150.9c-2.3-29.4-5.6-71.3,8.9-96
	c2.4-4.1,12.5-20,6.7-32.1c-1.5-2.9-3.6-5.4-6.3-7.3c0,0-5.8-2.4-15.2,3.7c-53.8,35-66.3,192.9-13,307.5
	C247.9,814.8,458.5,908.5,574.9,855.9z"/>
<path class="st6" d="M564.4,824.5c6.5-1.5,14.5-4.4,16.8-10.7c3.5-9.5-11-17.1-17-34.8c-2.2-6.6-14.5-46.3,7.6-71
	c13.5-15.2,33.7-16.7,35.1-16.7c35.3-1.2,68.2,40.7,74.7,80c6.8,40.9-12.2,88.8-36,93.2l0,0c-1.4-0.3-2.8-0.6-4.2-1
	c-11.5-3.4-19.2-11.1-23.7-16.9c-2.4,2-5,3.8-7.7,5.4c-9.1,5.2-19.3,7.9-29.8,8c-5.3-3.3-9.6-7.9-12.5-13.4
	C564.3,839.8,563.1,832.1,564.4,824.5z"/>
<ellipse transform="matrix(0.991 -0.1338 0.1338 0.991 -97.114 96.4379)" class="st7" cx="668.9" cy="770.7" rx="5.1" ry="9.2"/>
<ellipse transform="matrix(0.9915 -0.1302 0.1302 0.9915 -96.1901 88.7118)" class="st7" cx="630.4" cy="780" rx="5.1" ry="9.1"/>
<path class="st8" d="M555.6,739.4c0,0,13-59.1,49.7-66.8c7.9-1.7,14.1-0.2,23.7,1.9c42.8,9.5,72.5,41,69.8,45.3
	c-1.8,2.9-16.5-8.6-35-2.7c-7.6,2.5-12,6.6-15.2,9.2c-9.7,7.7-26.9,15.3-59.8,13.5c0,0-14.3,44.8-2.4,66.2c5.2,2.5,7.6,4.4,7.3,5.7
	c-0.5,2.1-7.9,2.6-22.3,1.7c-27.1-20.6-38-46.8-30-62.1C542.9,748.2,546.5,743.2,555.6,739.4z"/>
<path class="st6" d="M571.3,800.1c4.1,11.4,13.4,18.6,20.7,15.9s9.9-14,5.8-25.5s-13.4-18.5-20.7-15.9S567.2,788.7,571.3,800.1z"/>
<path class="st6" d="M672,812.3l-12.9-1.8l-24.5,5.7l0,0c0,0,0.8,5.2,2.4,15.3c5.3,6.8,13.5,10.3,20.8,8.5
	C667.9,837.5,675.3,825.3,672,812.3z"/>
<path class="st9" d="M619.8,762.2c0,0,10.6-12.9,16.9-10.8S619.8,762.2,619.8,762.2z"/>
<path class="st9" d="M681.8,751.9c0,0-14.3-8.8-19.5-4.8S681.8,751.9,681.8,751.9z"/>
<path class="st6" d="M648.3,796.2c0,0,7.6,14.9,17.4,7s-21.3-38.8-21.3-38.8L648.3,796.2z"/>
<path class="st3" d="M681,791.2c-1.3,0.3-2.5,0.5-3.8,0.4c-7.4-0.1-17.9-11.2-19.9-13.4c-0.3-0.3-0.6-0.5-0.9-0.8
	c-0.2-0.1-0.4-0.1-0.7-0.1c-0.2,0.1-0.4,0.2-0.5,0.4c-0.2,0.3-0.3,0.7-0.4,1.1c-0.6,2.8-3.8,17.3-10.1,20.8
	c-1.1,0.6-2.3,1.1-3.6,1.4c-3.8,0.9-14.5,2-19.8,1c-5.8-1-10.8-1.9-15-6.6c-3.7-4.1-4.7-8.6-6.1-15.4c-0.4-1.8-0.7-3.6-0.9-5.5
	c-0.6-4,1.2-8,4.6-10.2c11.3-6.9,30.3-13.6,43.2-16.8l0.2,0c13-3.2,26.4-4.4,39.8-3.6c4.3,0.3,8,3.1,9.6,7.1
	c0.5,1.3,1.1,2.8,1.8,4.7c2.4,6.6,4,10.9,3,16.2c-1.2,6-5,9-9.5,12.6C688,787.9,684.8,790.2,681,791.2L681,791.2z"/>
<path class="st10" d="M692.5,757.9c-0.7-1.9-1.2-3.3-1.7-4.4c-0.6-1.5-2-2.6-3.6-2.7c-12.8-0.7-25.6,0.5-38,3.5
	c-15,3.7-33.5,11.2-41.8,16.2c-1.3,0.8-2,2.3-1.7,3.9c0.2,1.4,0.4,3,0.8,4.8c1.3,6.1,2,9.3,4.3,11.9c2.6,2.8,5.8,3.4,11.1,4.4
	c6.7,1.2,16.5-0.2,19.4-1.8c2.7-1.5,5.8-10.1,7.1-16.6c0.2-1.1,0.6-2.2,1.2-3.1c2-3.2,6.2-4.3,9.4-2.3c1,0.6,1.9,1.3,2.7,2.2
	c4.6,5,11.9,11.1,15.1,11.1c3.4,0.1,6-1.6,11.1-5.7c4.1-3.3,6.5-5.3,7.3-8.9C695.8,766.9,694.7,763.8,692.5,757.9z"/>
<ellipse transform="matrix(0.9188 -0.3947 0.3947 0.9188 -281.8771 334.8651)" class="st3" cx="672.9" cy="852.5" rx="14.8" ry="11"/>
<ellipse transform="matrix(0.9188 -0.3947 0.3947 0.9188 -276.9286 330.5374)" class="st3" cx="664.9" cy="838.3" rx="25" ry="18.4"/>
<path class="st11" d="M331,226.2c2.5-36.1,15.5-64.7,25.9-82.7c2.4,3.6,5.9,6.2,10,7.4c8.7,2.5,15.8-3,16.5-3.5
	c1.1,5.8,4.4,10.9,9.1,14.4c9.9,6.9,21.2,2.3,22,2c-1.5,3.9-1.4,8.2,0.1,12c3.5,8.4,12.8,9.9,13.3,9.9
	c-40.4,31.8-49.5,58.3-50.1,76.8c-0.6,20.1,8.5,42-2.8,50.9c-5.4,4.2-13.6,4-19.2,1.8c-8.4-3.5-12.6-12.4-16.8-27.2
	C333.7,268.2,329.2,252.1,331,226.2z"/>
<path class="st11" d="M151.7,321.7c-15.3-32.8-17.9-64-17.5-84.9c3.8,2,8.1,2.5,12.3,1.6c8.8-2.1,12.4-10.2,12.7-11.1
	c3.8,4.5,9.1,7.4,14.9,8.1c12,1.2,19.6-8.3,20.2-8.9c0.6,4.1,2.7,7.8,5.9,10.5c7.1,5.6,16,2.4,16.5,2.2c-19.9,47.4-15,75-6.5,91.4
	c9.2,17.9,27.8,32.6,22.3,45.8c-2.6,6.3-9.9,10.1-15.9,10.9c-9,1.1-17.1-4.7-27.9-15.7C174.4,357.1,162.7,345.2,151.7,321.7z"/>
<path class="st5" d="M829.8,779.9c32.2,4.5,55.1,15.6,56.5,25.5c0.3,2.7,0.3,5.3,0.1,8c-0.3,4-1.2,15.5-5.7,16.9
	c-3.9,1.2-5.8-6.6-16.6-12.4c-9.1-4.8-20.9-6.3-20.9-6.3l0,0c0,0,5.5,19.8,0,20.5S804.3,798.3,829.8,779.9z"/>
<path class="st3" d="M529.9,782.5L529.9,782.5c-2.4,3.2-6.9,3.8-10.1,1.4l-44.2-33.2c-3.2-2.4-3.8-6.9-1.4-10.1h0
	c2.4-3.2,6.9-3.8,10.1-1.4l44.2,33.2C531.7,774.8,532.3,779.3,529.9,782.5z"/>
<path class="st12" d="M492.6,743.6l-10.4,13.7c-11.5,15-32.9,17.9-47.9,6.4l-124-94.6c-15-11.5-17.9-32.9-6.4-47.9l10.4-13.7
	c11.5-15,32.9-17.9,47.9-6.4l124,94.6C501.1,707.1,504,728.6,492.6,743.6z"/>
<path class="st13" d="M501.7,770.8c-4.9,4.3-27.7,25.2-28.7,57.9c-1,31,18.2,51.9,26.7,61.1C538.3,932,603,934.4,645,918.2
	c6.3-2.5,40.2-15.6,41.1-34.9c0.5-12-11.3-30.8-11.3-30.8l0,0"/>
<circle class="st8" cx="506.7" cy="765.3" r="19.5"/>
<ellipse transform="matrix(0.9239 -0.3827 0.3827 0.9239 -254.2988 252.1529)" class="st14" cx="506.7" cy="765.3" rx="11" ry="11"/>
<circle class="st15" cx="474.6" cy="569.1" r="14.5"/>
<circle class="st15" cx="634.3" cy="606.6" r="14.5"/>
<ellipse transform="matrix(0.7071 -0.7071 0.7071 0.7071 -204.4297 512.0631)" class="st15" cx="515.9" cy="502.8" rx="12.3" ry="12.3"/>
<circle class="st15" cx="469.3" cy="441.4" r="14.5"/>
<circle class="st15" cx="476.8" cy="385.2" r="7.2"/>
<circle class="st15" cx="736.3" cy="638.5" r="7.2"/>
<circle class="st15" cx="600.7" cy="629.7" r="7.2"/>
<path class="st5" d="M745.2,915.5c0,0,10-40.1,13.1-37.7s5.5,19.3,5.5,19.3L745.2,915.5z"/>
<g class="st4">
	<circle class="st16" cx="390.8" cy="895.5" r="6.4"/>
	<circle class="st16" cx="391.9" cy="945.8" r="3.2"/>
	<circle class="st16" cx="430.1" cy="914.6" r="11.7"/>
</g>
<g class="st4">
	<circle class="st16" cx="280.6" cy="1144.8" r="6.4"/>
	<circle class="st16" cx="330.9" cy="1143.8" r="3.2"/>
	<circle class="st16" cx="299.6" cy="1105.6" r="11.7"/>
</g>
</svg>
