<svg id="Layer_1" data-name="Layer 1" xmlns="http://www.w3.org/2000/svg" viewBox="0 0 106.2 110.76"><defs><style>.cls-1{fill:#b3b3b3;}.cls-2{fill:#fff;}.cls-3{fill:#001a2d;}.cls-4{fill:none;stroke:#001a2d;stroke-miterlimit:10;stroke-width:4px;}</style></defs><title>icone_serviço</title><circle class="cls-1" cx="26.49" cy="42.28" r="10.03"/><path class="cls-2" d="M52.72,80.74A22.27,22.27,0,1,1,75,58.47,22.29,22.29,0,0,1,52.72,80.74Z"/><path class="cls-3" d="M52.72,38.21A20.27,20.27,0,1,1,32.46,58.47,20.28,20.28,0,0,1,52.72,38.21m0-4A24.27,24.27,0,1,0,77,58.47,24.26,24.26,0,0,0,52.72,34.21Z"/><line class="cls-4" x1="89.74" y1="96.8" x2="67.33" y2="74.39"/><circle class="cls-1" cx="52.72" cy="58.47" r="13.83"/><circle class="cls-1" cx="48.94" cy="23.74" r="6.21"/><circle class="cls-1" cx="27.64" cy="18.85" r="4.89"/><path class="cls-2" d="M56.83,58.39a2.58,2.58,0,0,0,2-2.92c-.21-2.52-4.56-3-4.56-3l0-3H52.77l0,3.11h-1.6V49.44H49.7v2.7l-3.94,0v1.79h2.34L48,63.28H46v2.19l3.29,0v2.88h1.55l0-2.93h1.6l0,2.93H54l0-3.07s5.53.49,5.64-3.31S56.83,58.39,56.83,58.39ZM50.91,54.1s4.67-.29,4.52,1.95-4.54,1.89-4.54,1.89Zm5.17,7.44c-.17,2.4-5.22,2-5.22,2l0-4.13S56.25,59.13,56.08,61.54Z"/></svg>