<?xml version="1.0" encoding="utf-8"?>
<!-- Generator: Adobe Illustrator 23.0.5, SVG Export Plug-In . SVG Version: 6.00 Build 0)  -->
<svg version="1.1" id="Layer_1" xmlns="http://www.w3.org/2000/svg" xmlns:xlink="http://www.w3.org/1999/xlink" x="0px" y="0px"
	 viewBox="0 0 106.2 110.8" style="enable-background:new 0 0 106.2 110.8;" xml:space="preserve">
<style type="text/css">
	.st0{fill:#001A2D;}
	.st1{fill:#B3B3B3;}
</style>
<title>icone_serviço</title>
<polygon class="st0" points="61.6,34.9 52.7,50.3 70.5,50.3 "/>
<polygon class="st1" points="52.7,76.7 61.6,61.3 43.9,61.3 "/>
<path class="st1" d="M77.1,90.8v-4c-2.2,0-4.3-0.7-6.1-1.8l1-2.7c1.7,1.1,3.7,1.7,5.7,1.8c2.8,0,4.8-1.7,4.8-3.9S81,76.5,78,75.3
	c-4.1-1.6-6.6-3.4-6.6-6.9s2.4-5.9,6.1-6.5v-4.1h2.5v3.9c1.8,0,3.6,0.5,5.2,1.4l-1,2.7c-1.5-0.9-3.3-1.4-5.1-1.4
	c-3.1,0-4.3,1.8-4.3,3.5c0,2.1,1.5,3.1,5,4.6c4.1,1.7,6.2,3.8,6.2,7.3c0,3.2-2.2,6.1-6.3,6.8v4.2H77.1z"/>
<path class="st0" d="M39.5,35.6c2.3-0.5,3.9-2.7,3.5-5.1c-0.4-4.4-7.9-5.3-7.9-5.3V20h-2.7v5.4h-2.8V20H27v4.7h-6.9v3.1h4.1
	l-0.1,16.3h-3.5v3.8h5.7v5h2.7v-5.1h2.8v5.1h2.8v-5.3c0,0,9.6,0.8,9.8-5.8S39.5,35.6,39.5,35.6z M29.2,28.1c0,0,8.1-0.5,7.9,3.4
	s-7.9,3.3-7.9,3.3L29.2,28.1z M38.2,41.1c-0.3,4.2-9.1,3.5-9.1,3.5v-7.2C29.1,37.5,38.5,36.9,38.2,41.1L38.2,41.1z"/>
</svg>
