<svg id="Layer_1" data-name="Layer 1" xmlns="http://www.w3.org/2000/svg" xmlns:xlink="http://www.w3.org/1999/xlink" viewBox="0 0 106.2 110.76"><defs><style>.cls-1,.cls-3,.cls-6{fill:none;}.cls-2{fill:#b3b3b3;}.cls-3{stroke:#b3b3b3;}.cls-3,.cls-6{stroke-miterlimit:10;}.cls-4{fill:#fff;}.cls-5{fill:#001a2d;}.cls-6{stroke:#001a2d;stroke-width:4px;}.cls-7{clip-path:url(#clip-path);}</style><clipPath id="clip-path"><circle class="cls-1" cx="54.04" cy="57.73" r="15.41"/></clipPath></defs><title>icone_serviço</title><rect class="cls-2" x="44.11" y="23.1" width="9.31" height="46.38"/><rect class="cls-2" x="27.89" y="20.07" width="9.31" height="26.65"/><rect class="cls-2" x="14.88" y="27.46" width="9.31" height="39.19"/><line class="cls-3" x1="19.53" y1="20.87" x2="19.53" y2="71.04"/><line class="cls-3" x1="32.34" y1="14.97" x2="32.34" y2="50.32"/><line class="cls-3" x1="48.72" y1="17.33" x2="48.72" y2="74.71"/><path class="cls-4" d="M54,80A22.27,22.27,0,1,1,76.31,57.73,22.29,22.29,0,0,1,54,80Z"/><path class="cls-5" d="M54,37.46A20.27,20.27,0,1,1,33.78,57.73,20.29,20.29,0,0,1,54,37.46m0-4A24.27,24.27,0,1,0,78.31,57.73,24.27,24.27,0,0,0,54,33.46Z"/><line class="cls-6" x1="91.32" y1="95.78" x2="68.93" y2="73.39"/><g class="cls-7"><rect class="cls-2" x="46.31" y="-12.82" width="16.48" height="69.35"/><line class="cls-3" x1="54.55" y1="-24.49" x2="54.55" y2="64.29"/></g></svg>