<svg id="Layer_1" data-name="Layer 1" xmlns="http://www.w3.org/2000/svg" viewBox="0 0 106.2 110.76"><defs><style>.cls-1{fill:#b3b3b3;}.cls-2{fill:#001a2d;}.cls-3{fill:#fff;}</style></defs><title>icone_serviço</title><path class="cls-1" d="M70.81,22.72c-2.6-6.44-11.27-9.1-19.82-6.29,4.66-1.24,9.19-.08,11.24,3.26,2.69,4.4.07,10.89-5.86,14.53s-12.91,3-15.6-1.38c-2.51-4.1-.4-10,4.69-13.75-6.37,4.21-9.54,11.06-7.24,16.76a11.22,11.22,0,0,0,5.83,5.91c1.8.84,7.21-2.82,9.41-2.69,1.77.11.28,4.12,2.16,3.73a23.57,23.57,0,0,0,3.86-1.18C68.48,38,73.55,29.54,70.81,22.72Z"/><path class="cls-1" d="M69,45.64a25.07,25.07,0,0,0,15.29-4.35,89,89,0,0,0-12-5.6l-9.6,3.7s-12.22-2.52-19.41-.1a10.88,10.88,0,0,0-3.86,3c-1.17,1.73-1,4.14-3.12,6.24-1.7,1.73-9.77,5.87-12.65,7.32a1.17,1.17,0,0,0-.52,1.57c.95,1.9,3,5.54,5.77,6.63,0,0,2.67-.82,2.49-5a.2.2,0,0,1,.18-.23.22.22,0,0,1,.23.14,6.29,6.29,0,0,1-1,6.32s4.52,2.09,7.51,1.43,16.06-5.55,23.69.27,11.9,23.27-7,28.42c0,0,19.56-.62,26.54-17.91a33.73,33.73,0,0,0-2.2-30.5S72.84,47.58,69,45.64ZM60.92,61.92s7-3,7.72-13l.16,7.51s-3.15,4.32-7.88,5.5Z"/><path class="cls-1" d="M24.91,60c-.09,0,.07,4.62,4,4l1.91,1.21s-1.83,2.25-4.71.27c-2.29-1.58-1.7-6.27-1.7-6.27Z"/><path class="cls-1" d="M62,66.93c-3-2.28-6.81-2.92-10.53-2.81-2.87.4-6.39,1.42-8.88,4,0,0,8.64,4.57,5.41,13.75s-13.18,7.59-13.18,7.59S42.25,96.29,55,95.35C73.91,90.2,69.63,72.75,62,66.93Z"/><polygon class="cls-2" points="21.91 42.43 61.85 42.43 61.85 46.43 60.1 46.43 60.1 48.55 58.53 48.55 58.53 50.37 56.97 50.37 56.97 52.3 47.47 52.3 47.47 50.37 45.97 50.37 45.97 48.49 44.35 48.49 44.35 44.49 41.16 44.49 41.16 48.49 39.53 48.49 39.53 50.37 37.97 50.37 37.97 52.3 26.85 52.3 26.85 50.43 25.1 50.43 25.1 48.43 23.6 48.43 23.6 46.49 21.91 46.49 21.91 42.43"/><polygon class="cls-3" points="45.97 44.52 45.97 46.52 49.16 46.52 49.16 50.49 50.69 50.49 50.69 48.43 47.5 48.49 47.5 44.52 45.97 44.52"/><polygon class="cls-3" points="49.1 44.52 49.1 46.52 52.28 46.52 52.28 50.49 53.81 50.49 53.81 48.43 50.63 48.49 50.63 44.52 49.1 44.52"/><polygon class="cls-3" points="25.29 44.52 25.29 46.52 28.47 46.52 28.47 50.49 30 50.49 30 48.43 26.82 48.49 26.82 44.52 25.29 44.52"/><polygon class="cls-3" points="28.41 44.52 28.41 46.52 31.6 46.52 31.6 50.49 33.13 50.49 33.13 48.43 29.94 48.49 29.94 44.52 28.41 44.52"/></svg>