<svg id="Layer_1" data-name="Layer 1" xmlns="http://www.w3.org/2000/svg" viewBox="0 0 106.2 110.76"><defs><style>.cls-1{fill:#b3b3b3;}.cls-2{fill:#fff;}.cls-3{fill:#00294c;}.cls-4{fill:none;stroke:#b3b3b3;stroke-miterlimit:10;}</style></defs><title>icone_serviço</title><rect class="cls-1" x="25.9" y="22.07" width="52.36" height="66.61"/><rect class="cls-2" x="28.31" y="24.24" width="47.54" height="62.4"/><rect class="cls-3" x="24.17" y="31.15" width="10.07" height="4.59"/><rect class="cls-3" x="24.17" y="41.98" width="10.07" height="4.59"/><rect class="cls-3" x="24.17" y="52.81" width="10.07" height="4.59"/><rect class="cls-3" x="24.17" y="63.64" width="10.07" height="4.59"/><rect class="cls-3" x="24.17" y="74.47" width="10.07" height="4.59"/><line class="cls-4" x1="39.59" y1="46.57" x2="69.32" y2="46.57"/><line class="cls-4" x1="39.59" y1="57.4" x2="69.32" y2="57.4"/><line class="cls-4" x1="39.59" y1="68.23" x2="69.32" y2="68.23"/><line class="cls-4" x1="39.59" y1="41.16" x2="66.85" y2="41.16"/><line class="cls-4" x1="39.59" y1="51.99" x2="66.85" y2="51.99"/><line class="cls-4" x1="39.59" y1="62.82" x2="66.85" y2="62.82"/><line class="cls-4" x1="39.59" y1="73.65" x2="66.85" y2="73.65"/><path class="cls-1" d="M50.43,41.83,48.63,36l5.7,2A5.05,5.05,0,0,1,53,40.45,5,5,0,0,1,50.43,41.83Z"/><path class="cls-3" d="M49.2,37.88,48.63,36l1.81.65a1.65,1.65,0,0,1-.41.75A1.5,1.5,0,0,1,49.2,37.88Z"/><path class="cls-3" d="M78.2,69.57,50.41,41.79a5.08,5.08,0,0,0,2.51-1.39A4.92,4.92,0,0,0,54.24,38L82,65.75a5.07,5.07,0,0,1-1.33,2.43A5.15,5.15,0,0,1,78.2,69.57Z"/></svg>