<?xml version="1.0" encoding="utf-8"?>
<!-- Generator: Adobe Illustrator 23.0.5, SVG Export Plug-In . SVG Version: 6.00 Build 0)  -->
<svg version="1.1" id="Layer_1" xmlns="http://www.w3.org/2000/svg" xmlns:xlink="http://www.w3.org/1999/xlink" x="0px" y="0px"
	 viewBox="0 0 1920 1080" style="enable-background:new 0 0 1920 1080;" xml:space="preserve">
<style type="text/css">
	.st0{fill:#002D4C;}
	.st1{clip-path:url(#SVGID_2_);}
	.st2{fill:url(#SVGID_3_);}
	.st3{fill:url(#SVGID_4_);}
	.st4{opacity:0.57;fill:#3FC1EF;enable-background:new    ;}
	.st5{opacity:0.88;fill:url(#SVGID_5_);enable-background:new    ;}
	.st6{fill:url(#SVGID_6_);}
	.st7{fill:#929B51;}
	.st8{fill:#DAE54C;}
	.st9{opacity:0.67;}
	.st10{opacity:0.54;}
	.st11{opacity:8.000000e-02;fill:#211915;enable-background:new    ;}
	.st12{opacity:0.5;}
	.st13{fill:#B8F2DD;}
	.st14{opacity:0.38;fill:#B8F2DD;enable-background:new    ;}
	.st15{opacity:0.25;fill:url(#SVGID_7_);enable-background:new    ;}
	.st16{opacity:0.25;fill:url(#SVGID_8_);enable-background:new    ;}
	.st17{fill:url(#SVGID_9_);}
	.st18{opacity:0.44;fill:#001826;enable-background:new    ;}
	.st19{fill:#B3C734;}
	.st20{fill:#BDD6CF;}
	.st21{fill:#96AF15;}
	.st22{fill:#001826;}
	.st23{fill:#CEC6B6;}
	.st24{fill:#333333;}
	.st25{fill:#B3B3B3;}
	.st26{fill:#E6E6E6;}
	.st27{fill:none;stroke:#002D4C;stroke-width:6;stroke-miterlimit:10;}
	.st28{fill:none;stroke:#B3C734;stroke-width:4;stroke-miterlimit:10;}
	.st29{fill:#252F4A;}
	.st30{fill:#5B737C;}
	.st31{fill:#FFFFFF;}
</style>
<title>criptomaniacos</title>
<g>
	<g id="Camada_1">
		<rect y="-1.6" class="st0" width="1920" height="1081.6"/>
		<g>
			<defs>
				<rect id="SVGID_1_" x="629" width="1291" height="1080"/>
			</defs>
			<clipPath id="SVGID_2_">
				<use xlink:href="#SVGID_1_"  style="overflow:visible;"/>
			</clipPath>
			<g class="st1">
				
					<radialGradient id="SVGID_3_" cx="-5162.46" cy="-3213.5703" r="111.09" gradientTransform="matrix(10.14 0 0 -10.16 54248.1094 -32634.3203)" gradientUnits="userSpaceOnUse">
					<stop  offset="8.000000e-02" style="stop-color:#001826"/>
					<stop  offset="1" style="stop-color:#001826;stop-opacity:0"/>
				</radialGradient>
				<rect x="584.2" y="-1362.9" class="st2" width="2656.8" height="2738.4"/>
			</g>
		</g>
		
			<linearGradient id="SVGID_4_" gradientUnits="userSpaceOnUse" x1="1240.6278" y1="66.281" x2="1673.0778" y2="1035.5609" gradientTransform="matrix(1 0 0 -1 0 1082)">
			<stop  offset="0" style="stop-color:#173554;stop-opacity:0"/>
			<stop  offset="0.14" style="stop-color:#183656;stop-opacity:4.000000e-02"/>
			<stop  offset="0.32" style="stop-color:#1A3A5D;stop-opacity:0.16"/>
			<stop  offset="0.52" style="stop-color:#1F3F68;stop-opacity:0.35"/>
			<stop  offset="0.74" style="stop-color:#254778;stop-opacity:0.62"/>
			<stop  offset="0.98" style="stop-color:#2C518C;stop-opacity:0.96"/>
			<stop  offset="1" style="stop-color:#2D528E"/>
		</linearGradient>
		<polygon class="st3" points="816.4,665.2 947.4,497.7 1059.3,528.1 1189.5,432.6 1345.2,528.1 1468.6,307.1 1612.7,321 
			1704.8,411.9 1776.4,418.7 1877.8,665.2 1848.7,954.2 		"/>
		<path class="st4" d="M1643.5,1015.7c0,0.7,0,1.4-0.1,2.2c0,0.2,0,0.3-0.1,0.5c-2.8,19.7-37.2,38.3-96.4,55
			c-8.1,2.3-16.6,4.5-25.7,6.7H0V920.6c6.6-0.9,13.3-1.7,20.2-2.6c2.5-0.3,4.9-0.6,7.4-0.9l3.3-0.4c70.1-8.5,149.3-15.6,235.4-21.1
			c-33.6-8.7-52.6-18.6-52.6-29.2c0-34.7,206.1-62.8,460.4-62.8s460.4,28.1,460.4,62.8c0,10.5-19,20.5-52.6,29.2
			c23.8,1.5,47,3.1,69.6,4.9l6.7,0.5c13.2,1,26.1,2.1,38.8,3.2l2.4,0.2c30.3,2.7,59.5,5.6,87.4,8.7l2.3,0.3
			c10.5,1.2,20.8,2.4,30.8,3.6l2.1,0.3c18.3,2.2,36,4.6,53,7l2.7,0.4c5.6,0.8,11.1,1.6,16.6,2.4l5.6,0.9c4.3,0.7,8.6,1.3,12.8,2
			l2.6,0.4c37,6,70.1,12.4,98.9,19.2l2.6,0.6c59.3,14.2,99.9,30.1,117.1,46.9c1.1,1,2.1,2.1,3,3.3
			C1641.3,1005.5,1643.5,1010.5,1643.5,1015.7z"/>
		
			<linearGradient id="SVGID_5_" gradientUnits="userSpaceOnUse" x1="562.3571" y1="486.0664" x2="1021.1093" y2="-308.5174" gradientTransform="matrix(1 0 0 -1 0 1082)">
			<stop  offset="0" style="stop-color:#5982BD;stop-opacity:0"/>
			<stop  offset="8.000000e-02" style="stop-color:#638AAA;stop-opacity:0.14"/>
			<stop  offset="0.24" style="stop-color:#769985;stop-opacity:0.4"/>
			<stop  offset="0.41" style="stop-color:#86A667;stop-opacity:0.61"/>
			<stop  offset="0.57" style="stop-color:#93B04F;stop-opacity:0.78"/>
			<stop  offset="0.73" style="stop-color:#9CB73F;stop-opacity:0.9"/>
			<stop  offset="0.87" style="stop-color:#A1BC34;stop-opacity:0.98"/>
			<stop  offset="1" style="stop-color:#A3BD31"/>
		</linearGradient>
		<path class="st5" d="M1643.5,1015.7c0,0.7,0,1.4-0.1,2.2c0,0.2,0,0.3-0.1,0.5c-2.8,19.7-37.2,38.3-96.4,55
			c-8.1,2.3-16.6,4.5-25.7,6.7H0V920.6c6.6-0.9,13.3-1.7,20.2-2.6c2.5-0.3,4.9-0.6,7.4-0.9l3.3-0.4c70.1-8.5,149.3-15.6,235.4-21.1
			c-33.6-8.7-52.6-18.6-52.6-29.2c0-34.7,206.1-62.8,460.4-62.8s460.4,28.1,460.4,62.8c0,10.5-19,20.5-52.6,29.2
			c23.8,1.5,47,3.1,69.6,4.9l6.7,0.5c13.2,1,26.1,2.1,38.8,3.2l2.4,0.2c30.3,2.7,59.5,5.6,87.4,8.7l2.3,0.3
			c10.5,1.2,20.8,2.4,30.8,3.6l2.1,0.3c18.3,2.2,36,4.6,53,7l2.7,0.4c5.6,0.8,11.1,1.6,16.6,2.4l5.6,0.9c4.3,0.7,8.6,1.3,12.8,2
			l2.6,0.4c37,6,70.1,12.4,98.9,19.2l2.6,0.6c59.3,14.2,99.9,30.1,117.1,46.9c1.1,1,2.1,2.1,3,3.3
			C1641.3,1005.5,1643.5,1010.5,1643.5,1015.7z"/>
		
			<linearGradient id="SVGID_6_" gradientUnits="userSpaceOnUse" x1="-10476.9395" y1="-6973.5493" x2="-10770.5488" y2="-6373.1899" gradientTransform="matrix(-1 0 0 1 -10312.1299 6828.9697)">
			<stop  offset="0" style="stop-color:#173554"/>
			<stop  offset="0.5" style="stop-color:#183656"/>
			<stop  offset="0.68" style="stop-color:#1A395D"/>
			<stop  offset="0.81" style="stop-color:#1F3F69"/>
			<stop  offset="0.91" style="stop-color:#254879"/>
			<stop  offset="1" style="stop-color:#2D528E"/>
		</linearGradient>
		<polygon class="st6" points="666.8,-1.6 606.6,116.6 544.8,147.4 484.8,223 391,208 363.2,223 301.4,309.1 262.3,326.8 
			222.5,417.6 172.3,481.7 73.4,467.3 -0.7,400.3 -0.7,-1.6 		"/>
		<path class="st7" d="M548.2,966.9c-13.7-3.9-28.1-5-42.3-3.2l-10.9-0.8l-0.5,6.5c-0.4,4.8,13.7,9.7,31.4,11.1s32.3-1.4,32.7-6.2
			l0.5-6.5L548.2,966.9z"/>
		
			<ellipse transform="matrix(7.602295e-02 -0.9971 0.9971 7.602295e-02 -475.4868 1417.3948)" class="st8" cx="527" cy="965.3" rx="8.7" ry="32.1"/>
		<path class="st7" d="M530.8,961.9c0,0,1.5-1.6-3.2-2.1s-10,2.2-10,2.2l-5.3-0.8l-1.6,1l5.5,0.8l-1.6,1.1l-5.5-0.8l-1.5,1l4.8,0.7
			l-3.9,2.6l3.2,0.5l2.3-1.5l16.6,2.5l-2,1.3l3.9,0.6l3.3-2.2l5.1,0.8l1.6-1l-5.2-0.8l1.6-1.1l5.2,0.8l1.6-1.1l-5.5-0.8
			c0,0,6.4-3.5-0.3-4.6S530.8,961.9,530.8,961.9z M517.2,964.7c0,0,4.1-3.2,8-2.5s-1.1,3.5-1.1,3.5L517.2,964.7z M535.7,963.2
			c4.1,0.8-1.6,4-1.6,4l-7.4-1.1C526.8,966.1,531.6,962.5,535.7,963.2L535.7,963.2z"/>
		<path class="st7" d="M811.4,989.8c4.5-1.3,9-2.2,13.7-2.5c4.6-0.4,9.3-0.3,13.9,0.4l7.1-0.5l0.3,4.2c0.2,3.1-8.9,6.3-20.4,7.2
			s-21.1-0.9-21.3-4l-0.3-4.2L811.4,989.8z"/>
		
			<ellipse transform="matrix(0.9971 -7.602294e-02 7.602294e-02 0.9971 -72.7783 65.596)" class="st8" cx="825.2" cy="988.7" rx="20.9" ry="5.6"/>
		<polygon class="st7" points="811.3,992.4 807.8,992 828.3,986.9 820,986 824,985 844,987.1 840,988.1 831.7,987.2 		"/>
		<path class="st7" d="M819,989.8c-3.7-0.4-9.8-1.3-7-2s10.5-0.2,14.1,0.3s9.8,1.3,7,2S822.6,990.2,819,989.8z M824.8,988.4
			c-3.9-0.5-7.8-0.7-11.7-0.5c-0.7,0.2,1,0.9,7.2,1.6c3.9,0.5,7.8,0.7,11.7,0.5C832.6,989.8,831,989,824.8,988.4L824.8,988.4z"/>
		<path class="st7" d="M588.9,948.5c9.3-0.3,18.6,1.3,27.3,4.7l7,1.2l-0.7,4.2c-0.5,3.1-10.2,4-21.6,2s-20.2-6-19.7-9.1l0.7-4.2
			L588.9,948.5z"/>
		
			<ellipse transform="matrix(0.1695 -0.9855 0.9855 0.1695 -436.7023 1383.4908)" class="st8" cx="602.5" cy="950.9" rx="5.6" ry="20.9"/>
		<g class="st9">
			<path class="st7" d="M445.9,936.8c4.4-1.5,8.9-2.6,13.6-3.1c4.6-0.6,9.3-0.7,13.9-0.3l7-0.9l0.5,4.2c0.4,3.1-8.6,6.7-20.1,8.1
				s-21.1,0-21.5-3.1l-0.5-4.2L445.9,936.8z"/>
			
				<ellipse transform="matrix(0.9927 -0.1205 0.1205 0.9927 -109.3215 62.1798)" class="st8" cx="459.5" cy="935.1" rx="20.9" ry="5.6"/>
			<polygon class="st7" points="472.3,935.9 475.2,935 457.1,933.9 464,931.8 460.4,931.6 443.9,936.6 447.4,936.8 454.3,934.8 			
				"/>
			<path class="st7" d="M453.5,937.4c-2.5-0.2,2.6-1.9,5.6-2.8s9.4-2.6,11.9-2.4s-2.6,1.9-5.6,2.8S456,937.5,453.5,937.4z
				 M454.5,937.1c3.3-0.4,6.6-1.2,9.8-2.2c5.1-1.6,6.4-2.4,5.8-2.5c-3.3,0.4-6.6,1.2-9.8,2.2C455.2,936.2,453.9,937,454.5,937.1
				L454.5,937.1z"/>
		</g>
		<polygon class="st7" points="597.7,953.5 591,947.7 606,947.8 598.8,949.8 		"/>
		<polygon class="st7" points="607.5,948.3 613.3,953.8 599.2,953.9 607.5,952.2 		"/>
		<polygon class="st7" points="597.7,953.5 605.7,951.7 606,947.8 598.8,949.8 		"/>
		<g class="st10">
			<path class="st7" d="M425.7,953.1c-8.4-0.3-16.7,1.2-24.5,4.2l-6.3,1.1l0.6,3.8c0.5,2.8,9.2,3.6,19.4,1.8s18.1-5.4,17.7-8.2
				l-0.6-3.8L425.7,953.1z"/>
			
				<ellipse transform="matrix(0.9855 -0.1695 0.1695 0.9855 -155.9389 83.9066)" class="st8" cx="413.4" cy="955.2" rx="18.8" ry="5.1"/>
			<path class="st7" d="M415.1,952.7c0,0,0.6-1.1-2.1-0.8c-2,0.4-3.8,1.4-5.4,2.7l-3.1,0.3l-0.8,0.8l3.3-0.3l-0.8,0.8l-3.3,0.3
				l-0.7,0.8l2.8-0.3l-1.8,2l1.9-0.2l1.1-1.2l9.8-1l-1,1l2.3-0.2l1.6-1.7l3-0.3l0.8-0.8l-3.1,0.3l0.8-0.8l3.1-0.3l0.8-0.8l-3.2,0.3
				c0,0,3.1-2.9-0.8-2.6S415.1,952.7,415.1,952.7z M407.8,956.3c0,0,1.9-2.4,4.2-2.6s-0.1,2.2-0.1,2.2L407.8,956.3z M418,952.8
				c2.5-0.2-0.3,2.5-0.3,2.5l-4.3,0.4C413.3,955.7,415.6,953,418,952.8z"/>
		</g>
		<ellipse class="st11" cx="395.5" cy="950.2" rx="3.3" ry="3.5"/>
		<path class="st7" d="M911.7,1013c-11.2-3.2-23-4.1-34.5-2.6l-8.9-0.7l-0.4,5.3c-0.3,3.9,11.2,7.9,25.6,9
			c14.4,1.1,26.4-1.2,26.7-5.1l0.4-5.3L911.7,1013z"/>
		
			<ellipse transform="matrix(7.602295e-02 -0.9971 0.9971 7.602295e-02 -182.3185 1826.5903)" class="st8" cx="894.4" cy="1011.7" rx="7.1" ry="26.2"/>
		<path class="st7" d="M891.8,1014.6c0,0-1.3,1.3,2.6,1.8s8.2-1.8,8.2-1.8l4.3,0.7l1.3-0.8l-4.6-0.7l1.3-0.9l4.5,0.7l1.2-0.8l-4-0.6
			l3.2-2.2l-2.6-0.4l-1.9,1.3l-13.7-2.1l1.7-1.1l-3.2-0.5l-2.7,1.8l-4.2-0.6l-1.3,0.8l4.3,0.7l-1.3,0.9l-4.3-0.7l-1.3,0.9l4.5,0.7
			c0,0-5.3,2.9,0.2,3.8S891.8,1014.6,891.8,1014.6z M903,1012.3c0,0-3.4,2.6-6.6,2s0.9-2.9,0.9-2.9L903,1012.3z M887.8,1013.5
			c-3.4-0.6,1.3-3.3,1.3-3.3l6,0.9C895.1,1011.1,891.2,1014.1,887.8,1013.5L887.8,1013.5z"/>
		<g class="st10">
			<path class="st7" d="M888.5,963.8c8.4-0.3,16.7,1.2,24.5,4.2l6.3,1.1l-0.7,3.8c-0.5,2.8-9.2,3.6-19.4,1.8s-18.2-5.4-17.7-8.2
				l0.6-3.8L888.5,963.8z"/>
			
				<ellipse transform="matrix(0.1692 -0.9856 0.9856 0.1692 -203.3465 1689.5577)" class="st8" cx="900.5" cy="965.4" rx="5.1" ry="18.9"/>
			<polygon class="st7" points="903.3,969.1 911.5,965.7 897.3,961.1 903.4,965.3 			"/>
			<polygon class="st7" points="895.7,961 888.5,964.5 901.8,969.1 894.5,964.8 			"/>
			<polygon class="st7" points="903.3,969.1 896.4,964.9 897.3,961.1 903.4,965.3 			"/>
		</g>
		<g class="st12">
			<ellipse class="st13" cx="1031.8" cy="845.9" rx="2.1" ry="2.3"/>
			<ellipse class="st13" cx="921.7" cy="801.2" rx="2.1" ry="2.3"/>
			<ellipse class="st13" cx="970.7" cy="849.6" rx="1.1" ry="1.1"/>
			<ellipse class="st13" cx="1088.1" cy="908.5" rx="1.1" ry="1.1"/>
			<ellipse class="st14" cx="907" cy="910.8" rx="1.1" ry="1.1"/>
			<ellipse class="st14" cx="952.1" cy="1007.6" rx="1.1" ry="1.1"/>
			<ellipse class="st14" cx="954.6" cy="915.8" rx="2.1" ry="2.3"/>
		</g>
		<g class="st12">
			<ellipse class="st13" cx="770.8" cy="841.9" rx="2.3" ry="2.1"/>
			<ellipse class="st13" cx="815.4" cy="731.7" rx="2.3" ry="2.1"/>
			<ellipse class="st13" cx="767" cy="780.8" rx="1.1" ry="1.1"/>
			<ellipse class="st13" cx="708.1" cy="898.2" rx="1.1" ry="1.1"/>
			<ellipse class="st14" cx="705.9" cy="717.1" rx="1.1" ry="1.1"/>
			<ellipse class="st14" cx="609" cy="762.1" rx="1.1" ry="1.1"/>
			<ellipse class="st14" cx="700.8" cy="764.7" rx="2.3" ry="2.1"/>
		</g>
		
			<linearGradient id="SVGID_7_" gradientUnits="userSpaceOnUse" x1="773.43" y1="2" x2="773.43" y2="210.9852" gradientTransform="matrix(1 0 0 -1 0 1082)">
			<stop  offset="0" style="stop-color:#001F45"/>
			<stop  offset="0.5" style="stop-color:#0D2B52;stop-opacity:0.62"/>
			<stop  offset="1" style="stop-color:#18345D;stop-opacity:0.32"/>
		</linearGradient>
		<path class="st15" d="M1546.9,1022.9v57.1H0V934.4c2.5-0.3,4.9-0.5,7.3-0.6c4.4-0.3,8.7-0.5,12.8-0.5c2.5,0,5,0,7.4,0.1
			s4.9,0.2,7.4,0.4c6.1,0.4,12,1.1,17.5,2c11.3,1.8,21.6,3.8,31.4,5.7c16,3.1,30.6,6.2,46,8.4c23.9,3.4,49.6,4.7,85.4,1
			c30.2-3.1,52.4-9.4,70.9-17.2c42.1-17.8,65.1-43.3,120.3-56.4c137.7-32.8,200.5,76.8,338,83.3c18.2,0.8,36.4-0.1,54.5-2.7
			c60.7-8.6,80.5-29.1,111.5-45.5l0,0c18.6-9.9,41.3-18.3,79.2-21.9c58.4-5.5,99.8,5.6,156,25.2c38.6,13.5,84.1,31,146.7,49.9
			c3.8,1.2,7.8,2.3,11.8,3.5c72.4,21.3,146,38.1,220.4,50.3c4.2,0.7,8.4,1.4,12.7,2.1C1540.4,1021.9,1543.6,1022.4,1546.9,1022.9z"
			/>
		
			<linearGradient id="SVGID_8_" gradientUnits="userSpaceOnUse" x1="843.735" y1="2" x2="843.735" y2="170.8123" gradientTransform="matrix(1 0 0 -1 0 1082)">
			<stop  offset="0" style="stop-color:#001F45"/>
			<stop  offset="0.5" style="stop-color:#0D2B52;stop-opacity:0.62"/>
			<stop  offset="1" style="stop-color:#18345D;stop-opacity:0.32"/>
		</linearGradient>
		<path class="st16" d="M1675.8,1008v72H11.7c3.9-8.3,9-18.1,15.3-28.8c20.3-34.1,53.4-76.3,103-101.5c9.1-4.7,18.6-8.6,28.4-11.8
			c42.7-13.9,87.4-12.4,127.9-4.5c51.6,10.1,96.6,30.5,122.5,42.2c11.9,5.4,8.9,4.6,18.2,8.7c82.2,36.2,204.1,47.3,292.1-6.8
			c8.6-5.3,16.8-11.2,25.5-17.2c20.4-14.2,43.2-29.2,79.6-39.6c15.9-4.3,32.1-7.3,48.5-9c12.6-1,25.3-0.9,37.9,0.4l0,0
			c49.1,4.6,108.9,22.8,162.1,42.6c75,27.9,136.8,58.8,136.8,58.8c29.4,14.7,64.8,27.6,107.6,35.5c9.8,1.8,20.1,3.3,30.8,4.6
			c54.8,6.3,120.4,4.4,199.2-11.1c30.2-6,62.3-13.9,96.4-24.2C1653.9,1015.1,1664.8,1011.7,1675.8,1008z"/>
		
			<linearGradient id="SVGID_9_" gradientUnits="userSpaceOnUse" x1="1684.8314" y1="-191.7593" x2="1311.8514" y2="570.8807" gradientTransform="matrix(1 0 0 -1 0 1082)">
			<stop  offset="0" style="stop-color:#173554"/>
			<stop  offset="0.24" style="stop-color:#19385A"/>
			<stop  offset="0.55" style="stop-color:#20406B"/>
			<stop  offset="0.91" style="stop-color:#2A4E86"/>
			<stop  offset="1" style="stop-color:#2D528E"/>
		</linearGradient>
		<polygon class="st17" points="1920,448.7 1920,1080 951.4,1080 958.4,1071.3 961.6,1067.3 1040.8,969 1072.5,954.8 1075,953.7 
			1136.3,926.2 1145.6,915.5 1147.5,913.4 1158.4,901 1158.8,900.5 1228.9,820.8 1373.9,841.8 1400.7,828.7 1416.9,820.8 
			1512.4,700.9 1572.8,676.2 1634.2,549.6 1670.3,508.1 1711.8,460.4 1799.3,474.4 1818.1,477.4 1824.1,478.4 		"/>
		<path class="st18" d="M1356.3,1080c-2.2-7.5-5.1-16.5-8.6-26.4c0-0.1,0-0.2-0.1-0.2c-0.5-1.3-0.9-2.6-1.4-3.9s-0.9-2.4-1.3-3.6
			c-9.2-24.2-22.5-52.4-40.5-76.8l-0.1-0.2c-9.1-12.7-27.9-35-59.4-50.2c-17.4-8.4-33.5-12.1-45.6-13.8c0.5,0.2,1,0.4,1.6,0.5
			c1-1.1,2.5-2.6,4.6-4c9.3-6.4,19.8-5.1,28.1-5c7.7,0.1,18.4-0.9,31.6-5.6c6.9,7.8,14.3,15.2,22.1,22.1l0.3,0.3
			c2.2,2,4.6,3.8,7.1,5.4c1.8,1,19.8,11.1,24.9,6.1c1.3-1.3,1.8-3.5,0.9-7.6l-0.1-0.3c-1.5-4.2-3.2-8.7-5.3-13.3
			c-4.2-9.4-8.9-17.4-13.5-24.1c4.4-0.3,8.9-0.7,13.5-1.2c2.8-0.3,5.6-0.6,8.3-0.9c15.9,22.2,33.4,36.2,49.4,45.3
			c0.9,0.5,1.8,1,2.6,1.5l0.7,0.4c7.8,4.2,17,4.9,21.4,6c-0.8-0.9-1.8-2.1-2.9-3.5c-12.1-15.9-39.7-60.8-36.5-66.9
			c2-3.8,11.5-2.9,21.3-0.9c0,0-0.3,46.2,33.6,70.7l0.6,0.4c13.2,9.3,32.5,19.5,60.7,30c17.7,6.6,49,16.3,52.8,9.3
			c2-3.7-3.5-12.2-12-19.4c-0.2-0.2-0.4-0.4-0.6-0.6c-3-3.8-1.4-13-5.8-15.1c-10.8-5.2-37.1-26.7-37-27.6c0.1-0.6,6.5-0.9,23,0
			c0,0,62.5,54.7,100.6,50.2c8.6-1,11.3-3.5,11.9-5.7c2.1-8.2-30.8-56.1-54-60.9c-2.6-0.5-8.3-1.5-8.3-2.6c0.1-1.4,10-1.1,18.3-1.5
			c0,0,79.3,51.2,145.4,93l3.9,2.5c41.9,26.5,80.3,59.8,94.4,98.1L1356.3,1080z"/>
		<path class="st19" d="M1589.8,785.3c-1.4,6.9-4.4,11.7-7.5,16.3c-2.8,4.2-5.8,8.2-7.8,13.4c-1,2.5-1.6,5.2-2,7.8
			c-0.1,0.5-0.1,1-0.2,1.6c-0.7,7.5,0.3,15.1,3,22.1c-2.5,8.8-5.6,17.4-9.1,25.8c-0.5,1.1-0.9,2.1-1.4,3.2
			c-1.8,4.1-3.6,7.8-5.5,11.4h-16.7c2-3.6,3.7-7.4,5.1-11.4c2-5.8,3.4-11.8,4-17.9c0.7-6.3,0.6-12.7-0.3-18.9
			c-5-2.7-9.1-6.6-12-11.4c-7.8-13.3-2.2-27.7-1.4-29.6c-14.9,3.8-28.9,14.4-30.4,28.9c-1,9.9,3.7,29.3,3.7,29.3s-4.4,10.1-9.9,21.2
			c-3,6.1-5.5,12.4-7.5,18.8c-1.1,3.5-2.2,7.3-3.1,11.5h-20.6c2.7-4.1,4.9-8,6.8-11.5c10.9-20.6,9.7-32.2,6.1-39.1
			c-3.4-6.5-8.5-8.2-13.5-16.8c-7-12.2-6.3-25.6-4.8-34.7c-8.9-6.5-19.3-10.8-30.3-12.5c-14.3-2.1-28.9,0.3-41.8,6.8l0.9,15.8
			c-4.1,7.5-7.3,15.5-9.4,23.8c-0.7,3.4-1.7,6.7-3,10c-1.5,3.8-3.4,7.4-5.7,10.7l-21.2,0.9c2.7-2.7,6-6.5,9.2-11.7
			c0,0,2.2-3.5,3.9-7.1c3.6-7.8,1.1-31.5-9.8-60.7c-0.4-5.3-0.9-10.7-1.4-16c-1.3-15.6-2.7-31.1-4-46.6c5.3-20,10.7-39.9,16-59.8
			c-2.2-2.9-4.9-5.4-8-7.4c-7.8-5-15.7-4.7-20-4.7c-1.9,0-3,0-3.2-0.5c-0.1-0.3,0.2-0.6,0.6-1.1c0.6-0.5,1.2-0.9,1.8-1.3
			c2.7-1.6,5.5-3,8.4-4.2c3.4-1.5,7.5-3,12-4.5c19.4-6.4,46.3-11.3,60-1.6c4.3,3,14.4,8.5,19.6,11.8c19.5,12.3,20.3,14.3,26.6,17.7
			c19.6,10.3,26.5-2.3,60.8,4.5c27.4,5.4,37.3,16.2,40.7,20.7c10.4,13.7,8.3,21.1,11.1,40.9c0.6,4.2,1.4,8.9,2.6,14.3
			c3.6,16.7,6.6,24.5,8,30.1c0.5,1.7,0.8,3.4,0.9,5.1C1590.4,780.8,1590.3,783.1,1589.8,785.3z"/>
		<path class="st19" d="M1392.4,720.7c-0.4-10.2,4.2-15.2,5.4-28.1c1.2-13.8-2.5-25.4-6-33.3c-18.2-1.7-26.3-5.6-26.3-5.9
			s4.8,0.1,9.9-0.5c8.1-1,15.8-4.1,22.4-8.9c-8.2-4.5-16.7-8.5-25.5-11.7l-10.1,4l-5.6,2.2l-4.4,1.7l-0.3,0.1c0,0-1.5-0.3-4-0.7
			c-2.8-0.4-6.8-1-11.3-1.3l0,0c-1.2-0.1-2.5-0.2-3.8-0.2h-0.5l0,0h-1.9c-4.1-0.1-8.1,0.1-12.2,0.6c-1.5,0.2-2.9,0.5-4.3,0.8
			c-1,0.3-2.1,0.5-3,0.9c-1.2,0.6-2.4,1.3-3.6,2.1l-0.1,0.1c-1.7,1.1-3.2,2.5-4.4,4.2c-0.2,0.3-0.4,0.7-0.6,1
			c-0.4,0.8-0.8,1.7-1.1,2.5c-0.5,1.8-1.2,3.6-1.9,5.4c-0.7,1.6-1.7,3.1-3,4.4c-1.8,1.9-7.1,5-12.6,8.1c-3.3,1.9-6.8,3.7-9.6,5.2
			c-1.8,0.9-3.3,1.7-4.5,2.3c-1.2,0.6-1.7,2.1-1.1,3.3c0.8,1.6,1.7,3.2,2.6,4.7c0.4,0.6,0.8,1.2,1.2,1.8c0.9,1.2,1.8,2.4,2.8,3.5
			c1.6,1.7,3.5,3.1,5.6,4l0,0c7.7,6.1,12.6,6.4,15.7,5.5c3.4-1,4.2-3.3,7.9-3.9c5.2-0.9,9.7,2.5,12.9,4.8c5.7,4.2,8.9,9.8,11.8,16.3
			c6.7,15.2,3.1,17.6,8.3,28.4c4.3,8.7,10.8,16,19,21.3c0.8,0.5,1.6,1,2,1.3c7,4.1,10.9,6.4,15.8,5.6c11.6-1.9,13.6-18.8,25.8-20.4
			c4.2-0.4,8.3,0.4,12,2.4C1396.4,740.5,1392.8,728.9,1392.4,720.7z"/>
		<path class="st20" d="M1264.3,655.8c-6-13.5,2.8-30.6,19.7-39.4c0.3-0.2-14.9,12.2-11.7,21.9c2.7,8.2,17.3,12,28.6,9.6
			c11.6-2.5,25-12.9,23.1-22.8c-2.4-12.6-27.4-13.2-27.8-13.2l0,0c0,0,5.2-0.5,5.7-0.5c5.1-0.5,22.9,1.8,30.5,14.2l0.2,0.4
			c1.8,2.9,3.8,8.3,2,10.8c-1.3,1.9-3.7,0.8-8.2,1.8c-1.6,0.4-9.4,2-12.3,7.2c-3.3,6.1,2.7,12.9-1.7,18.4c-0.8,0.9-1.7,1.7-2.8,2.3
			C1300.7,672,1270.6,669.9,1264.3,655.8z"/>
		<path class="st21" d="M1322.5,881.9c-1.2,2-3.6,2.7-5.3,3.1c-6.5,1.7-13.5-2.1-16.7-6.7c-2.8-4-3.6-7.7-4.1-10.9
			c-0.8-5.1-1.1-15.8,3.3-17.7c4.3-1.8,10.9,5.4,16.2,3.9c0.4-0.1,4-1.2,4-1.2l0,0c0,0-1,4.6-0.4,9.7c0.1,0.7,0.2,1.2,0.3,2.1
			C1320.7,868.7,1325.1,877.5,1322.5,881.9z"/>
		<path class="st21" d="M1569.6,698.1c0,0,39.1,119.8,16.4,126.3s-36.2-33.1-36.2-33.1s-15.3-1.5-18.8-10.9c-1.1-3-0.2-6.8,0.4-9.8
			c0.7-3.5,1.9-7,3.6-10.1c0.7,3.6,2.5,6.9,5,9.6c3.3,3.4,6.1,3.5,8.9,6.6c3.7,4.1,3.6,9.3,3.9,12.4c1.7,14,19.4,28.9,25.6,26.3
			c9.8-4,7-59.4-7.3-84.8c-2-3.5-9.2-15.4-5.2-26.3C1566.8,702,1568,699.9,1569.6,698.1z"/>
		<path class="st21" d="M1237.4,880.5c4.7-1.6,5.6-4.4,9.9-5c9.5-1.4,21.4,9.8,19.7,15.5c-1.1,3.9-8.5,4.8-15.4,5.8
			c-13.7,1.9-33,5.3-57.7,11.4c5.5-3.6,7.4-9.3,5.6-12.6c-1-1.9-3.2-2.8-4.7-3.2c3.8-0.5,6.9-2.3,8.1-4.7c0.9-1.8,0.6-4-0.8-5.5
			C1203.4,882.3,1230.1,883.1,1237.4,880.5z"/>
		<path class="st22" d="M1211.5,610.1c-22.4,12.4-32.8,29.2-36,33.6c-3.5,4.9-4.5,7-4.9,9.3c-3.7,21.4,38.7,43.4,44.3,46.3l1.4-9
			c-24.7-17.7-28.4-27.8-26.7-33.8c2.2-6,5.8-11.4,10.5-15.8c7.1-6.4,16.3-10.3,25.9-10.8c-6.3,23.1-14.7,62-9,95.9
			c1,6,2.7,12.3,7.8,15.6c17.1,10.9,55-23.2,55-23.2c-6.1-28.5-7.4-57.7-4-86.6c2.7,3,23.2,25.2,48.3,21.9
			c1.7-0.2,14.7-0.2,16.2-5.2c1.2-3.8-4.2-11.1-4.2-11.1s-16.3,4.6-27,1c-0.5-0.2-2.3-1-4.7-2.4c-11.6-7.1-13.8-17-19.4-23.8
			c-13.7-16.4-48.1-14.6-69.4-4.2C1214,608.7,1212.9,609.3,1211.5,610.1z"/>
		<path class="st22" d="M1215.5,702.6c-0.6,12.6-0.5,25.2,0.6,37.8c0.7,8.2,1.6,15.9,2.8,23.1c0,0,5.8,51.5,26.5,118.4
			c0.6,1.9,1.7,5.4,4.7,7.2c1.5,0.9,3.3,1.3,5.1,1.1c3.1,0,5.6-2.5,5.6-5.5c0-0.8-0.2-1.6-0.5-2.3c-0.9-6.6-2.3-16.8-3.9-29.5
			c-1.5-11.4-2.1-16-2.8-22.7c-3.6-31.8-5.7-66.6,0.2-78.4c0.7-1.3,1.4-2.2,2.4-2.5c0,0,10.9-2.6,48.6,126.7
			c1.8,3.9,5.9,5.9,9.5,4.9c2.8-0.7,4.9-3.1,5.6-6.2c-14.6-59.5-29.2-119-43.8-178.5c-8.3-2.8-17.1-4.1-25.9-3.8
			C1238,692.8,1226,696.3,1215.5,702.6z"/>
		<path class="st23" d="M1334.9,640c0,0,10.8-10.8,14.7-8.8s16.3,4.9,12.3,6.3s-23.3,9-23.3,9L1334.9,640z"/>
		<path class="st23" d="M1255.1,606.3c-0.1-4.1,0.4-8.2,1.4-12.2c1.7-6.2,3.5-7.3,6.1-14.2c2.7-7.2,5.4-14.1,2.3-19.8
			c-1.5-2.7-4.2-5-8.5-6.7c-15.7-5.9-29.2,18.8-29.2,18.8l4.4,1.7c0,0-2.3,16.2,1.9,17.8c2.6,1,5.1,2.4,7.4,4.1
			c0.3,3.7,0.6,7.4,0.9,11.1c2.7,1.7,6.1,2.3,9.2,1.5C1252.5,608.1,1253.9,607.4,1255.1,606.3z"/>
		<ellipse transform="matrix(0.5 -0.866 0.866 0.5 130.3823 1355.6061)" class="st24" cx="1239.2" cy="564.9" rx="2.6" ry="1.4"/>
		<path class="st25" d="M1241.3,564.4c0,0-6.1-4.8-4.6-5.3S1245.5,564.9,1241.3,564.4z"/>
		<path class="st22" d="M1240.1,574.5c0,0-0.4,0.6-1,1.3c-0.9,1-2.3,2.2-3.5,2.2c-0.8,0-1.5-0.5-2-1.7c-0.1-0.2-0.2-0.5-0.3-0.7
			L1240.1,574.5z"/>
		<path class="st26" d="M1240.1,574.5c0,0-0.4,0.6-1,1.3c-1,0.6-2.2,0.8-3.4,0.8c-0.7,0-1.5-0.1-2.2-0.3c-0.1-0.2-0.2-0.5-0.3-0.7
			L1240.1,574.5z"/>
		<path class="st4" d="M1230.9,566.5c-2.1-1.7-2.4-4.8-0.6-6.9c0.2-0.2,0.4-0.4,0.6-0.6c4.1-4.1,3.8-5.5,8.1-3.3s11.7,4.5,10.1,9.5
			s-7.2,8.9-11.8,6.7S1238.2,561.3,1230.9,566.5z"/>
		<path class="st27" d="M1215.2,694.2c19.8,6.8,41.1,7.6,61.3,2.5"/>
		<path class="st23" d="M1205.9,692.8c11.5-7.5,15.2-8.2,16.1-7.2c0.6,0.6,0.3,2.1,0,3c-0.7,1.9-2.2,1.7-3.7,3.5
			c-1.9,2.4-2.7,6.9-2.4,9.5c0.1,0.3,0,0.7-0.2,1c-0.9,1.1-4.5,0.6-6.5-1.5c-1-1.1-1.6-2.4-1.8-3.8L1205.9,692.8z"/>
		<polygon class="st23" points="1216.9,689 1216.1,679.8 1210.7,692.4 		"/>
		<path class="st28" d="M1256.9,592.8c1.9,0.6,4.8,1.8,7.5,4.5c3.2,3.2,7.2,9.4,5.2,13.9c-2.1,4.8-10,5.3-15.9,5.6
			c-10,0.6-23.2,1.3-29.3-8.2c-4.8-7.5-3.5-18.7,3.1-27.9"/>
		<path class="st21" d="M1256.8,611.1L1256.8,611.1c1.7,0.2,3,1.7,2.8,3.4l-1.1,10.9c-0.2,1.7-1.7,3-3.4,2.8l0,0
			c-1.7-0.2-3-1.7-2.8-3.4l1.1-10.9C1253.5,612.1,1255.1,610.9,1256.8,611.1z"/>
		<path class="st21" d="M1222.6,577l0.9-0.9c0.7-0.7,1.8-0.7,2.4,0c0.1,0.5,0.3,2.5,2,4.1c1.5,1.4,3.3,1.7,3.8,1.8
			c0.1,0.1,0.5,0.5,0.5,1.2c0,0.4-0.2,0.9-0.5,1.2l-0.9,0.9c-0.7,0.7-1.8,0.7-2.4,0l-5.9-5.9C1221.9,578.8,1221.9,577.7,1222.6,577z
			"/>
		<path class="st20" d="M1251.9,622.4l7.9,0.8c5.8,0.6,10.1,5.8,9.5,11.6l-7.2,71.4c-0.6,5.8-5.8,10.1-11.6,9.5l-7.9-0.8
			c-5.8-0.6-10.1-5.8-9.5-11.6l7.2-71.4C1240.9,626,1246.1,621.8,1251.9,622.4z"/>
		<path class="st20" d="M1494,895.7c-1.1,3.5-2.2,7.3-3.1,11.5h-20.6c2.7-4.1,4.9-8,6.8-11.5H1494z"/>
		<path class="st20" d="M1564.8,875.5c-1.8,4.1-3.6,7.8-5.5,11.4h-16.8c2-3.6,3.7-7.4,5.1-11.4H1564.8z"/>
		<path class="st19" d="M1344.7,666.1c-6.6,8.7-13.1,17.4-19.7,26.1c3-5.1,2.2-11.2-1.5-14.4c-3.5-3.1-8.2-2.3-8.9-2.2
			c2.3-2.3,4.9-4.4,7.7-6.1c2.9-2,6.2-3.4,9.6-4.2C1336.2,664.5,1340.6,664.7,1344.7,666.1z"/>
		<path class="st29" d="M1258.3,699.4c0,1.1-1,2.1-2.1,2c-0.3,0-0.6-0.1-0.8-0.2l-1.5-0.5c-1.4-0.4-2.2-1.8-1.9-3.2
			c0.1-0.7,0.4-1.3,0.8-1.8c0-0.1,0.1-0.1,0.2,0c0,0,0,0,0,0l0.6,0.6c0.1,0.1,0.1,0.2,0,0.2c0,0,0,0,0,0c-0.3,0.3-0.4,0.7-0.5,1.1
			c-0.1,0.7,0.3,1.4,1,1.6l1.5,0.5c0.9,0.3,1.4-0.1,1.5-0.8c0.1-0.5,0-1-0.3-1.5c0-0.1,0-0.2,0.1-0.2c0,0,0,0,0,0l0.8-0.3
			c0.1,0,0.2,0,0.2,0.1C1258.2,697.9,1258.3,698.7,1258.3,699.4"/>
		<path class="st29" d="M1258.4,696.8c0,0.1-0.1,0.1-0.1,0.1c0,0,0,0,0,0l-5.4-1.7c-0.1,0-0.1-0.1-0.2-0.2c-0.2-0.7-0.3-1.4-0.2-2.1
			c0.1-0.4,0.1-0.7,0.2-1.1c0-0.1,0.1-0.1,0.2-0.1l0.8,0.3c0.1,0,0.1,0.1,0.1,0.2c0,0,0,0,0,0c-0.1,0.3-0.1,0.6-0.2,0.9
			c-0.1,0.3-0.1,0.6,0,0.9l4.7,1.4c0.1,0,0.1,0.1,0.1,0.2L1258.4,696.8z"/>
		<path class="st29" d="M1258.9,693c0,0.1-0.1,0.2-0.2,0.1l-5.7-1.8c-0.1,0-0.1-0.1-0.1-0.2l0.1-1c0-0.1,0.1-0.1,0.2-0.1
			c0,0,0,0,0.1,0l5.7,1.8c0.1,0,0.1,0.1,0.1,0.2L1258.9,693z M1252.2,690.4c0,0.4-0.4,0.7-0.8,0.7c-0.1,0-0.2,0-0.2-0.1
			c-0.4-0.1-0.6-0.5-0.6-0.9c0-0.4,0.3-0.7,0.7-0.7c0.1,0,0.2,0,0.2,0.1C1251.9,689.6,1252.2,690,1252.2,690.4"/>
		<path class="st29" d="M1253.3,686.7c0-1.2,0.9-2.2,2.1-2.2c0.3,0,0.6,0.1,0.9,0.2l1.3,0.4c1.4,0.3,2.3,1.7,2.1,3.1
			c0,0.5-0.2,0.9-0.5,1.3l2.2,0.7c0.1,0,0.1,0.1,0.1,0.2l-0.1,1c0,0.1-0.1,0.1-0.1,0.1c0,0,0,0-0.1,0l-7.5-2.3
			c-0.1,0-0.1-0.1-0.2-0.1C1253.2,688.2,1253.1,687.4,1253.3,686.7 M1256,686c-1.1-0.3-1.4,0-1.5,0.9c-0.1,0.4,0,0.8,0.1,1.1
			l3.4,1.1c0.2-0.3,0.4-0.7,0.4-1.1c0.1-0.8-0.4-1.5-1.2-1.6c0,0,0,0,0,0L1256,686z"/>
		<path class="st29" d="M1255.3,682.3l2.8,0.8c0.7,0.2,1,0,1.1-0.5l0.1-0.4c0-0.1,0.1-0.2,0.2-0.1l0.8,0.2c0.1,0,0.1,0.1,0.1,0.2
			c0,0.2,0,0.3,0,0.5c0,1-0.8,1.7-1.8,1.7c-0.3,0-0.5-0.1-0.8-0.2l-5.3-1.6c-0.1,0-0.1-0.1-0.1-0.2l0.1-0.8c0-0.1,0.1-0.2,0.2-0.2
			l1.4,0.3l0.1-1.1c0-0.1,0.1-0.1,0.1-0.1c0,0,0,0,0.1,0l0.8,0.3c0.1,0,0.1,0.1,0.1,0.2L1255.3,682.3z"/>
		<path class="st29" d="M1260.7,679.6c-0.1,1.2-1.1,2.1-2.2,2c-0.2,0-0.4-0.1-0.6-0.1l-1.6-0.5c-1.3-0.5-2.2-1.8-1.9-3.2
			c0.1-1.2,1.1-2.1,2.2-2c0.2,0,0.4,0.1,0.6,0.1l1.6,0.5C1260.2,676.7,1261,678.2,1260.7,679.6 M1259.5,679.3c0.2-0.7-0.3-1.4-1-1.6
			l-1.6-0.5c-0.5-0.2-1.1,0-1.3,0.5c0,0.1-0.1,0.2-0.1,0.3c-0.1,0.7,0.3,1.4,1,1.6l1.6,0.5C1258.8,680.3,1259.4,680.1,1259.5,679.3"
			/>
		<path class="st29" d="M1255.5,668.9c0-1,0.8-1.9,1.8-1.9c0.3,0,0.6,0.1,0.9,0.2l3.7,1.1c0.1,0,0.1,0.1,0.1,0.1l-0.1,0.4
			c0,0.1,0,0.1-0.1,0.1l-3.7-1.1c-1.2-0.4-1.9,0.1-2,1.2c0,0.6,0,1.1,0.3,1.6c0.4-0.1,0.9-0.1,1.3,0.1l3.8,1.2
			c0.1,0,0.1,0.1,0.1,0.1c0,0,0,0,0,0v0.4c0,0.1,0,0.1-0.1,0.1l-3.8-1.2c-1.1-0.3-1.7,0-1.9,1c0,0.5,0,1,0.1,1.5l5.2,1.6
			c0.1,0,0.1,0.1,0.1,0.1v0.4c0,0.1,0,0.1-0.1,0.1l-5.5-1.7c-0.1,0-0.1,0-0.1-0.1c-0.2-0.7-0.3-1.4-0.2-2.1c0-0.5,0.3-1.1,0.7-1.4
			c-0.2-0.6-0.3-1.3-0.3-2"/>
		<path class="st29" d="M1262.4,665.6c-0.2,1.3-1.1,2.2-2.4,1.8c-1.1-0.4-1.6-1.5-1.4-2.9c0.1-0.6,0.2-1.1,0.4-1.6l-0.6-0.2
			c-0.9-0.3-1.6,0-1.7,1.2c-0.1,0.7,0,1.3,0.3,1.9c0,0,0,0.1,0,0.1c0,0,0,0,0,0l-0.3,0.1c0,0-0.1,0-0.1,0c-0.3-0.7-0.4-1.5-0.3-2.3
			c0-1,0.7-1.8,1.7-1.8c0.3,0,0.5,0,0.8,0.1l3.6,1.1c0,0,0.1,0,0.1,0.1C1262.5,664,1262.5,664.8,1262.4,665.6 M1261.9,665.5
			c0.1-0.6,0-1.2-0.1-1.8l-2.2-0.7c-0.2,0.5-0.3,1-0.4,1.6c-0.1,1.2,0.2,1.9,1,2.2S1261.8,666.5,1261.9,665.5"/>
		<path class="st29" d="M1262.6,662.5c0,0.1-0.1,0.1-0.1,0.1l-5.5-1.7c0,0-0.1-0.1-0.1-0.1c-0.2-0.7-0.3-1.5-0.2-2.3
			c0-1.1,0.8-1.9,1.9-2c0.3,0,0.6,0.1,0.9,0.2l3.6,1.1c0.1,0,0.1,0,0.1,0.1v0.4c0,0.1-0.1,0.1-0.1,0.1l-3.6-1.1
			c-1.3-0.4-2,0.1-2.1,1.3c-0.1,0.6,0,1.1,0.1,1.7l5.2,1.6c0.1,0,0.1,0.1,0.1,0.1c0,0,0,0,0,0L1262.6,662.5z"/>
		<path class="st29" d="M1263.3,657c0,0.1,0,0.1-0.1,0.1l-5.8-1.8c-0.1,0-0.1-0.1-0.1-0.1l0.1-0.4c0-0.1,0-0.1,0.1-0.1l5.8,1.8
			c0.1,0,0.1,0.1,0.1,0.1c0,0,0,0,0,0L1263.3,657z M1256.3,655c0,0.1-0.1,0.1-0.1,0l-1.4-1.4c0,0,0-0.1,0-0.1l0.1-0.5
			c0-0.1,0.1-0.1,0.1,0l1.4,1.6c0,0,0,0.1,0,0.1L1256.3,655z"/>
		<path class="st29" d="M1263.8,653.8c-0.2,1.3-1.1,2.2-2.4,1.8c-1.1-0.4-1.6-1.5-1.4-2.9c0.1-0.6,0.2-1.1,0.4-1.6l-0.6-0.2
			c-0.9-0.3-1.6,0-1.8,1.2c-0.1,0.7,0,1.3,0.3,1.9c0,0,0,0.1,0,0.1c0,0,0,0,0,0l-0.3,0.1c0,0-0.1,0-0.1,0c-0.3-0.7-0.4-1.5-0.3-2.3
			c0-1,0.7-1.8,1.7-1.8c0.3,0,0.5,0,0.8,0.1l3.6,1.1c0,0,0.1,0,0.1,0.1C1263.9,652.3,1263.9,653,1263.8,653.8 M1263.3,653.7
			c0.1-0.6,0-1.2-0.1-1.8l-2.1-0.7c-0.2,0.5-0.3,1-0.4,1.6c-0.2,1.2,0.2,1.9,1,2.2S1263.2,654.7,1263.3,653.7"/>
		<path class="st29" d="M1264.5,648.6c0,1-0.9,1.9-1.9,1.9c-0.2,0-0.5,0-0.7-0.1l-1.9-0.6c-1.2-0.4-2-1.6-1.8-2.9
			c0.1-0.7,0.4-1.3,0.9-1.8c0,0,0.1,0,0.1,0c0,0,0,0,0,0l0.3,0.3c0,0,0,0.1,0,0.2c-0.4,0.4-0.7,0.9-0.7,1.4c-0.2,1,0.4,1.9,1.3,2.2
			l1.9,0.6c0.7,0.3,1.5,0,1.8-0.6c0.1-0.2,0.1-0.4,0.1-0.6c0-0.6-0.1-1.3-0.4-1.8c0,0,0-0.1,0-0.1l0.3-0.1c0,0,0.1,0,0.1,0
			c0,0,0,0,0,0C1264.4,647.1,1264.5,647.9,1264.5,648.6"/>
		<path class="st29" d="M1265,644.3c0,1.1-0.9,1.9-2,1.9c-0.2,0-0.5-0.1-0.7-0.1l-1.8-0.5c-1.3-0.4-2.1-1.7-1.9-3.1
			c0-1.1,0.9-1.9,1.9-1.9c0.2,0,0.5,0,0.7,0.1l1.7,0.5C1264.4,641.6,1265.2,642.9,1265,644.3 M1264.4,644.1c0.2-1-0.5-2.1-1.5-2.3
			l-1.8-0.5c-0.7-0.3-1.5,0-1.8,0.7c-0.1,0.2-0.1,0.4-0.1,0.6c-0.2,1,0.5,2,1.5,2.3l1.7,0.5c0.7,0.4,1.5,0.1,1.8-0.6
			C1264.4,644.6,1264.5,644.4,1264.4,644.1"/>
		<path class="st29" d="M1265.6,639.3c-0.1,0.8-0.4,1.5-1,2.1c0,0-0.1,0-0.1,0c0,0,0,0,0,0l-0.3-0.2c0,0,0-0.1,0-0.1c0,0,0,0,0,0
			c0.5-0.5,0.8-1.1,0.9-1.8c0.1-1-0.2-1.8-0.9-2s-1.1,0.4-1.4,1.3s-1,2-2.2,1.6c-1-0.3-1.3-1.4-1.2-2.6c0.1-0.7,0.4-1.4,0.8-1.9
			c0,0,0.1,0,0.1,0l0.3,0.3c0,0,0,0.1,0,0.1c-0.4,0.5-0.6,1-0.7,1.6c-0.1,0.9,0.2,1.7,0.8,1.9s1.2-0.6,1.5-1.4
			c0.4-1.1,1-1.9,2.1-1.6S1265.8,638,1265.6,639.3"/>
		<path class="st30" d="M1257.8,580.7c0,0,7.9,6.3,13.1,5c5.2-1.3,5.5,6.4-0.1,8.7C1265.1,596.8,1257.8,580.7,1257.8,580.7z"/>
		<path class="st30" d="M1251,564.1c0.1-0.3,0.2-0.3,0.2-0.3c1.4-1.2,7.7,6.3,10.6,6.3c3.7,0,4.7-2.6,4.7-2.6c0.4,1.1,2,5.8,0,10.6
			c-2.9,6.6-11.1,9-14.7,6.5c-2.3-1.6-4.3-6.2-4.3-6.2l0,0c0,0,4.3-2.8,4.8-3.8s1.3-3.2,0.3-4.4c-0.7-0.9-2.2-1-3.6-0.3
			C1249.5,567.8,1250.1,565.9,1251,564.1z"/>
		<path class="st20" d="M1381.3,848.9c-1.5,3.8-3.4,7.4-5.7,10.7l0,0l-21.2,0.9c3.5-3.5,6.6-7.4,9.2-11.7L1381.3,848.9z"/>
		<path class="st31" d="M1920,917v163H0v-21.8c8.5-2.3,16.5-4.3,24-6.2l3-0.7l0.6-0.2c9.3-2.3,17.5-4.2,24.2-5.7l5.8-1.3l5.8-1.3
			c2.4-0.5,4.3-0.9,5.5-1.2c3.2-0.7,6.4-1.3,9.6-2c1.8-0.4,3.7-0.7,5.5-1.1l5.5-1c4.9-0.9,9.8-1.8,14.7-2.7c2.8-0.5,5.6-1,8.4-1.4
			c2.8-0.5,5.6-0.9,8.4-1.4c5.4-0.9,10.8-1.7,16.2-2.5l6.4-0.9c2.1-0.3,4.3-0.6,6.4-0.9c12.6-1.7,24.9-3.1,37.1-4.3
			c1.7-0.2,3.4-0.3,5.1-0.5l5.1-0.5c43.6-3.8,87.3-5.2,131-4c93.2,2.4,169.9,15,226.6,23c30.3,4.3,185.2,25.2,403.2,25.7h3.5
			c118.7,0.3,237.3-5.8,355.3-18.3c5.3-0.6,10.7-1.1,16-1.8l0,0l11.9-1.4l3.3-0.4c53.1-6.2,107.5-14,162.5-23.7
			c4.6-0.8,9.2-1.6,13.9-2.5c4.2-0.8,8.4-1.5,12.7-2.3c30.4-5.6,62.7-12.2,96.9-19.8l3-0.7c23-5.2,46.8-10.8,71.4-17l5.9-1.5
			c35.3-9,72-19.2,110.2-30.6l6.8-2l0,0c6.1-1.8,12.2-3.7,18.4-5.6l0.4-0.1c22.1-6.8,44.5-14.1,67.4-21.8L1920,917z"/>
		<g class="st12">
			
				<ellipse transform="matrix(0.6963 -0.7178 0.7178 0.6963 -499.8387 550.047)" class="st13" cx="400" cy="865.7" rx="1.7" ry="1.8"/>
			
				<ellipse transform="matrix(0.6963 -0.7178 0.7178 0.6963 -553.3096 499.7265)" class="st13" cx="313.8" cy="903.7" rx="1.7" ry="1.8"/>
			
				<ellipse transform="matrix(0.6963 -0.7178 0.7178 0.6963 -535.8834 538.5419)" class="st13" cx="368.4" cy="902.5" rx="0.8" ry="0.9"/>
			
				<ellipse transform="matrix(0.6963 -0.7178 0.7178 0.6963 -481.3923 598.6951)" class="st13" cx="466.8" cy="868.2" rx="0.8" ry="0.9"/>
			
				<ellipse transform="matrix(9.445579e-02 -0.9955 0.9955 9.445579e-02 -395.6515 1124.7926)" class="st13" cx="420.5" cy="779.9" rx="1.8" ry="1.7"/>
			
				<ellipse transform="matrix(9.445579e-02 -0.9955 0.9955 9.445579e-02 -437.971 1075.0259)" class="st13" cx="371.9" cy="778.3" rx="0.9" ry="0.8"/>
			
				<ellipse transform="matrix(9.445579e-02 -0.9955 0.9955 9.445579e-02 -413.0643 1212.9161)" class="st13" cx="460.2" cy="833.5" rx="0.9" ry="0.8"/>
			
				<ellipse transform="matrix(0.6963 -0.7178 0.7178 0.6963 -586.2051 559.543)" class="st14" cx="368.1" cy="972.5" rx="0.8" ry="0.9"/>
			
				<ellipse transform="matrix(0.6963 -0.7178 0.7178 0.6963 -581.9009 625.3867)" class="st14" cx="448" cy="1000.3" rx="0.8" ry="0.9"/>
			
				<ellipse transform="matrix(0.6963 -0.7178 0.7178 0.6963 -559.9247 573.064)" class="st14" cx="397.2" cy="948.2" rx="1.7" ry="1.8"/>
		</g>
		<path class="st21" d="M1302.9,877.6c0,0,5.2-7.6,11.5-6.6c6.3,1,7.4,4.4,7.4,4.4S1315.1,887.5,1302.9,877.6z"/>
		<path class="st21" d="M1249.6,894.4c0,0,6.3-18.2,11.4-16.6c5.1,1.6,6.6,11.6,6.6,11.6S1264.5,899.9,1249.6,894.4z"/>
		<path class="st21" d="M1322.7,876.8c0,0-11.6-15.4-15.9-12.3s-2.7,13-2.7,13S1310.3,886.7,1322.7,876.8z"/>
	</g>
</g>
</svg>
