<svg xmlns="http://www.w3.org/2000/svg" viewBox="0 0 493.51 148.59"><defs><style>.cls-1{fill:#eaeaea;}.cls-2{fill:#a9c71b;}.cls-3{fill:#adc913;}.cls-4{fill:#95ad22;}.cls-5{fill:#afca0b;}</style></defs><title>logo-rodape</title><g id="Camada_2" data-name="Camada 2"><g id="Camada_1-2" data-name="Camada 1"><path class="cls-1" d="M143.35,79.57c-14.35,0-22.57-9.42-19.94-24.55l2.41-13.81c2.41-13.15,13-21.15,26.41-21.15a28.24,28.24,0,0,1,16.88,5.48,1.39,1.39,0,0,1,.22,2.19l-4.93,6.36a1.55,1.55,0,0,1-2.19.22,19.52,19.52,0,0,0-10.64-3.18c-7.12,0-11.94,4.27-13.15,11L136,55.9c-1.53,8.33,2.3,12.6,8.66,12.6a24,24,0,0,0,12.93-4.16,1.42,1.42,0,0,1,2.19.55L163.52,72A1.59,1.59,0,0,1,163,74.2a36.61,36.61,0,0,1-19.62,5.37"/><path class="cls-1" d="M166,78.26a1.34,1.34,0,0,1-1.42-1.65l9-50.74a2,2,0,0,1,1.32-1.65,46.12,46.12,0,0,1,18.85-4.16,64.54,64.54,0,0,1,10.08.87,1.55,1.55,0,0,1,1.32,1.87l-1.43,7.89c-.11,1-.76,1.42-1.86,1.31a65,65,0,0,0-8.55-.54A21.87,21.87,0,0,0,184.89,33l-7.67,43.84a1.51,1.51,0,0,1-1.64,1.43Z"/><path class="cls-1" d="M198.92,78.26c-1.1,0-1.64-.66-1.42-1.65L207,22.8a1.76,1.76,0,0,1,1.65-1.43h9.53a1.35,1.35,0,0,1,1.43,1.76l-9.54,53.7a1.58,1.58,0,0,1-1.64,1.43Zm16.33-64a6.44,6.44,0,0,1-6.47-8A7.64,7.64,0,0,1,216.35,0c4.38,0,7.34,3.4,6.46,8a7.64,7.64,0,0,1-7.56,6.25"/><path class="cls-1" d="M248.35,20.06c17.1,0,23.24,11.51,21,25.21l-2,11.72c-2.19,13.49-12.16,22.58-25.65,22.58a26,26,0,0,1-12.27-2.85l-3,16.75-12.83,1,12.08-67.78a2.49,2.49,0,0,1,1.1-1.64c5.7-3.07,14.69-5,21.48-5m8.44,24.11c1.75-10-1.64-13-9.54-13a20.34,20.34,0,0,0-10.08,2.52l-5.81,32.11a20,20,0,0,0,10.09,2.74c7.34,0,11.94-4.27,13.37-12.6Z"/><path class="cls-1" d="M288.57,33.21,284,59.4c-1,6,1,9.1,5.92,9.1h3.73c1-.11,1.53.44,1.31,1.54l-1.31,7.78a1.65,1.65,0,0,1-1.54,1.53c-1.31.11-3.07.22-4.16.22-10.42,0-19.07-6.14-16.44-21.15L280.35,9.1A1.51,1.51,0,0,1,282,7.67h7.67c1,0,1.64.55,1.54,1.54l-.88,13.15h10.08A1.21,1.21,0,0,1,301.73,24l-1.32,7.78a1.58,1.58,0,0,1-1.64,1.43Z"/><path class="cls-1" d="M317.07,79.57c-13.92,0-22.36-10.63-19.95-23.89l2.63-14.8c2.2-12.16,13.05-20.82,27.19-20.82,14.9,0,22.46,11.62,20.27,23.56l-2.74,14.91c-2.52,13.15-12.82,21-27.4,21m1.32-11.18c7.56,0,12.38-4,13.48-10.63l2.63-15c1.09-6.14-1.76-11.62-8.88-11.62s-12.06,4.38-13.26,10.74l-2.63,15c-1.21,6.91,1.64,11.51,8.66,11.51"/><path class="cls-2" d="M356.2,45.9a.17.17,0,0,1-.18-.22l2.25-12.62a.2.2,0,0,1,.22-.18h4.23c2.6,0,3.47,1.64,3.15,3.55a3.28,3.28,0,0,1-2,2.55c1.32.51,1.79,1.66,1.52,3.18-.42,2.52-2.28,3.74-5,3.74Zm1.57-1.4h2.8A3,3,0,0,0,363.83,42c.22-1.4-.42-2.25-2.17-2.25h-3Zm1.09-6.16h2.91a2.5,2.5,0,0,0,2.58-2.09c.19-1.13-.23-2-1.92-2h-2.84Z"/><path class="cls-2" d="M370,45.71a.22.22,0,0,1-.22.19h-1.15a.18.18,0,0,1-.18-.22l2.24-12.62a.2.2,0,0,1,.22-.18H372a.17.17,0,0,1,.18.22Z"/><path class="cls-2" d="M384.45,32.88a.17.17,0,0,1,.18.22l-.18,1a.22.22,0,0,1-.22.2h-3.71l-2,11.43a.22.22,0,0,1-.22.19h-1.15a.17.17,0,0,1-.18-.22l2-11.4h-3.66a.17.17,0,0,1-.18-.22l.18-1a.2.2,0,0,1,.22-.18Z"/><path class="cls-2" d="M389.22,46.1c-2.47,0-4.15-1.71-3.62-4.7l.76-4.4a5,5,0,0,1,5.12-4.32A5.59,5.59,0,0,1,395.1,34a.16.16,0,0,1,0,.27l-.73.85a.17.17,0,0,1-.27,0,4.3,4.3,0,0,0-2.79-1,3.43,3.43,0,0,0-3.46,3.11l-.72,4.28c-.33,1.84.52,3.19,2.4,3.19a5.79,5.79,0,0,0,3.37-1.22.15.15,0,0,1,.27,0l.49.93c.07.11.06.2,0,.26A7.46,7.46,0,0,1,389.22,46.1Z"/><path class="cls-2" d="M401,46.1c-3,0-4.4-2.11-3.91-5l.65-3.82a5.3,5.3,0,0,1,5.55-4.59c3.12,0,4.48,2.17,4,4.93l-.65,3.88A5.35,5.35,0,0,1,401,46.1Zm.18-1.42a3.75,3.75,0,0,0,3.88-3.26l.69-4c.33-1.93-.58-3.37-2.62-3.37a3.7,3.7,0,0,0-3.84,3.31l-.67,3.84C398.29,43.2,399.25,44.68,401.18,44.68Z"/><path class="cls-2" d="M411.41,45.71a.21.21,0,0,1-.21.19h-1.15a.17.17,0,0,1-.18-.22l2.24-12.62a.19.19,0,0,1,.21-.18h1.13c.15,0,.2.09.18.22Z"/><path class="cls-2" d="M415.86,45.68l2.22-12.62a.19.19,0,0,1,.21-.18h1.33a.21.21,0,0,1,.22.15l2.88,7.3c.42,1.07.82,2.2,1.22,3.27H424c.24-1.6.49-3.49.79-5.11l1-5.43a.2.2,0,0,1,.22-.18h1.13a.18.18,0,0,1,.18.22l-2.22,12.61a.22.22,0,0,1-.22.19h-1.31a.28.28,0,0,1-.24-.15l-2.89-7c-.42-1.07-.86-2.33-1.22-3.42h0c-.22,1.56-.51,3.42-.8,5l-.95,5.37a.2.2,0,0,1-.21.19H416C415.89,45.9,415.84,45.81,415.86,45.68Z"/><path class="cls-2" d="M356.91,67.14c-2.48,0-4.15-1.71-3.62-4.69l.76-4.41a5,5,0,0,1,5.12-4.31A5.6,5.6,0,0,1,362.79,55a.16.16,0,0,1,0,.27l-.73.86a.17.17,0,0,1-.27,0,4.32,4.32,0,0,0-2.79-1,3.42,3.42,0,0,0-3.46,3.11l-.73,4.28c-.32,1.83.53,3.18,2.41,3.18a5.69,5.69,0,0,0,3.36-1.22.16.16,0,0,1,.28.06l.49.93a.16.16,0,0,1,0,.25A7.34,7.34,0,0,1,356.91,67.14Z"/><path class="cls-2" d="M364.66,66.94a.17.17,0,0,1-.18-.22l2.22-12.61a.2.2,0,0,1,.22-.18h3.9c2.76,0,4,1.87,3.64,4.29a4.15,4.15,0,0,1-3.86,3.55l2.66,4.94c.07.14,0,.23-.15.23h-1.29a.23.23,0,0,1-.24-.13l-2.58-5h-2.11l-.86,4.9a.2.2,0,0,1-.22.18Zm2.48-6.46h2.51c1.86,0,3-.86,3.26-2.42.29-1.79-.45-2.73-2.33-2.73H368Z"/><path class="cls-2" d="M378.23,66.76a.22.22,0,0,1-.22.18h-1.15a.17.17,0,0,1-.18-.22l2.24-12.61a.2.2,0,0,1,.22-.18h1.13a.17.17,0,0,1,.18.21Z"/><path class="cls-2" d="M389,53.93c2.68,0,4.28,1.85,3.81,4.46s-2.15,4-5.19,4H385l-.78,4.41a.21.21,0,0,1-.22.18h-1.15c-.15,0-.2-.09-.18-.22l2.24-12.61c0-.11.09-.18.22-.18Zm2.28,4.33c.33-1.93-.62-2.95-2.48-2.95h-2.56l-1,5.66h2.55C389.82,61,391,60,391.28,58.26Z"/><path class="cls-2" d="M404.59,53.93a.17.17,0,0,1,.18.21l-.18,1a.22.22,0,0,1-.22.2h-3.72l-2,11.43a.21.21,0,0,1-.22.18h-1.14c-.15,0-.2-.09-.18-.22l2-11.39h-3.65a.18.18,0,0,1-.19-.22l.19-1a.19.19,0,0,1,.21-.18Z"/><path class="cls-2" d="M409.68,67.14c-3,0-4.4-2.11-3.91-5l.66-3.83A5.29,5.29,0,0,1,412,53.73c3.11,0,4.48,2.16,4,4.93l-.65,3.88A5.33,5.33,0,0,1,409.68,67.14Zm.19-1.42a3.73,3.73,0,0,0,3.87-3.26l.69-4c.33-1.93-.58-3.36-2.62-3.36A3.7,3.7,0,0,0,408,58.46l-.67,3.84C407,64.25,407.94,65.72,409.87,65.72Z"/><path class="cls-2" d="M418.53,66.72l2.22-12.61a.18.18,0,0,1,.2-.18h1.37a.21.21,0,0,1,.22.16L424,58.75c.36,1.15.75,2.44,1,3.42h0c.58-1,1.31-2.16,2-3.17l3.39-5a.28.28,0,0,1,.25-.12h1.37a.17.17,0,0,1,.18.21L430,66.76a.2.2,0,0,1-.22.18h-1.13a.17.17,0,0,1-.18-.22l.87-5c.28-1.62.62-3.59.95-5.23h-.06c-.54.91-1.18,1.93-1.85,3l-2.91,4.39a.26.26,0,0,1-.22.14h-.93a.21.21,0,0,1-.22-.16l-1.44-4.57c-.29-1-.56-1.9-.8-2.77h-.05c-.28,1.69-.62,3.71-.91,5.39l-.84,4.86a.22.22,0,0,1-.22.18h-1.15A.17.17,0,0,1,418.53,66.72Z"/><path class="cls-2" d="M438.76,67.14c-3,0-4.41-2.11-3.92-5l.66-3.83a5.29,5.29,0,0,1,5.55-4.58c3.11,0,4.48,2.16,4,4.93l-.66,3.88A5.33,5.33,0,0,1,438.76,67.14Zm.18-1.42a3.75,3.75,0,0,0,3.88-3.26l.69-4c.32-1.93-.59-3.36-2.62-3.36A3.7,3.7,0,0,0,437,58.46l-.67,3.84C436,64.25,437,65.72,438.94,65.72Z"/><path class="cls-2" d="M457.09,55.13a.23.23,0,0,1-.22.2h-5.7l-.74,4.28h5.27a.18.18,0,0,1,.19.21l-.19,1a.19.19,0,0,1-.21.18h-5.3l-.8,4.55h5.86c.13,0,.18.07.18.2l-.18,1c0,.11-.09.18-.22.18H447.8a.18.18,0,0,1-.18-.22l2.24-12.61a.2.2,0,0,1,.22-.18h7c.13,0,.18.09.16.21Z"/><path class="cls-2" d="M459.15,66.94c-.15,0-.2-.09-.19-.22l2.22-12.61a.21.21,0,0,1,.22-.18h4.26c2.7,0,4.23,1.87,3.7,4.75l-.66,3.8c-.53,2.91-2.24,4.46-5.22,4.46Zm1.56-1.4h2.86a3.43,3.43,0,0,0,3.59-3.2l.65-3.81c.38-2.16-.44-3.2-2.33-3.2h-3Z"/><path class="cls-2" d="M479.52,66.94a.2.2,0,0,1-.22-.18l-.48-3.24h-5.06l-1.63,3.28a.3.3,0,0,1-.26.14H470.6c-.17,0-.2-.09-.15-.23l6.46-12.64a.26.26,0,0,1,.26-.14h1.42a.19.19,0,0,1,.22.18l2.05,12.61a.17.17,0,0,1-.18.22Zm-1.92-11.3-3.16,6.5h4.17l-.95-6.5Z"/><path class="cls-2" d="M487.62,67.14a5.8,5.8,0,0,1-4.26-1.71.19.19,0,0,1,0-.29l.67-.78a.21.21,0,0,1,.29,0,5.26,5.26,0,0,0,3.41,1.38,3,3,0,0,0,3.22-2.2c.27-1.57-1.33-2.13-2.77-2.57-1.62-.51-3.8-1.56-3.33-4.2.42-2.21,2.37-3,4.63-3a5.78,5.78,0,0,1,4,1.43.18.18,0,0,1,0,.28l-.69.8c-.07.11-.17.11-.27,0a5.22,5.22,0,0,0-3.21-1.12c-1.38,0-2.69.51-3,1.85-.29,1.59,1,2.13,2.46,2.55,1.8.53,4.13,1.57,3.66,4.22S489.82,67.14,487.62,67.14Z"/><path class="cls-1" d="M178.52,90.7c14.12,0,21,8.3,18.54,22.1l-6,33.74a1,1,0,0,1-1.08.86h-3.78c-.64,0-1-.32-.86-1l6-34.06c2.15-11.32-2.7-16.71-13.26-16.61a30.58,30.58,0,0,0-14.12,4c1.4,3.24,1.61,7.23.75,12l-6.25,34.82a.88.88,0,0,1-1,.86h-3.88c-.54,0-.86-.32-.76-1l6.26-35.14c1.72-9.92-1.51-15.53-11.32-15.53a36.65,36.65,0,0,0-13.48,2.81l-8.62,48a1,1,0,0,1-1.08.86h-3.77c-.65,0-1-.32-.76-1l9.06-50.77a1.43,1.43,0,0,1,.86-1.08,46.05,46.05,0,0,1,18.22-3.88c6,0,10.35,1.72,13.15,4.74a37.7,37.7,0,0,1,17.14-4.74"/><path class="cls-1" d="M215.82,148.59c-12,0-21-7.12-18.76-19.08,2.05-10.35,11.32-15.53,24.26-15.53a63.8,63.8,0,0,1,15,1.84l1-5.83c1.62-8.62-1.4-14.22-12.61-14.22A33.73,33.73,0,0,0,208,100.4c-.43.32-1,.22-1.08-.32l-1.29-2.91a1,1,0,0,1,.21-1.19,38,38,0,0,1,19.84-5.28c13.58,0,19.51,8.19,17.35,19.73l-5.82,33.2a1.71,1.71,0,0,1-.75,1,60.19,60.19,0,0,1-20.59,4m.43-5.18a46.94,46.94,0,0,0,15.63-2.69l3.56-19.84a66.65,66.65,0,0,0-14.34-1.83c-10.56,0-17,4-18.33,11.1-1.61,8.41,4.1,13.26,13.48,13.26"/><path class="cls-1" d="M244,147.4c-.54,0-.86-.32-.75-1l9.16-50.77c0-.54.33-.76.76-1a54.91,54.91,0,0,1,20.05-4c14.23,0,21.56,8.19,18.76,23L286,146.54a.88.88,0,0,1-1,.86h-3.78c-.64,0-1-.32-.86-1l5.93-33.2c2.26-12.18-2.91-17.47-13.69-17.47a44.65,44.65,0,0,0-15.09,2.81l-8.74,48a.88.88,0,0,1-1,.86Z"/><path class="cls-1" d="M293.86,147.4c-.53,0-.86-.32-.75-1l9.59-53.68a.89.89,0,0,1,1-.87h3.89c.53,0,.86.33.75,1l-9.59,53.69a.88.88,0,0,1-1,.86ZM304.5,86.68c-.76,0-1-.53-.54-1.07l11.21-14.45a1.19,1.19,0,0,1,1.08-.54h4.31c.75,0,1,.43.43,1.08l-12.4,14.45a1.31,1.31,0,0,1-1.08.53Z"/><path class="cls-1" d="M324.05,148.59c-12,0-21-7.12-18.76-19.08,2-10.35,11.32-15.53,24.26-15.53a63.8,63.8,0,0,1,15,1.84l1-5.83c1.62-8.62-1.4-14.22-12.61-14.22a33.73,33.73,0,0,0-16.71,4.63c-.43.32-1,.22-1.08-.32l-1.29-2.91A1,1,0,0,1,314,96a38,38,0,0,1,19.84-5.28c13.58,0,19.51,8.19,17.35,19.73l-5.82,33.2a1.71,1.71,0,0,1-.75,1,60.19,60.19,0,0,1-20.59,4m.43-5.18a46.89,46.89,0,0,0,15.63-2.69l3.56-19.84a66.56,66.56,0,0,0-14.34-1.83c-10.56,0-17,4-18.32,11.1-1.62,8.41,4.09,13.26,13.47,13.26"/><path class="cls-1" d="M371.16,148.59c-13.37,0-20.27-9-18.11-21.24l3.23-17.68c1.94-11.21,11.1-19,23.72-19a26.65,26.65,0,0,1,16.49,5.71.77.77,0,0,1,.11,1.19l-2.05,2.69a.88.88,0,0,1-1.29.22,21.34,21.34,0,0,0-13.59-4.75c-9.81,0-16.27,6-17.78,14.23l-3.13,17.79c-1.72,9.38,3.13,15.74,12.94,15.74,4.63,0,11.1-2.16,15.95-5.71a.78.78,0,0,1,1.19.21l1.61,3c.22.54.22.86-.32,1.19a32.65,32.65,0,0,1-19,6.36"/><path class="cls-1" d="M411.26,148.59c-13.8,0-20.48-9.81-18.33-21.67l2.91-16.17c2.05-11.43,11.54-20,25.23-20,14.23,0,20.48,10,18.43,21.34l-2.91,16.07c-2.26,12-11.53,20.48-25.33,20.48m.43-5.18c10.89,0,17.57-6.68,19.19-15.74l2.91-16.17c1.51-8.62-2.48-15.73-13.26-15.73-10.56,0-17.46,6.79-19.08,15.52l-2.8,16.06c-1.62,9.27,2.48,16.06,13,16.06"/><path class="cls-1" d="M456.32,148.59a28.88,28.88,0,0,1-19.73-7.12.89.89,0,0,1-.11-1.29l1.84-2.59a.82.82,0,0,1,1.29-.21,24.78,24.78,0,0,0,17.14,6.14c9.16,0,15.63-3.77,16.82-10.24,1.4-7.44-4.85-9.49-13.15-11.54-7.55-2-19-6.57-17-17.46C445,95.12,454.7,90.7,465.59,90.7A31.81,31.81,0,0,1,483.48,96a.71.71,0,0,1,.11,1.19l-2,2.91a1.14,1.14,0,0,1-1.29.21,27,27,0,0,0-15.31-4.53c-8.19,0-15,3.24-15.95,9.38-1.3,7.23,6.68,9.92,13.69,11.65,10.13,2.58,18.43,7,16.6,17.14-1.72,9.48-11,14.66-23,14.66"/><path class="cls-3" d="M83,19.88C78.42,8.66,63.28,4.11,48.4,9.09c8.11-2.2,16-.23,19.62,5.58,4.73,7.63.23,19-10.07,25.36s-22.47,5.37-27.2-2.25c-4.4-7.11-.79-17.46,8-24-11.06,7.4-16.52,19.37-12.47,29.28A19.52,19.52,0,0,0,36.55,53.3c3.14,1.45,12.54-5,16.37-4.77,3.09.17.53,7.18,3.8,6.48a40.93,40.93,0,0,0,6.72-2.09c15.65-6.4,24.41-21.2,19.56-33"/><path class="cls-3" d="M80.07,59.82s12.84,1.43,26.6-7.72a156.15,156.15,0,0,0-21-9.65L69,49s-21.31-4.28-33.81,0c0,0-4.7,2.18-6.72,5.2s-1.76,7.21-5.37,10.91c-2.95,3-17,10.31-22,12.86a2,2,0,0,0-.9,2.75c1.66,3.3,5.3,9.61,10.12,11.49,0,0,4.65-1.46,4.29-8.75a.36.36,0,0,1,.7-.16c.91,2.2,1.77,6.36-1.64,11,0,0,7.89,3.61,13.09,2.43s27.95-9.82,41.29.25,21,40.45-11.92,49.6c0,0,34.07-1.26,46.07-31.47S98.11,62,98.11,62s-11.33,1.18-18-2.18m-30.71-2.1L38.78,62.09V57.22l13.51-7.47ZM66.14,88.27s12.25-5.21,13.34-22.74l.34,13.09s-5.46,7.55-13.68,9.65"/><path class="cls-3" d="M3.37,85.25c-.17.08.17,8,7,7l3.35,2.1s-3.19,3.94-8.22.5c-4-2.73-3-10.91-3-10.91Z"/><path class="cls-4" d="M68.07,97c-5.23-3.94-11.89-5-18.38-4.79-5,.71-11.12,2.53-15.44,7,0,0,15.11,7.88,9.57,23.91s-22.91,13.34-22.91,13.34,13,11.92,35.24,10.16c32.9-9.15,25.26-39.53,11.92-49.6"/><path class="cls-5" d="M109.12,56.69A1.76,1.76,0,1,1,107.36,55a1.72,1.72,0,0,1,1.76,1.71m-3.08,0a1.32,1.32,0,1,0,1.32-1.37A1.32,1.32,0,0,0,106,56.69m1,.9h-.39V55.88a3.48,3.48,0,0,1,.65-.05,1.12,1.12,0,0,1,.6.12.49.49,0,0,1,.17.38.43.43,0,0,1-.36.39v0a.5.5,0,0,1,.32.41,1.26,1.26,0,0,0,.12.43h-.43a1.5,1.5,0,0,1-.13-.41.31.31,0,0,0-.36-.28h-.19Zm0-1h.19c.22,0,.4-.07.4-.25s-.12-.26-.37-.26l-.22,0Z"/></g></g></svg>