<svg xmlns="http://www.w3.org/2000/svg" viewBox="0 0 195.76 36.73"><defs><style>.cls-1{fill:#fff;}.cls-2,.cls-3{fill:#a9c71b;}.cls-3{font-size:10.17px;font-family:UniNeueRegular-Italic, Uni Neue;font-style:italic;}.cls-4{fill:#adc913;}.cls-5{fill:#95ad22;}</style></defs><title>logo-topo</title><g id="Camada_2" data-name="Camada 2"><g id="Camada_1-2" data-name="Camada 1"><path class="cls-1" d="M39.06,26.5c-3.88,0-6.1-2.54-5.39-6.63l.65-3.72a6.9,6.9,0,0,1,7.13-5.71A7.61,7.61,0,0,1,46,11.92a.37.37,0,0,1,.06.59l-1.33,1.71a.41.41,0,0,1-.59.06,5.31,5.31,0,0,0-2.87-.85,3.39,3.39,0,0,0-3.55,2.95l-.65,3.73c-.42,2.25.62,3.4,2.33,3.4a6.45,6.45,0,0,0,3.49-1.12.39.39,0,0,1,.6.15l1,1.92a.43.43,0,0,1-.15.59,9.83,9.83,0,0,1-5.29,1.45"/><path class="cls-1" d="M45.66,26.15a.37.37,0,0,1-.39-.45L47.7,12a.54.54,0,0,1,.35-.44,12.44,12.44,0,0,1,5.09-1.12,18,18,0,0,1,2.72.23.42.42,0,0,1,.36.51l-.39,2.13c0,.26-.2.38-.5.35A16.88,16.88,0,0,0,53,13.51a5.91,5.91,0,0,0-2.28.42L48.67,25.76a.4.4,0,0,1-.44.39Z"/><path class="cls-1" d="M55,26.15a.34.34,0,0,1-.38-.45l2.57-14.52a.48.48,0,0,1,.45-.39h2.57a.36.36,0,0,1,.39.47L58,25.76a.43.43,0,0,1-.44.39ZM59.41,8.87a1.74,1.74,0,0,1-1.74-2.16,2,2,0,0,1,2-1.69,1.71,1.71,0,0,1,1.74,2.16,2.05,2.05,0,0,1-2,1.69"/><path class="cls-1" d="M68.82,10.44c4.62,0,6.27,3.1,5.68,6.8L74,20.41a6.86,6.86,0,0,1-6.92,6.09,7,7,0,0,1-3.32-.77l-1,5.65a.46.46,0,0,1-.48.39H59.68a.34.34,0,0,1-.36-.44l3.41-19.09A.67.67,0,0,1,63,11.8a13.69,13.69,0,0,1,5.8-1.36M71.1,17c.47-2.7-.45-3.53-2.58-3.53a5.45,5.45,0,0,0-2.72.69l-1.57,8.66a5.4,5.4,0,0,0,2.73.74c2,0,3.22-1.15,3.61-3.4Z"/><path class="cls-1" d="M80.15,14l-1.24,7.07c-.27,1.62.27,2.45,1.6,2.45h1c.27,0,.42.12.36.42L81.51,26a.44.44,0,0,1-.41.41c-.36,0-.83.06-1.13.06-2.81,0-5.14-1.66-4.43-5.71L77.93,7.48a.41.41,0,0,1,.45-.39h2.07c.26,0,.44.15.41.42l-.23,3.55h2.72a.32.32,0,0,1,.35.44l-.35,2.1a.43.43,0,0,1-.45.39Z"/><path class="cls-1" d="M88.32,26.5a5.21,5.21,0,0,1-5.39-6.45l.71-4c.59-3.29,3.52-5.62,7.34-5.62a5.23,5.23,0,0,1,5.47,6.36l-.74,4c-.68,3.55-3.46,5.68-7.39,5.68m.35-3a3.35,3.35,0,0,0,3.64-2.86L93,16.56c.3-1.65-.47-3.14-2.39-3.14a3.48,3.48,0,0,0-3.58,2.91l-.71,4.05c-.33,1.86.44,3.1,2.33,3.1"/><path class="cls-1" d="M113,10.58c3.88,0,5.77,2.28,5.09,6.07l-1.66,9.26a.29.29,0,0,1-.29.24h-1c-.18,0-.27-.09-.24-.27l1.66-9.35c.59-3.1-.74-4.58-3.64-4.55A8.36,8.36,0,0,0,109,13.07a5.67,5.67,0,0,1,.2,3.28l-1.71,9.56a.25.25,0,0,1-.27.24h-1.06c-.15,0-.24-.09-.21-.27l1.72-9.64c.47-2.73-.42-4.26-3.11-4.26a10.13,10.13,0,0,0-3.7.76L98.49,25.91a.28.28,0,0,1-.29.24h-1c-.18,0-.26-.09-.2-.27L99.44,12a.4.4,0,0,1,.24-.3,12.61,12.61,0,0,1,5-1.07,4.71,4.71,0,0,1,3.61,1.31,10.33,10.33,0,0,1,4.7-1.31"/><path class="cls-1" d="M123.08,26.47c-3.28,0-5.77-1.95-5.15-5.23C118.49,18.4,121,17,124.59,17a17.27,17.27,0,0,1,4.11.5l.27-1.6c.44-2.37-.39-3.9-3.46-3.9a9.26,9.26,0,0,0-4.59,1.27c-.12.09-.27.06-.3-.09l-.35-.8a.27.27,0,0,1,.06-.33,10.46,10.46,0,0,1,5.44-1.45c3.73,0,5.36,2.25,4.76,5.42l-1.59,9.11a.48.48,0,0,1-.21.27,16.57,16.57,0,0,1-5.65,1.09m.12-1.42a12.78,12.78,0,0,0,4.29-.74l1-5.44a17.93,17.93,0,0,0-3.93-.5c-2.9,0-4.68,1.09-5,3-.44,2.31,1.12,3.64,3.7,3.64"/><path class="cls-1" d="M130.65,26.15c-.15,0-.23-.09-.2-.27L133,12c0-.15.09-.21.21-.27a15.07,15.07,0,0,1,5.5-1.1c3.91,0,5.92,2.25,5.15,6.31l-1.63,9a.25.25,0,0,1-.27.24h-1c-.18,0-.27-.09-.24-.27l1.63-9.11c.62-3.35-.8-4.8-3.76-4.8a12.1,12.1,0,0,0-4.14.78L132,25.91a.24.24,0,0,1-.26.24Z"/><path class="cls-1" d="M144.2,26.15c-.15,0-.23-.09-.2-.27l2.63-14.73a.25.25,0,0,1,.27-.24H148c.15,0,.24.09.21.27l-2.64,14.73a.24.24,0,0,1-.26.24Zm2.72-17.7c-.2,0-.26-.14-.14-.29l3.07-4a.35.35,0,0,1,.3-.14h1.18c.21,0,.27.12.12.29l-3.4,4a.39.39,0,0,1-.3.14Z"/><path class="cls-1" d="M152.34,26.47c-3.28,0-5.77-1.95-5.15-5.23.56-2.84,3.11-4.26,6.66-4.26a17.34,17.34,0,0,1,4.11.5l.27-1.6c.44-2.37-.39-3.9-3.46-3.9a9.26,9.26,0,0,0-4.59,1.27c-.12.09-.27.06-.3-.09l-.35-.8a.27.27,0,0,1,.06-.33A10.46,10.46,0,0,1,155,10.58c3.73,0,5.36,2.25,4.76,5.42l-1.59,9.11a.48.48,0,0,1-.21.27,16.57,16.57,0,0,1-5.65,1.09m.12-1.42a12.78,12.78,0,0,0,4.29-.74l1-5.44a17.93,17.93,0,0,0-3.93-.5c-2.9,0-4.68,1.09-5,3-.44,2.31,1.12,3.64,3.7,3.64"/><path class="cls-1" d="M165.12,26.47c-3.67,0-5.56-2.45-5-5.83l.89-4.85a6.25,6.25,0,0,1,6.51-5.21,7.34,7.34,0,0,1,4.52,1.57.21.21,0,0,1,0,.33l-.56.74a.24.24,0,0,1-.36.06,5.81,5.81,0,0,0-3.72-1.3,4.67,4.67,0,0,0-4.88,3.9l-.86,4.88c-.48,2.58.86,4.32,3.55,4.32a8.17,8.17,0,0,0,4.38-1.57.21.21,0,0,1,.32.06l.45.83c.05.15.05.24-.09.33a9,9,0,0,1-5.21,1.74"/><path class="cls-1" d="M176,26.47c-3.79,0-5.62-2.69-5-5.94l.8-4.44a6.69,6.69,0,0,1,6.92-5.51c3.9,0,5.62,2.76,5.06,5.86l-.8,4.41a6.71,6.71,0,0,1-7,5.62m.12-1.42a5,5,0,0,0,5.26-4.32l.8-4.44c.41-2.36-.68-4.31-3.64-4.31a5.09,5.09,0,0,0-5.24,4.26l-.76,4.4c-.45,2.55.68,4.41,3.58,4.41"/><path class="cls-1" d="M188.2,26.47a8,8,0,0,1-5.42-1.95.25.25,0,0,1,0-.36l.51-.71a.22.22,0,0,1,.35-.05,6.8,6.8,0,0,0,4.7,1.68c2.52,0,4.29-1,4.62-2.81.38-2-1.33-2.6-3.61-3.16-2.07-.57-5.21-1.81-4.67-4.8.44-2.51,3.1-3.73,6.09-3.73A8.79,8.79,0,0,1,195.65,12a.2.2,0,0,1,0,.33l-.56.8a.32.32,0,0,1-.36.06,7.39,7.39,0,0,0-4.2-1.24c-2.25,0-4.11.88-4.38,2.57-.35,2,1.84,2.72,3.76,3.19,2.78.71,5.06,1.93,4.56,4.71-.48,2.6-3,4-6.3,4"/><path class="cls-2" d="M72.7,36.1a.06.06,0,0,1-.07-.07l.81-4.51a.07.07,0,0,1,.08-.07H75a1,1,0,0,1,1.12,1.27,1.16,1.16,0,0,1-.72.91A.91.91,0,0,1,76,34.77a1.59,1.59,0,0,1-1.8,1.33Zm.56-.5h1a1.06,1.06,0,0,0,1.16-.89c.08-.5-.15-.81-.77-.81H73.56Zm.39-2.2h1a.88.88,0,0,0,.92-.74c.07-.41-.08-.71-.69-.71h-1Z"/><path class="cls-2" d="M78,36a.08.08,0,0,1-.08.06h-.41a.06.06,0,0,1-.07-.07l.8-4.51a.08.08,0,0,1,.08-.07h.4c.06,0,.08,0,.07.08Z"/><path class="cls-2" d="M83.46,31.45a.07.07,0,0,1,.07.08l-.07.35s0,.08-.08.08H82.06L81.33,36a.07.07,0,0,1-.07.06h-.41c-.06,0-.08,0-.07-.07L81.51,32H80.2a.06.06,0,0,1-.06-.08l.06-.36a.08.08,0,0,1,.08-.07Z"/><path class="cls-2" d="M85.5,36.17a1.27,1.27,0,0,1-1.29-1.67l.27-1.58a1.77,1.77,0,0,1,1.83-1.54,2,2,0,0,1,1.29.46s0,.06,0,.1l-.26.3a.07.07,0,0,1-.1,0,1.52,1.52,0,0,0-1-.36A1.23,1.23,0,0,0,85,33l-.26,1.53c-.11.66.19,1.14.86,1.14a2,2,0,0,0,1.2-.44.06.06,0,0,1,.1,0l.18.33s0,.08,0,.09a2.55,2.55,0,0,1-1.58.5"/><path class="cls-2" d="M90,36.18c-1.08,0-1.57-.76-1.39-1.79L88.88,33a1.89,1.89,0,0,1,2-1.64,1.37,1.37,0,0,1,1.43,1.77l-.24,1.38a1.91,1.91,0,0,1-2,1.65m.07-.51a1.33,1.33,0,0,0,1.38-1.17l.25-1.41a.91.91,0,0,0-.94-1.2,1.32,1.32,0,0,0-1.37,1.18l-.24,1.38a.93.93,0,0,0,.92,1.22"/><path class="cls-2" d="M94.09,36s0,.06-.07.06h-.41s-.08,0-.07-.07l.8-4.51a.08.08,0,0,1,.08-.07h.4a.07.07,0,0,1,.07.08Z"/><path class="cls-2" d="M96,36l.8-4.51a.07.07,0,0,1,.08-.07h.47a.08.08,0,0,1,.08.06l1,2.6c.15.39.29.79.43,1.18h0c.09-.58.18-1.25.28-1.83l.34-1.94a.08.08,0,0,1,.08-.07H100a.06.06,0,0,1,.06.08L99.3,36a.08.08,0,0,1-.08.06h-.47a.07.07,0,0,1-.08-.05l-1-2.5c-.15-.38-.3-.83-.43-1.22h0c-.07.56-.18,1.22-.28,1.79L96.56,36s0,.06-.08.06h-.4A.06.06,0,0,1,96,36"/><path class="cls-2" d="M107.1,36.17a1.27,1.27,0,0,1-1.3-1.67l.27-1.58a1.78,1.78,0,0,1,1.83-1.54,2,2,0,0,1,1.3.46s0,.06,0,.1l-.26.3a.06.06,0,0,1-.09,0,1.57,1.57,0,0,0-1-.36A1.23,1.23,0,0,0,106.61,33l-.26,1.53c-.11.66.19,1.14.86,1.14a2.07,2.07,0,0,0,1.21-.44.05.05,0,0,1,.09,0l.18.33s0,.08,0,.09a2.59,2.59,0,0,1-1.58.5"/><path class="cls-2" d="M110.2,36.1a.06.06,0,0,1-.07-.07l.8-4.51a.07.07,0,0,1,.07-.07h1.4A1.22,1.22,0,0,1,113.7,33a1.49,1.49,0,0,1-1.38,1.27l1,1.76s0,.08,0,.08h-.47s-.07,0-.08,0l-.92-1.77H111l-.3,1.75a.08.08,0,0,1-.08.06Zm.88-2.3h.9a1,1,0,0,0,1.16-.87c.11-.64-.16-1-.83-1h-.91Z"/><path class="cls-2" d="M115.38,36a.08.08,0,0,1-.08.06h-.41a.06.06,0,0,1-.07-.07l.8-4.51a.08.08,0,0,1,.08-.07h.4c.06,0,.08,0,.07.08Z"/><path class="cls-2" d="M119.56,31.45a1.29,1.29,0,0,1,1.36,1.6,1.67,1.67,0,0,1-1.86,1.42h-.93L117.85,36a.08.08,0,0,1-.08.06h-.41a.06.06,0,0,1-.07-.07l.8-4.51a.08.08,0,0,1,.08-.07Zm.81,1.55a.8.8,0,0,0-.88-1.05h-.92l-.36,2h.91a1.11,1.11,0,0,0,1.25-1"/><path class="cls-2" d="M125.46,31.45a.06.06,0,0,1,.06.08l-.06.35s0,.08-.08.08h-1.33L123.33,36a.08.08,0,0,1-.08.06h-.41s-.07,0-.06-.07L123.5,32h-1.3a.07.07,0,0,1-.07-.08l.07-.36a.07.07,0,0,1,.08-.07Z"/><path class="cls-2" d="M127.62,36.18a1.36,1.36,0,0,1-1.4-1.79l.23-1.37a1.9,1.9,0,0,1,2-1.64,1.37,1.37,0,0,1,1.43,1.77l-.24,1.38a1.9,1.9,0,0,1-2,1.65m.06-.51a1.34,1.34,0,0,0,1.39-1.17l.24-1.41c.12-.69-.21-1.2-.93-1.2A1.33,1.33,0,0,0,127,33.07l-.24,1.38c-.11.69.23,1.22.92,1.22"/><path class="cls-2" d="M131.11,36l.8-4.51a.07.07,0,0,1,.07-.07h.49s.06,0,.08.06l.53,1.67c.13.41.26.87.36,1.22h0c.21-.35.47-.77.71-1.13l1.21-1.77a.11.11,0,0,1,.09-.05H136a.06.06,0,0,1,.06.08L135.22,36a.07.07,0,0,1-.08.06h-.4c-.06,0-.07,0-.07-.07l.31-1.79c.1-.58.23-1.28.34-1.87h0c-.19.33-.42.69-.66,1.07l-1,1.56a.09.09,0,0,1-.08.06h-.33a.08.08,0,0,1-.08-.06l-.51-1.63c-.11-.34-.2-.68-.29-1h0L132,34.3l-.3,1.74a.08.08,0,0,1-.08.06h-.41a.06.06,0,0,1-.07-.07"/><path class="cls-2" d="M138.67,36.18c-1.08,0-1.57-.76-1.4-1.79l.24-1.37a1.89,1.89,0,0,1,2-1.64,1.37,1.37,0,0,1,1.43,1.77l-.24,1.38a1.91,1.91,0,0,1-2,1.65m.07-.51a1.33,1.33,0,0,0,1.38-1.17l.25-1.41a.91.91,0,0,0-.94-1.2,1.32,1.32,0,0,0-1.37,1.18l-.24,1.38a.93.93,0,0,0,.92,1.22"/><path class="cls-2" d="M145.55,31.88a.08.08,0,0,1-.08.07h-2l-.27,1.53h1.89a.06.06,0,0,1,.06.08l-.06.35A.08.08,0,0,1,145,34h-1.89l-.29,1.62h2.1s.06,0,.06.08l-.06.36s0,.06-.08.06h-2.58c-.05,0-.08,0-.07-.07l.8-4.51a.08.08,0,0,1,.08-.07h2.5a.06.06,0,0,1,.06.08Z"/><path class="cls-2" d="M146.63,36.1c-.06,0-.08,0-.07-.07l.79-4.51a.08.08,0,0,1,.08-.07H149a1.29,1.29,0,0,1,1.32,1.7L150,34.51a1.73,1.73,0,0,1-1.87,1.59Zm.56-.5h1a1.22,1.22,0,0,0,1.28-1.14l.23-1.36c.14-.77-.15-1.14-.83-1.14h-1.06Z"/><path class="cls-2" d="M154.24,36.1s-.08,0-.08-.06L154,34.88h-1.81l-.59,1.17s-.05.05-.09.05h-.45c-.06,0-.07,0-.05-.08l2.31-4.51a.09.09,0,0,1,.09-.06h.5s.08,0,.08.07l.74,4.51a.06.06,0,0,1-.07.07Zm-.69-4-1.13,2.33h1.49l-.34-2.33Z"/><path class="cls-2" d="M157.47,36.17a2,2,0,0,1-1.52-.61.06.06,0,0,1,0-.1l.24-.28a.08.08,0,0,1,.1,0,1.9,1.9,0,0,0,1.22.5,1.07,1.07,0,0,0,1.15-.79c.1-.56-.47-.76-1-.92s-1.36-.56-1.19-1.5.85-1.08,1.65-1.08a2.06,2.06,0,0,1,1.42.52.06.06,0,0,1,0,.09l-.25.29s-.06,0-.1,0a1.84,1.84,0,0,0-1.14-.4c-.5,0-1,.18-1.06.66s.36.76.88.91,1.48.56,1.31,1.51a1.55,1.55,0,0,1-1.73,1.2"/><text class="cls-3" transform="translate(102.19 34.23)">.</text><path class="cls-4" d="M20.48,3.16C19.35.39,15.61-.73,11.94.5c2-.55,4-.06,4.84,1.37,1.17,1.88.06,4.69-2.48,6.26S8.76,9.46,7.59,7.57s-.2-4.3,2-5.92C6.85,3.48,5.5,6.43,6.5,8.88A4.78,4.78,0,0,0,9,11.4c.77.36,3.09-1.22,4-1.17.76,0,.13,1.77.94,1.6a9.53,9.53,0,0,0,1.65-.52c3.87-1.58,6-5.23,4.83-8.15"/><path class="cls-4" d="M19.76,13a10.77,10.77,0,0,0,6.56-1.9,38.12,38.12,0,0,0-5.17-2.38L17,10.34s-5.25-1.05-8.34,0A4.75,4.75,0,0,0,7,11.63c-.49.74-.43,1.78-1.32,2.69A37.82,37.82,0,0,1,.28,17.49a.51.51,0,0,0-.23.68C.47,19,1.36,20.54,2.55,21c0,0,1.15-.36,1.06-2.16a.09.09,0,0,1,.17,0,2.66,2.66,0,0,1-.4,2.71,6.52,6.52,0,0,0,3.23.6c1.28-.29,6.89-2.42,10.19.07s5.17,10-2.94,12.23c0,0,8.4-.31,11.36-7.76a14.51,14.51,0,0,0-1-13.11A10,10,0,0,1,19.76,13m-7.58-.51L9.57,13.57v-1.2l3.33-1.84ZM16.32,20s3-1.28,3.29-5.61l.09,3.23A6.87,6.87,0,0,1,16.32,20"/><path class="cls-4" d="M.83,19.29s0,2,1.72,1.72l.83.51a1.45,1.45,0,0,1-2,.13C.36,21,.6,19,.6,19Z"/><path class="cls-5" d="M16.8,22.19A7,7,0,0,0,12.26,21a6.66,6.66,0,0,0-3.81,1.72s3.73,2,2.36,5.91-5.65,3.29-5.65,3.29a12,12,0,0,0,8.7,2.5c8.11-2.25,6.23-9.75,2.94-12.23"/></g></g></svg>