<svg xmlns="http://www.w3.org/2000/svg" viewBox="0 0 81.56 106.75"><defs><style>.cls-1{fill:#adc913;}.cls-2{fill:#95ad22;}</style></defs><title>simbolo-logo</title><g id="Camada_2" data-name="Camada 2"><g id="Camada_1-2" data-name="Camada 1"><path class="cls-1" d="M63.47,9.78C60,1.21,48.39-2.27,37,1.53c6.2-1.68,12.25-.17,15,4.26,3.62,5.83.18,14.51-7.69,19.39s-17.19,4.11-20.8-1.72C20.15,18,22.91,10.12,29.67,5.12,21.21,10.77,17,19.92,20.13,27.49A14.93,14.93,0,0,0,28,35.32c2.4,1.1,9.58-3.8,12.52-3.64,2.36.12.4,5.48,2.9,4.94A31.62,31.62,0,0,0,48.51,35c12-4.9,18.66-16.2,15-25.25"/><path class="cls-1" d="M61.22,40.3S71,41.39,81.56,34.4a119.64,119.64,0,0,0-16-7.37L52.76,32s-16.3-3.27-25.86,0c0,0-3.6,1.67-5.14,4s-1.34,5.51-4.1,8.33c-2.26,2.31-13,7.88-16.81,9.83a1.57,1.57,0,0,0-.68,2.1c1.27,2.53,4.05,7.35,7.73,8.79,0,0,3.56-1.12,3.28-6.69a.28.28,0,0,1,.54-.13,8.34,8.34,0,0,1-1.25,8.42s6,2.76,10,1.86,21.37-7.5,31.57.19,16,30.91-9.11,37.9c0,0,26.05-1,35.22-24S75,42,75,42s-8.66.9-13.8-1.67M37.74,38.7,29.66,42V38.31L40,32.61ZM50.57,62s9.37-4,10.21-17.38l.25,10S56.86,60.44,50.57,62"/><path class="cls-1" d="M2.58,59.73c-.13.07.13,6.16,5.32,5.33l2.57,1.6S8,69.67,4.18,67c-3-2.08-2.31-8.33-2.31-8.33Z"/><path class="cls-2" d="M52.05,68.71c-4-3-9.09-3.83-14.06-3.66-3.82.54-8.5,1.93-11.8,5.33,0,0,11.55,6,7.32,18.27S16,98.85,16,98.85s9.94,9.11,26.95,7.76c25.15-7,19.31-30.2,9.11-37.9"/></g></g></svg>