<svg id="Layer_1" data-name="Layer 1" xmlns="http://www.w3.org/2000/svg" xmlns:xlink="http://www.w3.org/1999/xlink" viewBox="0 0 28 28"><defs><style>.cls-1,.cls-6{fill:none;}.cls-2{clip-path:url(#clip-path);}.cls-3{fill:#001f2d;}.cls-4{fill:#00517a;}.cls-5{fill:#0089a2;}.cls-6{stroke:#fff;stroke-miterlimit:10;}</style><clipPath id="clip-path"><circle class="cls-1" cx="14" cy="14" r="12.75"/></clipPath></defs><title>vip-35</title><g class="cls-2"><circle class="cls-3" cx="14" cy="14" r="12.75"/><path class="cls-4" d="M-.74,20.6a53.84,53.84,0,0,1,28.66-.89C43.84,23.53,2.7,47.6-.74,20.6Z"/><path class="cls-5" d="M13.49,20.68c.24-3.45.18-7.55-1.51-8.16a1.34,1.34,0,0,0-1.13,0C7,13.68,2.57,13.3,6.27,10.88a5.61,5.61,0,0,1,6.62,0S8.43,7.7,11.11,7.06s4.3,5.09,4.3,5.09.41-3.44,2.45-3.44S22.57,11.9,20.28,12s-2.55-1.28-2.93,0-1.94,8.66-1.94,8.66a1.23,1.23,0,0,1-1,.47A1.27,1.27,0,0,1,13.49,20.68Z"/><path class="cls-5" d="M19.2,13.44s4.73.23,3.25,1.19S19.2,13.44,19.2,13.44Z"/><path class="cls-5" d="M15.66,7.76s2.72-3.87,1.06-3.3S15.66,7.76,15.66,7.76Z"/></g><circle class="cls-6" cx="14" cy="14" r="13.13"/></svg>