<svg xmlns="http://www.w3.org/2000/svg" viewBox="0 0 50 50"><defs><style>.cls-1{fill:#adc913;}.cls-2{fill:#95ad22;}.cls-3{fill:#fff;}</style></defs><title>email</title><g id="Camada_2" data-name="Camada 2"><g id="Camada_1-2" data-name="Camada 1"><path class="cls-1" d="M50,25A25,25,0,0,0,1,18.15,25,25,0,0,1,34.12,41.78a24.91,24.91,0,0,1-.95,6.85A25,25,0,0,0,50,25"/><path class="cls-2" d="M9.12,16.78A24.84,24.84,0,0,0,1,18.15,25,25,0,0,0,33.17,48.63,25,25,0,0,0,9.12,16.78"/><path class="cls-3" d="M39.64,34.46H11.94V15.88h27.7ZM14,32.43H37.61V17.9H14Z"/><polygon class="cls-3" points="25.44 27.02 12.36 17.72 13.54 16.07 25.47 24.55 38.06 16.05 39.19 17.73 25.44 27.02"/></g></g></svg>