<svg xmlns="http://www.w3.org/2000/svg" viewBox="0 0 100 100"><defs><style>.cls-1{fill:#adc913;}.cls-2{fill:#95ad22;}.cls-3{fill:#fff;fill-rule:evenodd;}</style></defs><title>facebook</title><g id="Camada_2" data-name="Camada 2"><g id="Camada_1-2" data-name="Camada 1"><path class="cls-1" d="M100,50A50,50,0,0,0,1.9,36.29a50,50,0,0,1,64.44,61A50,50,0,0,0,100,50"/><path class="cls-2" d="M18.24,33.56A49.93,49.93,0,0,0,1.9,36.29a50,50,0,0,0,64.44,61,50.05,50.05,0,0,0-48.1-63.71"/><path class="cls-3" d="M43.83,49.85v23a.58.58,0,0,0,.59.59H53a.58.58,0,0,0,.59-.59V49.48h6.19a.61.61,0,0,0,.6-.55l.59-7a.59.59,0,0,0-.59-.65H53.55v-5a2.12,2.12,0,0,1,2.12-2.12h4.77a.59.59,0,0,0,.6-.59v-7a.6.6,0,0,0-.6-.6h-8a8.56,8.56,0,0,0-8.56,8.56v6.78H39.56a.6.6,0,0,0-.6.6v7a.6.6,0,0,0,.6.6h4.27Z"/></g></g></svg>