<svg xmlns="http://www.w3.org/2000/svg" viewBox="0 0 100 100"><defs><style>.cls-1{fill:#adc913;}.cls-2{fill:#95ad22;}.cls-3{fill:#fff;}</style></defs><title>instagram</title><g id="Camada_2" data-name="Camada 2"><g id="Camada_1-2" data-name="Camada 1"><path class="cls-1" d="M100,50A50,50,0,0,0,1.9,36.29a50,50,0,0,1,64.44,61A50,50,0,0,0,100,50"/><path class="cls-2" d="M18.24,33.56A49.93,49.93,0,0,0,1.9,36.29a50,50,0,0,0,64.44,61,50.05,50.05,0,0,0-48.1-63.71"/><path class="cls-3" d="M62.2,35.34a2.73,2.73,0,1,0,2.73,2.73,2.73,2.73,0,0,0-2.73-2.73"/><path class="cls-3" d="M50.08,38.84A11.46,11.46,0,1,0,61.54,50.3,11.47,11.47,0,0,0,50.08,38.84m0,18.8a7.34,7.34,0,1,1,7.34-7.34,7.34,7.34,0,0,1-7.34,7.34"/><path class="cls-3" d="M59.22,26.8H40.78a14,14,0,0,0-14,14V59.22a14,14,0,0,0,14,14H59.22a14,14,0,0,0,14-14V40.78a14,14,0,0,0-14-14m9.6,32.42a9.6,9.6,0,0,1-9.6,9.6H40.78a9.6,9.6,0,0,1-9.6-9.6V40.78a9.6,9.6,0,0,1,9.6-9.6H59.22a9.6,9.6,0,0,1,9.6,9.6Z"/></g></g></svg>