<svg xmlns="http://www.w3.org/2000/svg" viewBox="0 0 53.31 53.28"><defs><style>.cls-1{fill:#afca0b;}</style></defs><title>menu-mobile</title><g id="Camada_2" data-name="Camada 2"><g id="Camada_1-2" data-name="Camada 1"><path class="cls-1" d="M4,9.4H49.31c2.21,0,4-2.1,4-4.7S51.52,0,49.31,0H4C1.79,0,0,2.1,0,4.7S1.79,9.4,4,9.4"/><path class="cls-1" d="M49.31,21.94H4c-2.21,0-4,2.1-4,4.7s1.79,4.7,4,4.7H49.31c2.21,0,4-2.1,4-4.7s-1.79-4.7-4-4.7"/><path class="cls-1" d="M49.31,43.88H4c-2.21,0-4,2.1-4,4.7s1.79,4.7,4,4.7H49.31c2.21,0,4-2.11,4-4.7s-1.79-4.7-4-4.7"/></g></g></svg>