<svg id="Layer_1" data-name="Layer 1" xmlns="http://www.w3.org/2000/svg" xmlns:xlink="http://www.w3.org/1999/xlink" viewBox="0 0 28 28"><defs><style>.cls-1,.cls-6{fill:none;}.cls-2{fill:#0089a2;}.cls-3{clip-path:url(#clip-path);}.cls-4{fill:#b3b3b3;}.cls-5{fill:#191010;}.cls-6{stroke:#fff;stroke-miterlimit:10;}</style><clipPath id="clip-path"><circle class="cls-1" cx="14" cy="14" r="13.13"/></clipPath></defs><title>basico</title><circle class="cls-2" cx="14" cy="14" r="13.13"/><g class="cls-3"><path class="cls-4" d="M14.73,8.23a79.05,79.05,0,0,1,8.71-1.69C36.18,4.81,51,6,51.36,8.93c0,.2,0,.75-1.44,1.94-4,3.22-9.14,3.37-14.73,3S17.15,9.42,15,9.9c-.6.16-1.16.07-1.31-.21S13.87,8.66,14.73,8.23Z"/><path class="cls-4" d="M17.44,8.19S8.67,4.66,7.25,5s1,2.09,1.85,2.54,1.37,1.76,3.11,1.9S17.44,8.19,17.44,8.19Z"/><path class="cls-4" d="M17,9.63s-9.59,2.58-10.73,2,1.86-2,2.83-2.4,2-1.65,3.69-1.58S17,9.63,17,9.63Z"/><path class="cls-4" d="M-14.44,16.39A79.05,79.05,0,0,1-5.73,14.7C7,13,21.81,14.16,22.19,17.09c0,.2,0,.75-1.43,1.93-4,3.23-9.14,3.38-14.73,3s-18-4.43-20.16-3.94c-.61.16-1.17.06-1.32-.21S-15.29,16.82-14.44,16.39Z"/><circle class="cls-5" cx="17.03" cy="16.21" r="0.82"/></g><circle class="cls-6" cx="14" cy="14" r="13.13"/></svg>