<svg xmlns="http://www.w3.org/2000/svg" viewBox="0 0 100 100"><defs><style>.cls-1{fill:#adc913;}.cls-2{fill:#95ad22;}.cls-3{fill:#f4f4f4;}.cls-4{fill:#e0e0e0;}.cls-5{fill:#fff;}</style></defs><title>telegram</title><g id="Camada_2" data-name="Camada 2"><g id="Camada_1-2" data-name="Camada 1"><path class="cls-1" d="M100,50A50,50,0,0,0,1.9,36.29a50,50,0,0,1,64.44,61A50,50,0,0,0,100,50"/><path class="cls-2" d="M18.24,33.56A49.93,49.93,0,0,0,1.9,36.29a50,50,0,0,0,64.44,61,50.05,50.05,0,0,0-48.1-63.71"/><polygon class="cls-3" points="38.41 52.06 43.56 66.04 66.43 34.27 38.41 52.06"/><polygon class="cls-4" points="44.13 55.17 43.63 66.18 55.7 55.94 44.13 55.17"/><path class="cls-5" d="M72,28.91,27,46A1.45,1.45,0,0,0,27,48.77L38.62,52.7,65.09,35.62l-21,19.55L60.45,67.55a3,3,0,0,0,4.67-1.64l8.82-35.29A1.45,1.45,0,0,0,72,28.91"/></g></g></svg>