<svg id="Layer_1" data-name="Layer 1" xmlns="http://www.w3.org/2000/svg" viewBox="0 0 28 28"><defs><style>.cls-1{fill:#00517a;}.cls-2{opacity:0.38;}.cls-3{fill:#0089a2;}.cls-4{fill:#b3b3b3;}.cls-5{fill:none;stroke:#fff;stroke-miterlimit:10;}</style></defs><title>premium-35</title><circle class="cls-1" cx="14" cy="14" r="12.75"/><g class="cls-2"><path class="cls-3" d="M26.75,14a12.75,12.75,0,0,1-25.5,0"/><path class="cls-3" d="M26.75,14a12.75,12.75,0,0,1-25.5,0"/></g><path class="cls-4" d="M7,16.37s3.26-2,2.74-5A13.25,13.25,0,0,0,8,6.65c.77-.07,6.3-.48,10.19,3.18a12.37,12.37,0,0,1,3.41,5.56l.32,1.74h0a33,33,0,0,1-5.44.51A33.65,33.65,0,0,1,7,16.37Z"/><path class="cls-3" d="M17.44,18.57a29.47,29.47,0,0,1-3.64.32,26.31,26.31,0,0,1-3.66-.3,19.53,19.53,0,0,1-3.57-.86,5.22,5.22,0,0,1-1.68-.88.59.59,0,0,1-.2-.56.64.64,0,0,1,.39-.37,2.93,2.93,0,0,1,.9-.24,5,5,0,0,0-.8.41c-.11.08-.22.19-.22.27s.06.14.18.21a5.65,5.65,0,0,0,1.6.6,35.25,35.25,0,0,0,3.52.68c1.18.19,2.37.33,3.57.45S16.22,18.43,17.44,18.57Z"/><path class="cls-3" d="M23.29,15.94a4.93,4.93,0,0,1,1.14.18,2.36,2.36,0,0,1,.57.25.74.74,0,0,1,.38.72,1,1,0,0,1-.46.63,3.35,3.35,0,0,1-.55.3,7,7,0,0,1-1.12.37,13.36,13.36,0,0,1-4.54.27c1.47-.42,2.94-.65,4.36-1a8.7,8.7,0,0,0,1-.29,1.67,1.67,0,0,0,.71-.39c.11,0-.23-.38-.52-.53A10.42,10.42,0,0,0,23.29,15.94Z"/><path class="cls-3" d="M12.68,19.85c2-.05,3.9-.08,5.83-.26s3.83-.45,5.78-.73a16.9,16.9,0,0,1-5.72,1.48A16.71,16.71,0,0,1,12.68,19.85Z"/><path class="cls-3" d="M4.56,15.34a11.49,11.49,0,0,0-1.24.72c-.37.25-.74.62-.71.9s.38.55.78.74a8.44,8.44,0,0,0,1.27.52c1.79.57,3.68.91,5.57,1.4a16.82,16.82,0,0,1-5.8-.69A8.51,8.51,0,0,1,3,18.32a3.7,3.7,0,0,1-.64-.5A1.23,1.23,0,0,1,2,17a1.17,1.17,0,0,1,.44-.8,3.18,3.18,0,0,1,.67-.41A7.35,7.35,0,0,1,4.56,15.34Z"/><circle class="cls-5" cx="14" cy="14" r="13.13"/></svg>