<svg xmlns="http://www.w3.org/2000/svg" viewBox="0 0 100 100"><defs><style>.cls-1{fill:#adc913;}.cls-2{fill:#95ad22;}.cls-3{fill:#fff;}</style></defs><title>twitter</title><g id="Camada_2" data-name="Camada 2"><g id="Camada_1-2" data-name="Camada 1"><path class="cls-1" d="M100,50A50,50,0,0,0,1.9,36.29a50,50,0,0,1,64.44,61A50,50,0,0,0,100,50"/><path class="cls-2" d="M18.24,33.56A49.93,49.93,0,0,0,1.9,36.29a50,50,0,0,0,64.44,61,50.05,50.05,0,0,0-48.1-63.71"/><path class="cls-3" d="M73,34.8a19,19,0,0,1-4.68,1.34c.75-.13,1.87-1.5,2.31-2a8.68,8.68,0,0,0,1.56-2.84c0-.08.07-.19,0-.25A.27.27,0,0,0,72,31a23.15,23.15,0,0,1-5.56,2.13.36.36,0,0,1-.39-.1,4.47,4.47,0,0,0-.48-.49,10.18,10.18,0,0,0-2.7-1.66,9.45,9.45,0,0,0-4.14-.66,9.8,9.8,0,0,0-3.92,1.1,10.18,10.18,0,0,0-3.17,2.59,9.8,9.8,0,0,0-1.89,3.79,10.35,10.35,0,0,0-.1,4c0,.22,0,.25-.19.22-7.65-1.14-14-3.88-19.13-9.74-.22-.25-.34-.25-.53,0C27.5,35.6,28.59,41,31.41,43.68c.37.36.76.71,1.17,1a9.91,9.91,0,0,1-3.69-1c-.22-.14-.33-.06-.35.2A5.88,5.88,0,0,0,28.6,45a9.8,9.8,0,0,0,6,7.82,6.49,6.49,0,0,0,1.23.38,11.19,11.19,0,0,1-3.62.11c-.27-.05-.37.08-.27.33,1.6,4.34,5,5.64,7.61,6.37.35.06.69.06,1,.14,0,0,0,0-.06.07-.86,1.3-3.82,2.27-5.2,2.75a18.74,18.74,0,0,1-7.89,1c-.42-.06-.51-.06-.63,0s0,.17.12.28c.54.36,1.09.67,1.65,1a26.37,26.37,0,0,0,5.27,2.11c9.48,2.61,20.16.69,27.27-6.38,5.59-5.55,7.55-13.21,7.55-20.88,0-.3.35-.46.56-.62A18.56,18.56,0,0,0,73,35.58a1.15,1.15,0,0,0,.23-.74v0c0-.12,0-.09-.18,0"/></g></g></svg>