<svg xmlns="http://www.w3.org/2000/svg" viewBox="0 0 100 100"><defs><style>.cls-1{fill:#adc913;}.cls-2{fill:#95ad22;}.cls-3{fill:#fff;}</style></defs><title>youtube</title><g id="Camada_2" data-name="Camada 2"><g id="Camada_1-2" data-name="Camada 1"><path class="cls-1" d="M100,50A50,50,0,0,0,1.9,36.29a50,50,0,0,1,64.44,61A50,50,0,0,0,100,50"/><path class="cls-2" d="M18.24,33.56A49.93,49.93,0,0,0,1.9,36.29a50,50,0,0,0,64.44,61,50.05,50.05,0,0,0-48.1-63.71"/><path class="cls-3" d="M78.6,42.43A12.44,12.44,0,0,0,66.15,30H33.85A12.44,12.44,0,0,0,21.4,42.43V57.57A12.44,12.44,0,0,0,33.85,70h32.3A12.44,12.44,0,0,0,78.6,57.57ZM58.22,50.76,45.34,57.83c-.56.3-1.06-.1-1.06-.74V42.59c0-.65.52-1.05,1.08-.73l13,7.43a.85.85,0,0,1-.11,1.47"/></g></g></svg>